<svg width="95" height="94" viewBox="0 0 95 94" fill="none" xmlns="http://www.w3.org/2000/svg">
<path d="M47.1543 85.4917C69.3405 85.4917 87.3259 67.5063 87.3259 45.3201C87.3259 23.1339 69.3405 5.14844 47.1543 5.14844C24.9681 5.14844 6.98267 23.1339 6.98267 45.3201C6.98267 67.5063 24.9681 85.4917 47.1543 85.4917Z" stroke="#739DB2" stroke-miterlimit="10"/>
<path d="M21.3777 75.5604L45.5923 51.4574C46.1502 50.8995 46.2618 50.1184 45.927 49.4488C45.5923 48.7793 44.9227 48.3329 44.2532 48.3329C42.3562 48.3329 40.6824 47.6634 39.3433 46.3244C36.7768 43.7578 36.7768 39.4059 39.3433 36.8394C41.9099 34.2729 46.2618 34.2729 48.8283 36.8394C50.1674 38.1785 50.8369 39.8523 50.8369 41.7493C50.8369 42.5304 51.2832 43.0883 51.9528 43.4231C52.6223 43.7578 53.4034 43.5347 53.9613 43.0883L77.9527 19.0969" stroke="#739DB2" stroke-miterlimit="10"/>
<path d="M75.6093 16.9766L54.0728 38.513C53.5149 37.0624 52.7337 35.8349 51.6179 34.719C47.6007 30.7019 41.1286 30.7019 37.1114 34.719C33.0943 38.7362 33.0943 45.2083 37.1114 49.2255C38.2273 50.3413 39.4548 51.1225 40.9054 51.6804L18.811 73.7748" stroke="#739DB2" stroke-miterlimit="10"/>
</svg>
