<svg width="108" height="91" viewBox="0 0 108 91" fill="none" xmlns="http://www.w3.org/2000/svg">
<path d="M15.5528 69.4627C11.1091 62.5358 8.49524 54.302 8.49524 45.4147C8.49524 20.844 28.3609 0.978271 52.9317 0.978271" stroke="#739DB2" stroke-miterlimit="10"/>
<path d="M92.1403 24.5034C95.5384 30.7768 97.3681 37.8344 97.3681 45.4147C97.3681 69.9854 77.5024 89.8511 52.9316 89.8511" stroke="#739DB2" stroke-miterlimit="10"/>
<path d="M53.1931 64.8884C64.5977 64.8884 73.843 55.6431 73.843 44.2385C73.843 32.8339 64.5977 23.5886 53.1931 23.5886C41.7885 23.5886 32.5432 32.8339 32.5432 44.2385C32.5432 55.6431 41.7885 64.8884 53.1931 64.8884Z" stroke="#739DB2" stroke-miterlimit="10"/>
<path d="M82.4689 40.3176L92.271 23.9807L107.432 33.1294" stroke="#739DB2" stroke-miterlimit="10"/>
<path d="M25.747 53.6484L16.0755 69.8547L0.78418 60.8367" stroke="#739DB2" stroke-miterlimit="10"/>
</svg>
