<svg width="100" height="100" viewBox="0 0 100 100" fill="none" xmlns="http://www.w3.org/2000/svg">
<circle cx="50" cy="50" r="49.5" stroke="#FF4500"/>
<g clip-path="url(#clip0_8333_2181)">
<path d="M48.2617 68.412L55.8813 75.3305V28.7611L48.2617 35.754V68.412Z" stroke="#FF4500" stroke-miterlimit="10"/>
<path d="M39.6048 46.8383C41.6885 46.8383 43.3776 45.1397 43.3776 43.0444C43.3776 40.949 41.6885 39.2504 39.6048 39.2504C37.5212 39.2504 35.832 40.949 35.832 43.0444C35.832 45.1397 37.5212 46.8383 39.6048 46.8383Z" fill="white" stroke="#FF4500" stroke-miterlimit="10"/>
<path d="M45.8197 66.2546C47.9033 66.2546 49.5924 64.556 49.5924 62.4606C49.5924 60.3653 47.9033 58.6666 45.8197 58.6666C43.736 58.6666 42.0469 60.3653 42.0469 62.4606C42.0469 64.556 43.736 66.2546 45.8197 66.2546Z" fill="white" stroke="#FF4500" stroke-miterlimit="10"/>
<path d="M32.0618 62.0887C34.1455 62.0887 35.8346 60.3901 35.8346 58.2947C35.8346 56.1994 34.1455 54.5007 32.0618 54.5007C29.9782 54.5007 28.2891 56.1994 28.2891 58.2947C28.2891 60.3901 29.9782 62.0887 32.0618 62.0887Z" fill="white" stroke="#FF4500" stroke-miterlimit="10"/>
<path d="M37.4607 70.9414C38.809 70.9414 39.902 69.8422 39.902 68.4864C39.902 67.1306 38.809 66.0315 37.4607 66.0315C36.1125 66.0315 35.0195 67.1306 35.0195 68.4864C35.0195 69.8422 36.1125 70.9414 37.4607 70.9414Z" fill="white" stroke="#FF4500" stroke-miterlimit="10"/>
<path d="M42.5662 36.2746C43.9145 36.2746 45.0074 35.1755 45.0074 33.8197C45.0074 32.4639 43.9145 31.3647 42.5662 31.3647C41.218 31.3647 40.125 32.4639 40.125 33.8197C40.125 35.1755 41.218 36.2746 42.5662 36.2746Z" fill="white" stroke="#FF4500" stroke-miterlimit="10"/>
<path d="M31.3201 42.6723C32.6684 42.6723 33.7613 41.5732 33.7613 40.2174C33.7613 38.8616 32.6684 37.7625 31.3201 37.7625C29.9719 37.7625 28.8789 38.8616 28.8789 40.2174C28.8789 41.5732 29.9719 42.6723 31.3201 42.6723Z" fill="white" stroke="#FF4500" stroke-miterlimit="10"/>
<path d="M59.3594 48.2518C59.3594 48.2518 61.4307 44.0858 64.9076 44.0858C67.7187 44.0858 68.9763 47.3591 71.5655 48.103C73.8587 48.7725 76.8178 47.5822 78.0014 45.4993" fill="white"/>
<path d="M59.3594 48.2518C59.3594 48.2518 61.4307 44.0858 64.9076 44.0858C67.7187 44.0858 68.9763 47.3591 71.5655 48.103C73.8587 48.7725 76.8178 47.5822 78.0014 45.4993" stroke="#FF4500" stroke-miterlimit="10"/>
<path d="M59.3594 53.4592C59.3594 53.4592 61.4307 49.2932 64.9076 49.2932C67.7187 49.2932 68.9763 52.5665 71.5655 53.3104C73.8587 53.9799 76.8178 52.7896 78.0014 50.7067" fill="white"/>
<path d="M59.3594 53.4592C59.3594 53.4592 61.4307 49.2932 64.9076 49.2932C67.7187 49.2932 68.9763 52.5665 71.5655 53.3104C73.8587 53.9799 76.8178 52.7896 78.0014 50.7067" stroke="#FF4500" stroke-miterlimit="10"/>
<path d="M59.3594 58.6667C59.3594 58.6667 61.4307 54.5007 64.9076 54.5007C67.7187 54.5007 68.9763 57.774 71.5655 58.5179C73.8587 59.1874 76.8178 57.9972 78.0014 55.9142" fill="white"/>
<path d="M59.3594 58.6667C59.3594 58.6667 61.4307 54.5007 64.9076 54.5007C67.7187 54.5007 68.9763 57.774 71.5655 58.5179C73.8587 59.1874 76.8178 57.9972 78.0014 55.9142" stroke="#FF4500" stroke-miterlimit="10"/>
<path d="M23.0352 74.4377L72.4513 24.7439" stroke="white" stroke-width="6" stroke-miterlimit="10"/>
<path d="M23.0352 74.4377L72.4513 24.7439" stroke="#FF4500" stroke-miterlimit="10"/>
</g>
<defs>
<clipPath id="clip0_8333_2181">
<rect width="56" height="52" fill="white" transform="translate(22 24)"/>
</clipPath>
</defs>
</svg>
