<svg width="100" height="100" viewBox="0 0 100 100" fill="none" xmlns="http://www.w3.org/2000/svg">
<circle cx="50" cy="50" r="49.5" stroke="#FF4500"/>
<path d="M38.4341 74.3118C49.8511 74.3118 59.1064 65.1298 59.1064 53.8034C59.1064 42.4769 49.8511 33.2949 38.4341 33.2949C27.017 33.2949 17.7617 42.4769 17.7617 53.8034C17.7617 65.1298 27.017 74.3118 38.4341 74.3118Z" stroke="#FF4500" stroke-miterlimit="10"/>
<path d="M19.2188 72.6601L57.7193 34.4648H81.8602" stroke="#FF4500" stroke-miterlimit="10"/>
<path d="M59.2441 31.2304H58.6198V27.1011L57.3711 27.5829V27.0323L59.1747 26.3441H59.2441V31.2304Z" fill="#FF4500"/>
<path d="M64.1685 29.1657C64.1685 29.9227 64.0298 30.4045 63.8217 30.7486C63.5442 31.0927 63.1974 31.2991 62.6424 31.2991C62.0874 31.2991 61.7406 31.0927 61.4631 30.8174C61.1856 30.4733 61.1162 29.9916 61.0469 29.3034V28.4087C61.0469 27.7205 61.1856 27.1699 61.3937 26.8258C61.6712 26.4817 62.0181 26.2753 62.573 26.2753C63.128 26.2753 63.4748 26.4129 63.7523 26.757C64.0298 27.1011 64.0992 27.5829 64.1685 28.3399V29.1657ZM63.5442 28.3399C63.5442 27.7893 63.4748 27.4452 63.3361 27.1699C63.1974 26.9635 62.9199 26.8258 62.6424 26.8258C62.2955 26.8258 62.0874 26.9635 61.9487 27.1699C61.8099 27.3764 61.7406 27.7893 61.7406 28.2711V29.2345C61.7406 29.7851 61.8099 30.1292 61.9487 30.4045C62.0874 30.6798 62.3649 30.7486 62.6424 30.7486C62.9199 30.7486 63.1974 30.6109 63.3361 30.4045C63.4748 30.198 63.5442 29.7851 63.5442 29.3034V28.3399Z" fill="#FF4500"/>
<path d="M67.9849 29.1657C67.9849 29.9227 67.8462 30.4045 67.6381 30.7486C67.3606 31.0927 67.0138 31.2991 66.4588 31.2991C65.9038 31.2991 65.557 31.0927 65.2795 30.8174C65.002 30.4733 64.9327 29.9916 64.8633 29.3034V28.4087C64.8633 27.7205 65.002 27.1699 65.2101 26.8258C65.4182 26.4817 65.8345 26.2753 66.3894 26.2753C66.9444 26.2753 67.2912 26.4129 67.5687 26.757C67.8462 27.1011 67.9156 27.5829 67.9849 28.3399V29.1657ZM67.3606 28.3399C67.3606 27.7893 67.2912 27.4452 67.1525 27.1699C67.0138 26.9635 66.7363 26.8258 66.4588 26.8258C66.1119 26.8258 65.9038 26.9635 65.7651 27.1699C65.6264 27.4452 65.557 27.7893 65.557 28.2711V29.2345C65.557 29.7851 65.6264 30.1292 65.7651 30.4045C65.9038 30.6798 66.1813 30.7486 66.4588 30.7486C66.7363 30.7486 67.0138 30.6109 67.1525 30.4045C67.2912 30.198 67.3606 29.7851 67.3606 29.3034V28.3399Z" fill="#FF4500"/>
<path d="M71.1761 27.6517V28.0646C71.4535 27.7205 71.8004 27.5829 72.286 27.5829C72.7716 27.5829 73.1184 27.7893 73.3265 28.1334C73.4653 27.927 73.604 27.7893 73.8121 27.7205C74.0202 27.6517 74.2283 27.5829 74.5058 27.5829C75.3383 27.5829 75.6851 27.9958 75.7545 28.8216V31.2304H75.1302V28.8905C75.1302 28.6152 75.0608 28.4087 74.9221 28.3399C74.7833 28.1334 74.5752 28.0646 74.2977 28.0646C74.0896 28.0646 73.8815 28.1334 73.7428 28.2711C73.604 28.4087 73.5346 28.6152 73.4653 28.8216V31.2304H72.8409V28.8905C72.8409 28.3399 72.5635 28.1334 72.0779 28.1334C71.6616 28.1334 71.3842 28.3399 71.2454 28.684V31.2992H70.6211V27.6517H71.1761Z" fill="#FF4500"/>
<path d="M77.2112 27.6517V28.0646C77.4887 27.7205 77.8355 27.5829 78.3211 27.5829C78.8067 27.5829 79.1536 27.7893 79.3617 28.1334C79.5004 27.927 79.6392 27.7893 79.8473 27.7205C80.0554 27.6517 80.2635 27.5829 80.541 27.5829C81.3734 27.5829 81.7203 27.9958 81.7897 28.8216V31.2304H81.1653V28.8905C81.1653 28.6152 81.096 28.4087 80.9572 28.3399C80.8185 28.1334 80.6104 28.0646 80.3329 28.0646C80.1248 28.0646 79.9167 28.1334 79.7779 28.2711C79.6392 28.4087 79.5698 28.6152 79.5004 28.8216V31.2304H78.8761V28.8905C78.8761 28.3399 78.5986 28.1334 78.113 28.1334C77.6968 28.1334 77.4193 28.3399 77.2806 28.684V31.2992H76.6562V27.6517H77.2112Z" fill="#FF4500"/>
</svg>
