<svg width="100" height="100" viewBox="0 0 100 100" fill="none" xmlns="http://www.w3.org/2000/svg">
<circle cx="50" cy="50" r="49.5" stroke="#FF4500"/>
<g clip-path="url(#clip0_8333_2217)">
<path d="M62.5742 29.7163L73.5518 27.927L75.3697 38.0436" stroke="#FF4500" stroke-miterlimit="10"/>
<path d="M24.1172 73.1418C24.1172 73.1418 57.6792 64.1952 73.0618 27.7205" stroke="#FF4500" stroke-miterlimit="10"/>
<path d="M34.8846 57.7949C34.8846 58.2078 35.2342 58.6208 35.7236 58.6208H40.8279C41.2474 58.6208 41.6669 58.2767 41.6669 57.7949V56.2121C42.7157 55.9368 43.7645 55.5239 44.7434 54.9733L45.8622 56.0744C46.002 56.2121 46.2118 56.2809 46.4215 56.2809C46.6313 56.2809 46.8411 56.2121 46.9809 56.0744L50.6168 52.4958C50.9664 52.1517 50.9664 51.6699 50.6168 51.3258L49.4981 50.2247C50.0574 49.2612 50.4769 48.2977 50.7566 47.1966H52.3648C52.7843 47.1966 53.2039 46.8525 53.2039 46.3708V41.3469C53.2039 40.934 52.8543 40.521 52.3648 40.521H50.7566C50.4769 39.4887 50.0574 38.4564 49.4981 37.493L50.6168 36.3918C50.7566 36.2542 50.8265 36.0477 50.8265 35.8413C50.8265 35.6348 50.7566 35.4283 50.6168 35.2907L46.9809 31.7121C46.6313 31.5056 46.0719 31.5056 45.7922 31.8497L44.6735 32.9508C43.6946 32.4003 42.7157 31.9873 41.597 31.7121V30.1292C41.597 29.7163 41.2474 29.3033 40.7579 29.3033H35.6537C35.2342 29.3722 34.8846 29.7163 34.8846 30.1292V31.6432C33.8358 31.9185 32.787 32.3314 31.8081 32.882L30.6893 31.8497C30.4097 31.5056 29.8503 31.5056 29.5706 31.8497L25.9347 35.4283C25.7949 35.566 25.725 35.7724 25.725 35.9789C25.725 36.1854 25.7949 36.3918 25.9347 36.5295L27.0535 37.6306C26.4941 38.5941 26.0746 39.5576 25.7949 40.6587H24.1867C23.7672 40.6587 23.3477 41.0028 23.3477 41.4845V46.5084C23.3477 46.7149 23.4176 46.9213 23.5574 47.059C23.6973 47.1966 23.907 47.2654 24.1168 47.2654H25.7949C26.0746 48.2977 26.4941 49.33 27.0535 50.2935L25.9347 51.3946C25.5851 51.7387 25.5851 52.2205 25.9347 52.5646L29.5706 56.1432C29.7105 56.2809 29.9202 56.3497 30.13 56.3497C30.3397 56.3497 30.5495 56.2809 30.6893 56.1432L31.8081 55.0421C32.787 55.5927 33.7659 56.0056 34.8846 56.2809V57.7949Z" stroke="#FF4500" stroke-miterlimit="10"/>
<path d="M38.2413 51.67C42.5663 51.67 46.0724 48.2191 46.0724 43.9621C46.0724 39.7052 42.5663 36.2543 38.2413 36.2543C33.9163 36.2543 30.4102 39.7052 30.4102 43.9621C30.4102 48.2191 33.9163 51.67 38.2413 51.67Z" stroke="#FF4500" stroke-miterlimit="10"/>
<path d="M53.5542 64.1952H48.5898V73.1418H53.5542V64.1952Z" stroke="#FF4500" stroke-miterlimit="10"/>
<path d="M64.6011 55.2485H59.6367V73.1418H64.6011V55.2485Z" stroke="#FF4500" stroke-miterlimit="10"/>
<path d="M75.5816 43.8933H70.6172V73.1419H75.5816V43.8933Z" stroke="#FF4500" stroke-miterlimit="10"/>
</g>
<defs>
<clipPath id="clip0_8333_2217">
<rect width="53" height="49" fill="white" transform="translate(23 26)"/>
</clipPath>
</defs>
</svg>
