<svg width="100" height="100" viewBox="0 0 100 100" fill="none" xmlns="http://www.w3.org/2000/svg">
<circle cx="50" cy="50" r="49.5" stroke="#FF4500"/>
<path d="M43.7858 75.7388C43.7858 76.4972 44.3874 77.104 45.1394 77.104H53.7119C54.4639 77.104 55.0655 76.4972 55.0655 75.7388V73.0843C56.8702 72.6293 58.5998 71.8708 60.179 70.9607L62.0589 72.8568C62.2845 73.0843 62.6605 73.236 63.0365 73.236C63.4125 73.236 63.7133 73.0843 64.014 72.8568L70.1051 66.7135C70.6315 66.1826 70.6315 65.2725 70.1051 64.7416L68.2251 62.8456C69.1275 61.177 69.8795 59.5085 70.3307 57.6883H72.9626C73.7146 57.6883 74.3162 57.0815 74.3162 56.3231V47.677C74.3162 46.9186 73.7146 46.3118 72.9626 46.3118H70.3307C69.8795 44.4916 69.1275 42.7472 68.2251 41.1545L70.1051 39.2585C70.3307 39.0309 70.4811 38.6517 70.4811 38.2725C70.4811 37.8933 70.3307 37.5899 70.1051 37.2866L64.014 31.1433C63.4877 30.6124 62.5853 30.6124 62.0589 31.1433L60.179 33.0394C58.5246 32.1293 56.8702 31.3708 55.0655 30.9158V28.2613C55.0655 27.5029 54.4639 26.8961 53.7119 26.8961H45.2146C44.4626 26.8961 43.861 27.5029 43.861 28.2613V30.9158C42.0563 31.3708 40.3267 32.1293 38.7476 33.0394L36.7924 31.1433C36.266 30.6124 35.3637 30.6124 34.8373 31.1433L28.7462 37.2866C28.5206 37.5141 28.4454 37.8933 28.4454 38.2725C28.4454 38.6517 28.5958 38.9551 28.8214 39.2585L30.7014 41.1545C29.799 42.8231 29.047 44.4916 28.5958 46.3118H25.8887C25.1367 46.3118 24.5352 46.9186 24.5352 47.677V56.3231C24.5352 56.7023 24.6856 57.0057 24.9111 57.309C25.1367 57.5366 25.5127 57.6883 25.8887 57.6883H28.5206C28.9718 59.5085 29.7238 61.2529 30.6262 62.8456L28.7462 64.7416C28.2199 65.2725 28.2199 66.1826 28.7462 66.7135L34.8373 72.8568C35.0629 73.0843 35.4389 73.236 35.8148 73.236C36.1908 73.236 36.4916 73.0843 36.7924 72.8568L38.6724 70.9607C40.3267 71.8708 41.9811 72.6293 43.7858 73.0843V75.7388Z" stroke="#FF4500" stroke-miterlimit="10"/>
<path d="M49.5016 70.8848C59.8427 70.8848 68.2259 62.4297 68.2259 51.9999C68.2259 41.5701 59.8427 33.1151 49.5016 33.1151C39.1605 33.1151 30.7773 41.5701 30.7773 51.9999C30.7773 62.4297 39.1605 70.8848 49.5016 70.8848Z" stroke="#FF4500" stroke-miterlimit="10"/>
<path d="M41.6027 46.236L41.0763 47.0703L37.0156 44.4158L37.542 43.5815L41.6027 46.236Z" fill="#FF4500"/>
<path d="M43.5577 44.1882L42.8058 44.8708L39.7227 41.1545L40.4746 40.4719L43.5577 44.1882Z" fill="#FF4500"/>
<path d="M46.0401 42.8231L45.1378 43.2023L43.2578 38.7276L44.1602 38.3484L46.0401 42.8231Z" fill="#FF4500"/>
<path d="M48.8204 42.2163L47.8428 42.2922L47.3164 37.5141L48.294 37.4382L48.8204 42.2163Z" fill="#FF4500"/>
<path d="M51.6807 42.4438L50.7031 42.2921L51.5303 37.514L52.5079 37.6657L51.6807 42.4438Z" fill="#FF4500"/>
<path d="M54.3125 43.5056L53.4102 43.0506L55.5909 38.7275L56.4933 39.1826L54.3125 43.5056Z" fill="#FF4500"/>
<path d="M56.5674 45.3259L55.8906 44.6433L59.2745 41.1545L59.9513 41.8371L56.5674 45.3259Z" fill="#FF4500"/>
<path d="M58.1465 47.677L57.6953 46.7669L61.9064 44.4158L62.3576 45.3259L58.1465 47.677Z" fill="#FF4500"/>
<path d="M49.4991 54.3512C50.7866 54.3512 51.8302 53.2985 51.8302 52C51.8302 50.7016 50.7866 49.6489 49.4991 49.6489C48.2117 49.6489 47.168 50.7016 47.168 52C47.168 53.2985 48.2117 54.3512 49.4991 54.3512Z" stroke="#FF4500" stroke-miterlimit="10"/>
<path d="M52.0586 51.5449L64.0151 47.6011" stroke="#FF4500" stroke-miterlimit="10"/>
<path d="M58.901 60.2668H40.1016V64.059H58.901V60.2668Z" stroke="#FF4500" stroke-miterlimit="10"/>
</svg>
