<svg width="638" height="470" viewBox="0 0 638 470" fill="none" xmlns="http://www.w3.org/2000/svg">
<g clip-path="url(#clip0_8333_2296)">
<path d="M623.698 368.227L614.608 374.504L612.603 324.285C612.469 321.881 610.464 319.878 608.058 319.878H599.236C596.83 319.878 594.825 321.748 594.692 324.285L592.018 389.864L582.929 396.008V367.826L541.759 396.008V367.826L499.653 396.675L499.52 396.809V400.281V456.377C499.52 459.449 502.059 461.986 505.134 461.986H618.217C621.292 461.986 623.831 459.449 623.831 456.377V396.675L623.698 368.227Z" stroke="#F7920D" stroke-miterlimit="10"/>
<path d="M541.225 412.569H513.422V426.994H541.225V412.569Z" stroke="#F7920D" stroke-miterlimit="10"/>
<path d="M576.78 412.436H548.977V426.86H576.78V412.436Z" stroke="#F7920D" stroke-miterlimit="10"/>
<path d="M612.334 412.436H584.531V426.86H612.334V412.436Z" stroke="#F7920D" stroke-miterlimit="10"/>
<path d="M541.225 434.206H513.422V448.63H541.225V434.206Z" stroke="#F7920D" stroke-miterlimit="10"/>
<path d="M576.78 434.072H548.977V448.497H576.78V434.072Z" stroke="#F7920D" stroke-miterlimit="10"/>
<path d="M612.334 434.072H584.531V448.497H612.334V434.072Z" stroke="#F7920D" stroke-miterlimit="10"/>
<path d="M497.916 347.124C497.916 347.926 498.585 348.727 499.52 348.727H509.278C510.08 348.727 510.882 348.059 510.882 347.124V344.052C512.887 343.518 514.892 342.717 516.764 341.648L518.902 343.785C519.17 344.052 519.571 344.186 519.972 344.186C520.373 344.186 520.774 344.052 521.041 343.785L527.992 336.84C528.66 336.172 528.66 335.237 527.992 334.57L525.853 332.433C526.922 330.563 527.724 328.693 528.259 326.556H531.334C532.136 326.556 532.938 325.888 532.938 324.953V315.203C532.938 314.402 532.269 313.6 531.334 313.6H528.259C527.724 311.597 526.922 309.594 525.853 307.724L527.992 305.587C528.259 305.32 528.393 304.919 528.393 304.518C528.393 304.118 528.259 303.717 527.992 303.45L521.041 296.505C520.373 295.837 519.437 295.837 518.769 296.505L516.63 298.642C514.759 297.573 512.887 296.772 510.749 296.238V293.299C510.749 292.498 510.08 291.697 509.145 291.697H499.387C498.585 291.697 497.783 292.364 497.783 293.299V296.238C495.778 296.772 493.773 297.573 491.901 298.642L489.763 296.505C489.094 295.837 488.159 295.837 487.49 296.505L480.54 303.45C480.272 303.717 480.139 304.118 480.139 304.518C480.139 304.919 480.272 305.32 480.54 305.587L482.678 307.724C481.609 309.594 480.807 311.464 480.272 313.6H477.198C476.396 313.6 475.594 314.268 475.594 315.203V324.953C475.594 325.354 475.727 325.755 475.995 326.022C476.262 326.289 476.663 326.422 477.064 326.422H480.139C480.673 328.426 481.475 330.429 482.545 332.299L480.406 334.436C479.737 335.104 479.737 336.039 480.406 336.706L487.357 343.652C487.624 343.919 488.025 344.052 488.426 344.052C488.827 344.052 489.228 343.919 489.495 343.652L491.634 341.515C493.505 342.583 495.377 343.385 497.515 343.919V347.124H497.916Z" stroke="#F7920D" stroke-miterlimit="10"/>
<path d="M551.251 359.145C551.251 359.679 551.652 360.079 552.186 360.079H557.667C558.201 360.079 558.602 359.679 558.602 359.145V357.408C559.805 357.141 560.875 356.607 561.944 356.073L563.147 357.275C563.281 357.408 563.548 357.542 563.815 357.542C564.083 357.542 564.216 357.408 564.484 357.275L568.36 353.401C568.761 353.001 568.761 352.467 568.36 352.199L567.157 350.997C567.692 349.929 568.226 348.86 568.494 347.658H570.232C570.766 347.658 571.167 347.258 571.167 346.723V341.247C571.167 340.713 570.766 340.313 570.232 340.313H568.494C568.226 339.11 567.692 338.042 567.157 336.974L568.36 335.771C568.494 335.638 568.627 335.371 568.627 335.104C568.627 334.837 568.494 334.703 568.36 334.436L564.484 330.563C564.083 330.162 563.548 330.162 563.281 330.563L562.078 331.765C561.008 331.23 559.939 330.696 558.736 330.429V328.693C558.736 328.159 558.335 327.758 557.8 327.758H552.32C551.785 327.758 551.384 328.159 551.384 328.693V330.429C550.181 330.696 549.112 331.23 548.043 331.765L546.84 330.563C546.439 330.162 545.904 330.162 545.637 330.563L541.76 334.436C541.626 334.569 541.493 334.837 541.493 335.104C541.493 335.371 541.626 335.504 541.76 335.771L542.963 336.974C542.429 338.042 541.894 339.11 541.626 340.313H539.889C539.354 340.313 538.953 340.713 538.953 341.247V346.723C538.953 346.991 539.087 347.124 539.22 347.391C539.354 347.525 539.621 347.658 539.889 347.658H541.626C541.894 348.86 542.429 349.929 542.963 350.997L541.76 352.199C541.359 352.6 541.359 353.134 541.76 353.401L545.637 357.275C545.77 357.408 546.038 357.542 546.305 357.542C546.572 357.542 546.706 357.408 546.973 357.275L548.176 356.073C549.246 356.607 550.315 357.141 551.518 357.408V359.145H551.251Z" stroke="#F7920D" stroke-miterlimit="10"/>
<path d="M542.696 310.929C542.696 311.463 543.097 311.864 543.632 311.864H549.112C549.647 311.864 550.048 311.463 550.048 310.929V309.193C551.251 308.926 552.32 308.392 553.389 307.857L554.592 309.059C554.726 309.193 554.993 309.327 555.261 309.327C555.528 309.327 555.662 309.193 555.929 309.059L559.806 305.186C560.207 304.785 560.207 304.251 559.806 303.984L558.602 302.782C559.137 301.714 559.672 300.645 559.939 299.443H561.677C562.212 299.443 562.613 299.042 562.613 298.508V293.032C562.613 292.498 562.212 292.097 561.677 292.097H559.939C559.672 290.895 559.137 289.827 558.602 288.758L559.806 287.556C559.939 287.423 560.073 287.155 560.073 286.888C560.073 286.621 559.939 286.488 559.806 286.221L555.929 282.347C555.528 281.947 554.993 281.947 554.726 282.347L553.523 283.549C552.454 283.015 551.384 282.481 550.181 282.214V280.477C550.181 279.943 549.78 279.542 549.246 279.542H543.765C543.231 279.542 542.83 279.943 542.83 280.477V282.214C541.627 282.481 540.557 283.015 539.488 283.549L538.285 282.347C537.884 281.947 537.349 281.947 537.082 282.347L533.205 286.221C533.072 286.354 532.938 286.621 532.938 286.888C532.938 287.155 533.072 287.289 533.205 287.556L534.408 288.758C533.874 289.827 533.339 290.895 533.072 292.097H531.334C530.799 292.097 530.398 292.498 530.398 293.032V298.508C530.398 298.775 530.532 298.909 530.666 299.176C530.799 299.443 531.067 299.443 531.334 299.443H533.072C533.339 300.645 533.874 301.714 534.408 302.782L533.205 303.984C532.804 304.385 532.804 304.919 533.205 305.186L537.082 309.059C537.216 309.193 537.483 309.327 537.75 309.327C538.018 309.327 538.151 309.193 538.419 309.059L539.622 307.857C540.691 308.392 541.76 308.926 542.963 309.193V310.929H542.696Z" stroke="#F7920D" stroke-miterlimit="10"/>
<path d="M504.33 335.237C512.598 335.237 519.301 328.54 519.301 320.279C519.301 312.017 512.598 305.32 504.33 305.32C496.062 305.32 489.359 312.017 489.359 320.279C489.359 328.54 496.062 335.237 504.33 335.237Z" stroke="#F7920D" stroke-miterlimit="10"/>
<path d="M554.858 353.001C559.804 353.001 563.814 348.994 563.814 344.052C563.814 339.11 559.804 335.104 554.858 335.104C549.912 335.104 545.902 339.11 545.902 344.052C545.902 348.994 549.912 353.001 554.858 353.001Z" stroke="#F7920D" stroke-miterlimit="10"/>
<path d="M546.304 303.717C550.66 303.717 554.191 300.189 554.191 295.837C554.191 291.485 550.66 287.957 546.304 287.957C541.949 287.957 538.418 291.485 538.418 295.837C538.418 300.189 541.949 303.717 546.304 303.717Z" stroke="#F7920D" stroke-miterlimit="10"/>
<path d="M613.808 294.902C610.467 293.166 606.858 292.231 602.848 292.231C598.838 292.231 595.228 293.166 591.887 294.902" stroke="#F7920D" stroke-miterlimit="10"/>
<path d="M620.759 286.354C615.546 283.282 609.531 281.412 602.981 281.412C596.431 281.412 590.416 283.282 585.203 286.354" stroke="#F7920D" stroke-miterlimit="10"/>
<path d="M627.575 277.806C620.49 273.265 612.069 270.46 602.846 270.46C593.756 270.46 585.335 273.132 578.117 277.806" stroke="#F7920D" stroke-miterlimit="10"/>
<path d="M86.3513 213.43C83.0096 211.694 79.4006 210.759 75.3905 210.759C71.3805 210.759 67.7714 211.694 64.4297 213.43" stroke="#F7920D" stroke-miterlimit="10"/>
<path d="M93.1691 204.882C87.956 201.81 81.941 199.94 75.3912 199.94C68.8414 199.94 62.8264 201.81 57.6133 204.882" stroke="#F7920D" stroke-miterlimit="10"/>
<path d="M99.9847 196.334C92.9003 191.793 84.4792 188.988 75.256 188.988C66.1666 188.988 57.7454 191.659 50.5273 196.334" stroke="#F7920D" stroke-miterlimit="10"/>
<path d="M316.527 200.341C320.003 199.272 323.344 197.269 326.151 194.464C328.959 191.66 330.83 188.32 332.033 184.848" stroke="#F7920D" stroke-miterlimit="10"/>
<path d="M317.73 211.293C323.612 209.824 329.226 206.752 333.771 202.211C338.449 197.536 341.39 192.06 342.86 186.184" stroke="#F7920D" stroke-miterlimit="10"/>
<path d="M318.934 222.111C327.221 220.375 335.107 216.235 341.524 209.824C347.94 203.413 352.083 195.533 353.821 187.252" stroke="#F7920D" stroke-miterlimit="10"/>
<path d="M607.524 39.9347H607.391C605.653 21.7705 590.415 7.47949 571.701 7.47949C552.988 7.47949 537.749 21.7705 536.012 39.9347C524.516 40.7361 515.293 50.3525 515.293 62.1058C515.293 74.3934 525.184 84.2769 537.482 84.2769H607.524C619.822 84.2769 629.713 74.3934 629.713 62.1058C629.713 49.8182 619.688 39.9347 607.524 39.9347Z" stroke="#F7920D" stroke-miterlimit="10"/>
<path d="M572.502 64.2427L556.328 92.2904H588.676L572.502 64.2427Z" fill="white" stroke="#F7920D" stroke-miterlimit="10"/>
<path d="M318.397 172.427H315.857C309.174 164.68 290.059 159.071 267.603 159.071C245.146 159.071 225.898 164.68 219.348 172.427H216.809V177.769C216.809 178.036 216.809 178.17 216.809 178.437C216.809 189.122 239.532 197.803 267.603 197.803C295.673 197.803 318.397 189.122 318.397 178.437C318.397 178.17 318.397 178.036 318.397 177.769V172.427Z" fill="white" stroke="#F7920D" stroke-miterlimit="10"/>
<path d="M267.603 191.125C295.655 191.125 318.397 182.455 318.397 171.759C318.397 161.063 295.655 152.393 267.603 152.393C239.55 152.393 216.809 161.063 216.809 171.759C216.809 182.455 239.55 191.125 267.603 191.125Z" fill="white" stroke="#F7920D" stroke-miterlimit="10"/>
<path d="M267.601 185.783C289.822 185.783 307.836 179.504 307.836 171.759C307.836 164.014 289.822 157.735 267.601 157.735C245.381 157.735 227.367 164.014 227.367 171.759C227.367 179.504 245.381 185.783 267.601 185.783Z" fill="white" stroke="#F7920D" stroke-miterlimit="10"/>
<path d="M23.2578 293.433V236.67C23.2578 231.728 27.2679 227.721 32.2136 227.721H118.697C123.643 227.721 127.653 231.728 127.653 236.67V293.433C127.653 298.375 123.643 302.381 118.697 302.381H32.0799C27.1342 302.381 23.2578 298.375 23.2578 293.433Z" stroke="#F7920D" stroke-miterlimit="10"/>
<path d="M10.5586 315.47C10.5586 312.666 12.831 310.261 15.7717 310.261H135.004C137.811 310.261 140.217 312.532 140.217 315.47C140.217 318.275 137.945 320.679 135.004 320.679H15.7717C12.831 320.679 10.5586 318.409 10.5586 315.47Z" stroke="#F7920D" stroke-miterlimit="10"/>
<path d="M75.6551 232.93L28.8711 279.676" stroke="#F7920D" stroke-miterlimit="10" stroke-linecap="round" stroke-linejoin="round"/>
<path d="M54.9368 232.262L28.2031 258.974" stroke="#F7920D" stroke-miterlimit="10" stroke-linecap="round" stroke-linejoin="round"/>
<path d="M94.9014 242.546H58.1425C56.4049 242.546 55.0682 244.149 55.0682 246.019C55.0682 247.087 54.2662 247.889 53.3305 247.889H51.9938C51.1918 247.889 50.5234 248.556 50.5234 249.491V268.858C50.5234 269.793 51.1918 270.46 51.9938 270.46C52.9295 270.46 53.7315 271.262 53.7315 272.33V276.07C53.7315 277.138 52.9295 277.94 51.9938 277.94C51.1918 277.94 50.5234 278.608 50.5234 279.542V282.481C50.5234 283.416 51.1918 284.084 51.9938 284.084C52.9295 284.084 53.7315 284.885 53.7315 285.953V287.823C53.7315 288.357 54.1325 288.758 54.5335 288.758H94.9014C97.1738 288.758 99.0451 286.755 99.0451 284.217V247.087C99.0451 244.55 97.1738 242.546 94.9014 242.546Z" stroke="#F7920D" stroke-miterlimit="10"/>
<path d="M46.6484 250.56H59.6143H90.4917" stroke="#F7920D" stroke-miterlimit="10"/>
<path d="M46.9141 255.368H60.0136H85.6779H88.485V259.508" stroke="#F7920D" stroke-miterlimit="10"/>
<path d="M46.9141 265.652H60.0136V273.265H69.2367" stroke="#F7920D" stroke-miterlimit="10"/>
<path d="M46.9141 281.412H83.9403" stroke="#F7920D" stroke-miterlimit="10"/>
<path d="M46.9141 260.176H72.7121" stroke="#F7920D" stroke-miterlimit="10"/>
<path d="M93.1656 253.365C94.642 253.365 95.8389 252.169 95.8389 250.693C95.8389 249.218 94.642 248.022 93.1656 248.022C91.6891 248.022 90.4922 249.218 90.4922 250.693C90.4922 252.169 91.6891 253.365 93.1656 253.365Z" stroke="#F7920D" stroke-miterlimit="10" stroke-linecap="round"/>
<path d="M75.3882 262.981C76.8647 262.981 78.0616 261.785 78.0616 260.31C78.0616 258.834 76.8647 257.638 75.3882 257.638C73.9118 257.638 72.7148 258.834 72.7148 260.31C72.7148 261.785 73.9118 262.981 75.3882 262.981Z" stroke="#F7920D" stroke-miterlimit="10" stroke-linecap="round"/>
<path d="M88.3531 264.984C89.8295 264.984 91.0264 263.788 91.0264 262.313C91.0264 260.838 89.8295 259.642 88.3531 259.642C86.8766 259.642 85.6797 260.838 85.6797 262.313C85.6797 263.788 86.8766 264.984 88.3531 264.984Z" stroke="#F7920D" stroke-miterlimit="10" stroke-linecap="round"/>
<path d="M86.3492 284.084C87.8256 284.084 89.0225 282.888 89.0225 281.412C89.0225 279.937 87.8256 278.741 86.3492 278.741C84.8727 278.741 83.6758 279.937 83.6758 281.412C83.6758 282.888 84.8727 284.084 86.3492 284.084Z" stroke="#F7920D" stroke-miterlimit="10" stroke-linecap="round"/>
<path d="M71.9117 275.936C73.3881 275.936 74.585 274.74 74.585 273.265C74.585 271.79 73.3881 270.594 71.9117 270.594C70.4352 270.594 69.2383 271.79 69.2383 273.265C69.2383 274.74 70.4352 275.936 71.9117 275.936Z" stroke="#F7920D" stroke-miterlimit="10" stroke-linecap="round"/>
<path d="M499.828 217.217H502.837L507.269 229.884L511.701 217.217H514.71L508.478 234.469H506.06L499.828 217.217ZM498.204 217.217H501.202L501.747 229.564V234.469H498.204V217.217ZM513.336 217.217H516.345V234.469H512.791V229.564L513.336 217.217ZM531.038 231.697V234.469H521.855V231.697H531.038ZM523.017 217.217V234.469H519.462V217.217H523.017ZM529.842 224.243V226.945H521.855V224.243H529.842ZM531.027 217.217V220.001H521.855V217.217H531.027ZM542.094 229.955C542.094 229.647 542.046 229.37 541.951 229.125C541.865 228.873 541.699 228.643 541.454 228.438C541.209 228.225 540.865 228.015 540.423 227.81C539.981 227.605 539.408 227.391 538.705 227.17C537.923 226.917 537.18 226.633 536.477 226.317C535.782 226.001 535.166 225.634 534.629 225.215C534.099 224.789 533.681 224.295 533.373 223.734C533.072 223.173 532.922 222.521 532.922 221.779C532.922 221.06 533.08 220.408 533.396 219.824C533.712 219.231 534.155 218.726 534.723 218.307C535.292 217.88 535.964 217.553 536.738 217.324C537.52 217.094 538.377 216.98 539.309 216.98C540.581 216.98 541.691 217.209 542.639 217.667C543.587 218.125 544.321 218.753 544.843 219.551C545.372 220.349 545.636 221.261 545.636 222.288H542.105C542.105 221.783 541.999 221.34 541.786 220.961C541.58 220.574 541.264 220.27 540.838 220.049C540.419 219.828 539.89 219.717 539.25 219.717C538.634 219.717 538.12 219.812 537.709 220.001C537.299 220.183 536.991 220.432 536.785 220.748C536.58 221.056 536.477 221.404 536.477 221.791C536.477 222.083 536.548 222.348 536.69 222.585C536.84 222.822 537.062 223.043 537.354 223.248C537.646 223.454 538.006 223.647 538.432 223.829C538.859 224.01 539.352 224.188 539.913 224.362C540.853 224.646 541.679 224.966 542.39 225.322C543.109 225.677 543.709 226.076 544.191 226.518C544.673 226.961 545.036 227.462 545.281 228.023C545.526 228.584 545.648 229.22 545.648 229.931C545.648 230.681 545.502 231.353 545.21 231.945C544.918 232.538 544.495 233.039 543.942 233.45C543.389 233.861 542.729 234.173 541.963 234.386C541.197 234.6 540.34 234.706 539.392 234.706C538.539 234.706 537.698 234.596 536.868 234.374C536.039 234.145 535.284 233.802 534.605 233.344C533.933 232.885 533.396 232.301 532.993 231.59C532.591 230.879 532.389 230.038 532.389 229.066H535.956C535.956 229.603 536.039 230.057 536.205 230.429C536.37 230.8 536.604 231.1 536.904 231.329C537.212 231.558 537.575 231.724 537.994 231.827C538.42 231.93 538.886 231.981 539.392 231.981C540.008 231.981 540.514 231.894 540.909 231.72C541.312 231.546 541.608 231.306 541.797 230.997C541.995 230.689 542.094 230.342 542.094 229.955Z" fill="#F7920D"/>
<path d="M504.199 318.008V263.248H559.003L573.039 249.224V92.2905" stroke="#F7920D" stroke-miterlimit="10"/>
<path d="M504.198 263.248L480.137 239.207V173.762H283.645" stroke="#F7920D" stroke-miterlimit="10"/>
<path d="M571.565 107.116L549.911 128.619H133.266L113.082 148.92V241.211" stroke="#F7920D" stroke-miterlimit="10"/>
<path d="M113.217 243.214C115.062 243.214 116.558 241.719 116.558 239.875C116.558 238.031 115.062 236.536 113.217 236.536C111.371 236.536 109.875 238.031 109.875 239.875C109.875 241.719 111.371 243.214 113.217 243.214Z" fill="white" stroke="#F7920D" stroke-miterlimit="10"/>
<path d="M281.639 176.434C283.484 176.434 284.98 174.939 284.98 173.095C284.98 171.251 283.484 169.756 281.639 169.756C279.793 169.756 278.297 171.251 278.297 173.095C278.297 174.939 279.793 176.434 281.639 176.434Z" fill="white" stroke="#F7920D" stroke-miterlimit="10"/>
<path d="M504.198 323.35C506.412 323.35 508.208 321.556 508.208 319.343C508.208 317.131 506.412 315.337 504.198 315.337C501.983 315.337 500.188 317.131 500.188 319.343C500.188 321.556 501.983 323.35 504.198 323.35Z" fill="white" stroke="#F7920D" stroke-miterlimit="10"/>
<path d="M352.049 46.3862C352.049 47.9858 351.643 49.2437 350.832 50.1597C350.025 51.0757 348.902 51.5337 347.462 51.5337C345.99 51.5337 344.853 51.0848 344.051 50.187C343.253 49.2847 342.854 48.0132 342.854 46.3726C342.854 44.7456 343.256 43.4855 344.058 42.5923C344.86 41.6945 345.999 41.2456 347.476 41.2456C348.911 41.2456 350.032 41.7013 350.839 42.6128C351.646 43.5243 352.049 44.7821 352.049 46.3862ZM344.085 46.3862C344.085 47.7397 344.372 48.7674 344.946 49.4692C345.525 50.1665 346.364 50.5151 347.462 50.5151C348.569 50.5151 349.406 50.1665 349.971 49.4692C350.536 48.772 350.818 47.7443 350.818 46.3862C350.818 45.0418 350.536 44.0233 349.971 43.3306C349.41 42.6333 348.578 42.2847 347.476 42.2847C346.368 42.2847 345.525 42.6356 344.946 43.3374C344.372 44.0347 344.085 45.0509 344.085 46.3862ZM353.724 46.9058C353.724 45.2651 353.965 43.9868 354.448 43.0708C354.931 42.1502 355.697 41.576 356.745 41.3481C358.049 41.0701 359.197 40.8446 360.19 40.6714L360.402 41.6694C358.821 41.9338 357.691 42.1434 357.012 42.2983C356.351 42.4487 355.854 42.8042 355.521 43.3647C355.193 43.9253 355.013 44.6886 354.981 45.6548H355.063C355.346 45.272 355.711 44.9712 356.157 44.7524C356.604 44.5337 357.071 44.4243 357.559 44.4243C358.479 44.4243 359.197 44.7228 359.712 45.3198C360.227 45.9168 360.484 46.744 360.484 47.8013C360.484 48.9725 360.186 49.8885 359.589 50.5493C358.992 51.2056 358.16 51.5337 357.094 51.5337C356.041 51.5337 355.216 51.1304 354.619 50.3237C354.022 49.5171 353.724 48.3778 353.724 46.9058ZM357.196 50.5835C358.586 50.5835 359.281 49.6971 359.281 47.9243C359.281 46.2336 358.65 45.3882 357.388 45.3882C357.041 45.3882 356.706 45.4611 356.383 45.6069C356.064 45.7482 355.77 45.9373 355.501 46.1743C355.237 46.4113 355.032 46.6551 354.886 46.9058C354.886 48.1043 355.075 49.0181 355.453 49.647C355.831 50.2713 356.412 50.5835 357.196 50.5835ZM368.052 51.397H366.903V44.8755H364.654C364.531 46.4979 364.36 47.7853 364.142 48.7378C363.923 49.6903 363.638 50.3875 363.287 50.8296C362.941 51.2716 362.499 51.4927 361.961 51.4927C361.715 51.4927 361.519 51.4653 361.373 51.4106V50.5698C361.473 50.5972 361.587 50.6108 361.715 50.6108C362.239 50.6108 362.656 50.0571 362.966 48.9497C363.276 47.8423 363.51 46.1606 363.67 43.9048H368.052V51.397ZM375.072 51.397L374.847 50.3306H374.792C374.418 50.8 374.045 51.119 373.671 51.2876C373.302 51.4517 372.839 51.5337 372.283 51.5337C371.54 51.5337 370.957 51.3423 370.533 50.9595C370.114 50.5767 369.904 50.0321 369.904 49.3257C369.904 47.8127 371.114 47.0197 373.534 46.9468L374.806 46.9058V46.4409C374.806 45.853 374.678 45.4201 374.423 45.1421C374.172 44.8595 373.769 44.7183 373.213 44.7183C372.589 44.7183 371.882 44.9097 371.094 45.2925L370.745 44.4243C371.114 44.2238 371.518 44.0666 371.955 43.9526C372.397 43.8387 372.839 43.7817 373.281 43.7817C374.174 43.7817 374.835 43.98 375.264 44.3765C375.697 44.7729 375.913 45.4087 375.913 46.2837V51.397H375.072ZM372.509 50.5972C373.215 50.5972 373.769 50.4035 374.17 50.0161C374.576 49.6287 374.778 49.0864 374.778 48.3892V47.7124L373.644 47.7603C372.741 47.7922 372.09 47.9334 371.688 48.1841C371.292 48.4302 371.094 48.8153 371.094 49.3394C371.094 49.7495 371.217 50.0617 371.463 50.2759C371.714 50.4901 372.062 50.5972 372.509 50.5972ZM379.256 43.9048V46.6392C379.256 47.5142 379.755 47.9517 380.753 47.9517C381.168 47.9517 381.564 47.8879 381.942 47.7603C382.321 47.6326 382.749 47.4162 383.228 47.1108V43.9048H384.362V51.397H383.228V48.0063C382.749 48.3345 382.305 48.5669 381.895 48.7036C381.489 48.8358 381.029 48.9019 380.514 48.9019C379.766 48.9019 379.181 48.7059 378.757 48.314C378.333 47.922 378.121 47.3911 378.121 46.7212V43.9048H379.256ZM387.91 43.9048V47.0425H392.107V43.9048H393.242V51.397H392.107V48.02H387.91V51.397H386.775V43.9048H387.91ZM396.783 47.0015H398.827C399.78 47.0015 400.484 47.1792 400.939 47.5347C401.4 47.8856 401.63 48.4119 401.63 49.1138C401.63 49.8657 401.386 50.4354 400.898 50.8228C400.415 51.2056 399.702 51.397 398.759 51.397H395.648V43.9048H396.783V47.0015ZM404.022 51.397H402.888V43.9048H404.022V51.397ZM396.783 47.979V50.4468H398.704C399.907 50.4468 400.509 50.0252 400.509 49.1821C400.509 48.7629 400.37 48.4575 400.092 48.2661C399.814 48.0747 399.34 47.979 398.67 47.979H396.783ZM409.601 51.5337C408.493 51.5337 407.618 51.1965 406.976 50.522C406.338 49.8475 406.019 48.911 406.019 47.7124C406.019 46.5047 406.315 45.5454 406.907 44.8345C407.504 44.1235 408.304 43.7681 409.307 43.7681C410.245 43.7681 410.988 44.078 411.535 44.6978C412.082 45.313 412.355 46.1265 412.355 47.1382V47.856H407.194C407.217 48.7355 407.438 49.4032 407.857 49.8589C408.281 50.3146 408.876 50.5425 409.642 50.5425C410.448 50.5425 411.246 50.3739 412.034 50.0366V51.0483C411.633 51.2215 411.253 51.3446 410.893 51.4175C410.537 51.495 410.106 51.5337 409.601 51.5337ZM409.293 44.7183C408.691 44.7183 408.211 44.9142 407.851 45.3062C407.495 45.6981 407.285 46.2404 407.222 46.9331H411.139C411.139 46.2176 410.979 45.6707 410.66 45.2925C410.341 44.9097 409.885 44.7183 409.293 44.7183ZM419.738 47.562L417.134 43.9048H418.426L420.401 46.7759L422.37 43.9048H423.648L421.044 47.562L423.785 51.397H422.5L420.401 48.3618L418.282 51.397H416.997L419.738 47.562ZM428.762 51.5337C428.274 51.5337 427.827 51.4448 427.422 51.2671C427.021 51.0848 426.684 50.8068 426.41 50.4331H426.328C426.383 50.8706 426.41 51.2853 426.41 51.6772V54.7603H425.275V43.9048H426.198L426.355 44.9302H426.41C426.702 44.52 427.041 44.2238 427.429 44.0415C427.816 43.8592 428.26 43.7681 428.762 43.7681C429.755 43.7681 430.521 44.1076 431.059 44.7866C431.601 45.4657 431.872 46.4181 431.872 47.644C431.872 48.8745 431.596 49.8315 431.045 50.5151C430.498 51.1942 429.737 51.5337 428.762 51.5337ZM428.598 44.7319C427.832 44.7319 427.278 44.9438 426.937 45.3677C426.595 45.7915 426.419 46.466 426.41 47.3911V47.644C426.41 48.6968 426.586 49.451 426.937 49.9067C427.287 50.3579 427.85 50.5835 428.625 50.5835C429.272 50.5835 429.778 50.3215 430.143 49.7974C430.512 49.2733 430.696 48.5509 430.696 47.6304C430.696 46.6961 430.512 45.9806 430.143 45.4839C429.778 44.9826 429.263 44.7319 428.598 44.7319ZM438.469 51.397L438.243 50.3306H438.188C437.815 50.8 437.441 51.119 437.067 51.2876C436.698 51.4517 436.236 51.5337 435.68 51.5337C434.937 51.5337 434.354 51.3423 433.93 50.9595C433.51 50.5767 433.301 50.0321 433.301 49.3257C433.301 47.8127 434.511 47.0197 436.931 46.9468L438.202 46.9058V46.4409C438.202 45.853 438.075 45.4201 437.819 45.1421C437.569 44.8595 437.165 44.7183 436.609 44.7183C435.985 44.7183 435.279 44.9097 434.49 45.2925L434.142 44.4243C434.511 44.2238 434.914 44.0666 435.352 43.9526C435.794 43.8387 436.236 43.7817 436.678 43.7817C437.571 43.7817 438.232 43.98 438.66 44.3765C439.093 44.7729 439.31 45.4087 439.31 46.2837V51.397H438.469ZM435.905 50.5972C436.612 50.5972 437.165 50.4035 437.566 50.0161C437.972 49.6287 438.175 49.0864 438.175 48.3892V47.7124L437.04 47.7603C436.138 47.7922 435.486 47.9334 435.085 48.1841C434.688 48.4302 434.49 48.8153 434.49 49.3394C434.49 49.7495 434.613 50.0617 434.859 50.2759C435.11 50.4901 435.459 50.5972 435.905 50.5972ZM442.789 43.9048V47.0425H446.986V43.9048H448.121V51.397H446.986V48.02H442.789V51.397H441.654V43.9048H442.789ZM451.594 43.9048V48.6558L451.546 49.8999L451.525 50.2896L455.579 43.9048H456.994V51.397H455.935V46.8169L455.955 45.9146L455.989 45.0259L451.942 51.397H450.527V43.9048H451.594ZM464.985 51.397H463.837V44.8755H461.588C461.465 46.4979 461.294 47.7853 461.075 48.7378C460.856 49.6903 460.572 50.3875 460.221 50.8296C459.874 51.2716 459.432 51.4927 458.895 51.4927C458.648 51.4927 458.452 51.4653 458.307 51.4106V50.5698C458.407 50.5972 458.521 50.6108 458.648 50.6108C459.173 50.6108 459.59 50.0571 459.899 48.9497C460.209 47.8423 460.444 46.1606 460.604 43.9048H464.985V51.397ZM468.465 43.9048V48.6558L468.417 49.8999L468.396 50.2896L472.45 43.9048H473.865V51.397H472.806V46.8169L472.826 45.9146L472.86 45.0259L468.813 51.397H467.398V43.9048H468.465ZM481.856 50.4194H485.179V43.9185H486.313V50.4194H487.387V53.9741H486.238V51.397H476.271V43.9185H477.406V50.4194H480.722V43.9185H481.856V50.4194ZM493.443 51.397L493.218 50.3306H493.163C492.789 50.8 492.416 51.119 492.042 51.2876C491.673 51.4517 491.21 51.5337 490.654 51.5337C489.911 51.5337 489.328 51.3423 488.904 50.9595C488.485 50.5767 488.275 50.0321 488.275 49.3257C488.275 47.8127 489.485 47.0197 491.905 46.9468L493.177 46.9058V46.4409C493.177 45.853 493.049 45.4201 492.794 45.1421C492.543 44.8595 492.14 44.7183 491.584 44.7183C490.96 44.7183 490.253 44.9097 489.465 45.2925L489.116 44.4243C489.485 44.2238 489.889 44.0666 490.326 43.9526C490.768 43.8387 491.21 43.7817 491.652 43.7817C492.546 43.7817 493.206 43.98 493.635 44.3765C494.068 44.7729 494.284 45.4087 494.284 46.2837V51.397H493.443ZM490.88 50.5972C491.586 50.5972 492.14 50.4035 492.541 50.0161C492.947 49.6287 493.149 49.0864 493.149 48.3892V47.7124L492.015 47.7603C491.112 47.7922 490.461 47.9334 490.06 48.1841C489.663 48.4302 489.465 48.8153 489.465 49.3394C489.465 49.7495 489.588 50.0617 489.834 50.2759C490.085 50.4901 490.433 50.5972 490.88 50.5972ZM344.27 60.9048V65.6558L344.222 66.8999L344.201 67.2896L348.255 60.9048H349.67V68.397H348.61V63.8169L348.631 62.9146L348.665 62.0259L344.618 68.397H343.203V60.9048H344.27ZM358.707 68.5337C357.622 68.5337 356.782 68.201 356.185 67.5356C355.592 66.8657 355.296 65.9201 355.296 64.6987C355.296 63.4455 355.597 62.4771 356.198 61.7935C356.804 61.1099 357.666 60.7681 358.782 60.7681C359.142 60.7681 359.502 60.8068 359.862 60.8843C360.222 60.9618 360.505 61.0529 360.71 61.1577L360.361 62.1216C360.111 62.0213 359.837 61.9393 359.541 61.8755C359.245 61.8071 358.983 61.7729 358.755 61.7729C357.233 61.7729 356.472 62.7437 356.472 64.6851C356.472 65.6056 356.656 66.312 357.025 66.8042C357.399 67.2964 357.951 67.5425 358.68 67.5425C359.304 67.5425 359.944 67.408 360.601 67.1392V68.144C360.099 68.4038 359.468 68.5337 358.707 68.5337ZM365.55 68.5337C364.442 68.5337 363.567 68.1965 362.925 67.522C362.287 66.8475 361.968 65.911 361.968 64.7124C361.968 63.5047 362.264 62.5454 362.856 61.8345C363.453 61.1235 364.253 60.7681 365.256 60.7681C366.195 60.7681 366.938 61.078 367.484 61.6978C368.031 62.313 368.305 63.1265 368.305 64.1382V64.856H363.144C363.166 65.7355 363.387 66.4032 363.807 66.8589C364.23 67.3146 364.825 67.5425 365.591 67.5425C366.397 67.5425 367.195 67.3739 367.983 67.0366V68.0483C367.582 68.2215 367.202 68.3446 366.842 68.4175C366.486 68.495 366.056 68.5337 365.55 68.5337ZM365.242 61.7183C364.641 61.7183 364.16 61.9142 363.8 62.3062C363.444 62.6981 363.235 63.2404 363.171 63.9331H367.088C367.088 63.2176 366.928 62.6707 366.609 62.2925C366.29 61.9097 365.835 61.7183 365.242 61.7183ZM373.732 68.5337C373.245 68.5337 372.798 68.4448 372.393 68.2671C371.992 68.0848 371.654 67.8068 371.381 67.4331H371.299C371.354 67.8706 371.381 68.2853 371.381 68.6772V71.7603H370.246V60.9048H371.169L371.326 61.9302H371.381C371.673 61.52 372.012 61.2238 372.399 61.0415C372.787 60.8592 373.231 60.7681 373.732 60.7681C374.726 60.7681 375.492 61.1076 376.029 61.7866C376.572 62.4657 376.843 63.4181 376.843 64.644C376.843 65.8745 376.567 66.8315 376.016 67.5151C375.469 68.1942 374.708 68.5337 373.732 68.5337ZM373.568 61.7319C372.803 61.7319 372.249 61.9438 371.907 62.3677C371.565 62.7915 371.39 63.466 371.381 64.3911V64.644C371.381 65.6968 371.556 66.451 371.907 66.9067C372.258 67.3579 372.821 67.5835 373.596 67.5835C374.243 67.5835 374.749 67.3215 375.113 66.7974C375.482 66.2733 375.667 65.5509 375.667 64.6304C375.667 63.6961 375.482 62.9806 375.113 62.4839C374.749 61.9826 374.234 61.7319 373.568 61.7319ZM384.909 62.7847C384.909 63.2723 384.768 63.6437 384.485 63.8989C384.207 64.1496 383.815 64.3182 383.31 64.4048V64.4663C383.948 64.5529 384.412 64.7397 384.704 65.0269C385 65.314 385.148 65.7104 385.148 66.2163C385.148 66.9136 384.891 67.4513 384.376 67.8296C383.866 68.2078 383.118 68.397 382.134 68.397H378.832V60.9048H382.12C383.979 60.9048 384.909 61.5314 384.909 62.7847ZM384.014 66.1411C384.014 65.7355 383.859 65.4416 383.549 65.2593C383.243 65.0724 382.735 64.979 382.024 64.979H379.967V67.4468H382.052C383.36 67.4468 384.014 67.0116 384.014 66.1411ZM383.802 62.894C383.802 62.5295 383.66 62.272 383.378 62.1216C383.1 61.9666 382.676 61.8892 382.106 61.8892H379.967V64.0015H381.888C382.59 64.0015 383.084 63.9149 383.371 63.7417C383.658 63.5685 383.802 63.286 383.802 62.894ZM387.869 60.9048V65.6558L387.821 66.8999L387.801 67.2896L391.854 60.9048H393.27V68.397H392.21V63.8169L392.23 62.9146L392.265 62.0259L388.218 68.397H386.803V60.9048H387.869ZM398.67 68.5337C397.585 68.5337 396.744 68.201 396.147 67.5356C395.555 66.8657 395.259 65.9201 395.259 64.6987C395.259 63.4455 395.56 62.4771 396.161 61.7935C396.767 61.1099 397.629 60.7681 398.745 60.7681C399.105 60.7681 399.465 60.8068 399.825 60.8843C400.185 60.9618 400.468 61.0529 400.673 61.1577L400.324 62.1216C400.074 62.0213 399.8 61.9393 399.504 61.8755C399.208 61.8071 398.946 61.7729 398.718 61.7729C397.196 61.7729 396.435 62.7437 396.435 64.6851C396.435 65.6056 396.619 66.312 396.988 66.8042C397.362 67.2964 397.913 67.5425 398.643 67.5425C399.267 67.5425 399.907 67.408 400.563 67.1392V68.144C400.062 68.4038 399.431 68.5337 398.67 68.5337ZM403.482 64.0015H405.526C406.479 64.0015 407.183 64.1792 407.639 64.5347C408.099 64.8856 408.329 65.4119 408.329 66.1138C408.329 66.8657 408.085 67.4354 407.598 67.8228C407.115 68.2056 406.401 68.397 405.458 68.397H402.348V60.9048H403.482V64.0015ZM410.722 68.397H409.587V60.9048H410.722V68.397ZM403.482 64.979V67.4468H405.403C406.606 67.4468 407.208 67.0252 407.208 66.1821C407.208 65.7629 407.069 65.4575 406.791 65.2661C406.513 65.0747 406.039 64.979 405.369 64.979H403.482Z" fill="#292929"/>
<path d="M26.4258 343.918C26.4258 344.93 26.0794 345.709 25.3867 346.256C24.6986 346.798 23.7119 347.069 22.4268 347.069H21.251V351H20.0889V341.006H22.6797C25.1771 341.006 26.4258 341.977 26.4258 343.918ZM21.251 346.071H22.2969C23.3268 346.071 24.0719 345.905 24.5322 345.572C24.9925 345.24 25.2227 344.706 25.2227 343.973C25.2227 343.312 25.0062 342.82 24.5732 342.496C24.1403 342.173 23.4658 342.011 22.5498 342.011H21.251V346.071ZM32.9609 351L32.7354 349.934H32.6807C32.307 350.403 31.9333 350.722 31.5596 350.891C31.1904 351.055 30.7279 351.137 30.1719 351.137C29.429 351.137 28.8457 350.945 28.4219 350.562C28.0026 350.18 27.793 349.635 27.793 348.929C27.793 347.416 29.0029 346.623 31.4229 346.55L32.6943 346.509V346.044C32.6943 345.456 32.5667 345.023 32.3115 344.745C32.0609 344.463 31.6576 344.321 31.1016 344.321C30.4772 344.321 29.7708 344.513 28.9824 344.896L28.6338 344.027C29.0029 343.827 29.4062 343.67 29.8438 343.556C30.2858 343.442 30.7279 343.385 31.1699 343.385C32.0632 343.385 32.724 343.583 33.1523 343.979C33.5853 344.376 33.8018 345.012 33.8018 345.887V351H32.9609ZM30.3975 350.2C31.1038 350.2 31.6576 350.007 32.0586 349.619C32.4642 349.232 32.667 348.689 32.667 347.992V347.315L31.5322 347.363C30.6299 347.395 29.9782 347.536 29.5771 347.787C29.1807 348.033 28.9824 348.418 28.9824 348.942C28.9824 349.353 29.1055 349.665 29.3516 349.879C29.6022 350.093 29.9508 350.2 30.3975 350.2ZM37.5752 346.618C38.9925 346.618 39.7012 346.226 39.7012 345.442C39.7012 344.704 39.127 344.335 37.9785 344.335C37.6276 344.335 37.3086 344.367 37.0215 344.431C36.7344 344.494 36.3584 344.622 35.8936 344.813L35.4902 343.891C36.265 343.544 37.1104 343.371 38.0264 343.371C38.8877 343.371 39.5667 343.549 40.0635 343.904C40.5602 344.255 40.8086 344.736 40.8086 345.347C40.8086 346.185 40.3415 346.734 39.4072 346.994V347.049C39.9814 347.217 40.4007 347.459 40.665 347.773C40.9294 348.083 41.0615 348.473 41.0615 348.942C41.0615 349.635 40.7812 350.175 40.2207 350.562C39.6647 350.945 38.8945 351.137 37.9102 351.137C36.8301 351.137 35.9961 350.975 35.4082 350.651V349.612C36.2422 350.004 37.0853 350.2 37.9375 350.2C38.5938 350.2 39.0882 350.089 39.4209 349.865C39.7581 349.637 39.9268 349.312 39.9268 348.888C39.9268 348.017 39.2181 347.582 37.8008 347.582H36.7617V346.618H37.5752ZM46.4004 351.137C45.9128 351.137 45.4661 351.048 45.0605 350.87C44.6595 350.688 44.3223 350.41 44.0488 350.036H43.9668C44.0215 350.474 44.0488 350.888 44.0488 351.28V354.363H42.9141V343.508H43.8369L43.9941 344.533H44.0488C44.3405 344.123 44.68 343.827 45.0674 343.645C45.4548 343.462 45.8991 343.371 46.4004 343.371C47.3939 343.371 48.1595 343.711 48.6973 344.39C49.2396 345.069 49.5107 346.021 49.5107 347.247C49.5107 348.478 49.235 349.435 48.6836 350.118C48.1367 350.797 47.3757 351.137 46.4004 351.137ZM46.2363 344.335C45.4707 344.335 44.917 344.547 44.5752 344.971C44.2334 345.395 44.0579 346.069 44.0488 346.994V347.247C44.0488 348.3 44.2243 349.054 44.5752 349.51C44.9261 349.961 45.4889 350.187 46.2637 350.187C46.9108 350.187 47.4167 349.924 47.7812 349.4C48.1504 348.876 48.335 348.154 48.335 347.233C48.335 346.299 48.1504 345.584 47.7812 345.087C47.4167 344.586 46.9017 344.335 46.2363 344.335ZM56.1074 351L55.8818 349.934H55.8271C55.4535 350.403 55.0798 350.722 54.7061 350.891C54.3369 351.055 53.8743 351.137 53.3184 351.137C52.5755 351.137 51.9922 350.945 51.5684 350.562C51.1491 350.18 50.9395 349.635 50.9395 348.929C50.9395 347.416 52.1494 346.623 54.5693 346.55L55.8408 346.509V346.044C55.8408 345.456 55.7132 345.023 55.458 344.745C55.2074 344.463 54.804 344.321 54.248 344.321C53.6237 344.321 52.9173 344.513 52.1289 344.896L51.7803 344.027C52.1494 343.827 52.5527 343.67 52.9902 343.556C53.4323 343.442 53.8743 343.385 54.3164 343.385C55.2096 343.385 55.8704 343.583 56.2988 343.979C56.7318 344.376 56.9482 345.012 56.9482 345.887V351H56.1074ZM53.5439 350.2C54.2503 350.2 54.804 350.007 55.2051 349.619C55.6107 349.232 55.8135 348.689 55.8135 347.992V347.315L54.6787 347.363C53.7764 347.395 53.1247 347.536 52.7236 347.787C52.3271 348.033 52.1289 348.418 52.1289 348.942C52.1289 349.353 52.252 349.665 52.498 349.879C52.7487 350.093 53.0973 350.2 53.5439 350.2ZM58.9033 346.509C58.9033 344.868 59.1449 343.59 59.6279 342.674C60.111 341.753 60.8766 341.179 61.9248 340.951C63.2282 340.673 64.3766 340.448 65.3701 340.274L65.582 341.272C64.0007 341.537 62.8704 341.746 62.1914 341.901C61.5306 342.052 61.0339 342.407 60.7012 342.968C60.373 343.528 60.193 344.292 60.1611 345.258H60.2432C60.5257 344.875 60.8903 344.574 61.3369 344.355C61.7835 344.137 62.2507 344.027 62.7383 344.027C63.6589 344.027 64.3766 344.326 64.8916 344.923C65.4066 345.52 65.6641 346.347 65.6641 347.404C65.6641 348.576 65.3656 349.492 64.7686 350.152C64.1715 350.809 63.3398 351.137 62.2734 351.137C61.2207 351.137 60.3958 350.733 59.7988 349.927C59.2018 349.12 58.9033 347.981 58.9033 346.509ZM62.376 350.187C63.766 350.187 64.4609 349.3 64.4609 347.527C64.4609 345.837 63.8298 344.991 62.5674 344.991C62.221 344.991 61.8861 345.064 61.5625 345.21C61.2435 345.351 60.9495 345.54 60.6807 345.777C60.4163 346.014 60.2113 346.258 60.0654 346.509C60.0654 347.707 60.2546 348.621 60.6328 349.25C61.0111 349.874 61.5921 350.187 62.376 350.187ZM74.1133 347.247C74.1133 348.468 73.8057 349.423 73.1904 350.111C72.5752 350.795 71.7253 351.137 70.6406 351.137C69.9707 351.137 69.376 350.979 68.8564 350.665C68.3369 350.351 67.9359 349.899 67.6533 349.312C67.3708 348.724 67.2295 348.035 67.2295 347.247C67.2295 346.026 67.5348 345.076 68.1455 344.396C68.7562 343.713 69.6038 343.371 70.6885 343.371C71.7367 343.371 72.5684 343.72 73.1836 344.417C73.8034 345.114 74.1133 346.058 74.1133 347.247ZM68.4053 347.247C68.4053 348.204 68.5967 348.933 68.9795 349.435C69.3623 349.936 69.9251 350.187 70.668 350.187C71.4108 350.187 71.9736 349.938 72.3564 349.441C72.7438 348.94 72.9375 348.209 72.9375 347.247C72.9375 346.295 72.7438 345.572 72.3564 345.08C71.9736 344.583 71.4062 344.335 70.6543 344.335C69.9115 344.335 69.3509 344.579 68.9727 345.066C68.5944 345.554 68.4053 346.281 68.4053 347.247ZM81.1611 344.479H78.7275V351H77.5928V344.479H75.1865V343.508H81.1611V344.479ZM83.6426 343.508V346.242C83.6426 347.117 84.1416 347.555 85.1396 347.555C85.5544 347.555 85.9508 347.491 86.3291 347.363C86.7074 347.236 87.1357 347.019 87.6143 346.714V343.508H88.749V351H87.6143V347.609C87.1357 347.938 86.6914 348.17 86.2812 348.307C85.8757 348.439 85.4154 348.505 84.9004 348.505C84.153 348.505 83.5674 348.309 83.1436 347.917C82.7197 347.525 82.5078 346.994 82.5078 346.324V343.508H83.6426ZM92.2285 343.508V348.259L92.1807 349.503L92.1602 349.893L96.2139 343.508H97.6289V351H96.5693V346.42L96.5898 345.518L96.624 344.629L92.5771 351H91.1621V343.508H92.2285ZM104.403 343.508H105.647L102.414 347.124L105.914 351H104.588L101.17 347.206V351H100.035V343.508H101.17V347.151L104.403 343.508Z" fill="#292929"/>
<path d="M235.483 382.292H234.321V373.33H231.074L230.862 374.97C230.584 377.153 230.338 378.751 230.124 379.762C229.914 380.77 229.636 381.471 229.29 381.868C228.944 382.264 228.483 382.458 227.909 382.449C227.572 382.449 227.269 382.392 227 382.278V381.301C227.246 381.419 227.504 381.478 227.772 381.478C228.014 381.478 228.224 381.38 228.401 381.184C228.584 380.984 228.743 380.64 228.88 380.152C229.021 379.66 229.197 378.73 229.406 377.363C229.62 375.991 229.855 374.303 230.11 372.298H235.483V382.292ZM242.668 382.292L242.442 381.225H242.388C242.014 381.695 241.64 382.014 241.267 382.182C240.897 382.346 240.435 382.428 239.879 382.428C239.136 382.428 238.553 382.237 238.129 381.854C237.71 381.471 237.5 380.927 237.5 380.22C237.5 378.707 238.71 377.914 241.13 377.842L242.401 377.801V377.336C242.401 376.748 242.274 376.315 242.019 376.037C241.768 375.754 241.365 375.613 240.809 375.613C240.184 375.613 239.478 375.804 238.689 376.187L238.341 375.319C238.71 375.119 239.113 374.961 239.551 374.847C239.993 374.733 240.435 374.677 240.877 374.677C241.77 374.677 242.431 374.875 242.859 375.271C243.292 375.668 243.509 376.303 243.509 377.178V382.292H242.668ZM240.104 381.492C240.811 381.492 241.365 381.298 241.766 380.911C242.171 380.524 242.374 379.981 242.374 379.284V378.607L241.239 378.655C240.337 378.687 239.685 378.828 239.284 379.079C238.888 379.325 238.689 379.71 238.689 380.234C238.689 380.644 238.812 380.956 239.059 381.171C239.309 381.385 239.658 381.492 240.104 381.492ZM245.464 377.801C245.464 376.16 245.705 374.882 246.188 373.966C246.672 373.045 247.437 372.471 248.485 372.243C249.789 371.965 250.937 371.739 251.931 371.566L252.143 372.564C250.561 372.829 249.431 373.038 248.752 373.193C248.091 373.344 247.594 373.699 247.262 374.26C246.934 374.82 246.754 375.583 246.722 376.55H246.804C247.086 376.167 247.451 375.866 247.897 375.647C248.344 375.428 248.811 375.319 249.299 375.319C250.219 375.319 250.937 375.618 251.452 376.215C251.967 376.812 252.225 377.639 252.225 378.696C252.225 379.867 251.926 380.783 251.329 381.444C250.732 382.1 249.9 382.428 248.834 382.428C247.781 382.428 246.956 382.025 246.359 381.219C245.762 380.412 245.464 379.273 245.464 377.801ZM248.937 381.478C250.326 381.478 251.021 380.592 251.021 378.819C251.021 377.128 250.39 376.283 249.128 376.283C248.782 376.283 248.447 376.356 248.123 376.502C247.804 376.643 247.51 376.832 247.241 377.069C246.977 377.306 246.772 377.55 246.626 377.801C246.626 378.999 246.815 379.913 247.193 380.542C247.572 381.166 248.153 381.478 248.937 381.478ZM260.674 378.539C260.674 379.76 260.366 380.715 259.751 381.403C259.136 382.087 258.286 382.428 257.201 382.428C256.531 382.428 255.937 382.271 255.417 381.957C254.897 381.642 254.496 381.191 254.214 380.603C253.931 380.015 253.79 379.327 253.79 378.539C253.79 377.317 254.095 376.367 254.706 375.688C255.317 375.005 256.164 374.663 257.249 374.663C258.297 374.663 259.129 375.011 259.744 375.709C260.364 376.406 260.674 377.349 260.674 378.539ZM254.966 378.539C254.966 379.496 255.157 380.225 255.54 380.726C255.923 381.228 256.486 381.478 257.229 381.478C257.971 381.478 258.534 381.23 258.917 380.733C259.304 380.232 259.498 379.5 259.498 378.539C259.498 377.586 259.304 376.864 258.917 376.372C258.534 375.875 257.967 375.627 257.215 375.627C256.472 375.627 255.911 375.871 255.533 376.358C255.155 376.846 254.966 377.573 254.966 378.539ZM266.156 382.428C265.669 382.428 265.222 382.34 264.816 382.162C264.415 381.98 264.078 381.702 263.805 381.328H263.723C263.777 381.765 263.805 382.18 263.805 382.572V385.655H262.67V374.8H263.593L263.75 375.825H263.805C264.096 375.415 264.436 375.119 264.823 374.936C265.211 374.754 265.655 374.663 266.156 374.663C267.15 374.663 267.915 375.002 268.453 375.681C268.995 376.36 269.267 377.313 269.267 378.539C269.267 379.769 268.991 380.726 268.439 381.41C267.893 382.089 267.132 382.428 266.156 382.428ZM265.992 375.627C265.227 375.627 264.673 375.839 264.331 376.262C263.989 376.686 263.814 377.361 263.805 378.286V378.539C263.805 379.592 263.98 380.346 264.331 380.802C264.682 381.253 265.245 381.478 266.02 381.478C266.667 381.478 267.173 381.216 267.537 380.692C267.906 380.168 268.091 379.446 268.091 378.525C268.091 377.591 267.906 376.875 267.537 376.379C267.173 375.877 266.658 375.627 265.992 375.627ZM275.863 382.292L275.638 381.225H275.583C275.209 381.695 274.836 382.014 274.462 382.182C274.093 382.346 273.63 382.428 273.074 382.428C272.331 382.428 271.748 382.237 271.324 381.854C270.905 381.471 270.695 380.927 270.695 380.22C270.695 378.707 271.905 377.914 274.325 377.842L275.597 377.801V377.336C275.597 376.748 275.469 376.315 275.214 376.037C274.963 375.754 274.56 375.613 274.004 375.613C273.38 375.613 272.673 375.804 271.885 376.187L271.536 375.319C271.905 375.119 272.309 374.961 272.746 374.847C273.188 374.733 273.63 374.677 274.072 374.677C274.965 374.677 275.626 374.875 276.055 375.271C276.488 375.668 276.704 376.303 276.704 377.178V382.292H275.863ZM273.3 381.492C274.006 381.492 274.56 381.298 274.961 380.911C275.367 380.524 275.569 379.981 275.569 379.284V378.607L274.435 378.655C273.532 378.687 272.881 378.828 272.479 379.079C272.083 379.325 271.885 379.71 271.885 380.234C271.885 380.644 272.008 380.956 272.254 381.171C272.505 381.385 272.853 381.492 273.3 381.492ZM284.101 375.77H281.667V382.292H280.532V375.77H278.126V374.8H284.101V375.77ZM292.051 378.539C292.051 379.76 291.743 380.715 291.128 381.403C290.513 382.087 289.663 382.428 288.578 382.428C287.908 382.428 287.313 382.271 286.794 381.957C286.274 381.642 285.873 381.191 285.591 380.603C285.308 380.015 285.167 379.327 285.167 378.539C285.167 377.317 285.472 376.367 286.083 375.688C286.694 375.005 287.541 374.663 288.626 374.663C289.674 374.663 290.506 375.011 291.121 375.709C291.741 376.406 292.051 377.349 292.051 378.539ZM286.343 378.539C286.343 379.496 286.534 380.225 286.917 380.726C287.3 381.228 287.863 381.478 288.605 381.478C289.348 381.478 289.911 381.23 290.294 380.733C290.681 380.232 290.875 379.5 290.875 378.539C290.875 377.586 290.681 376.864 290.294 376.372C289.911 375.875 289.344 375.627 288.592 375.627C287.849 375.627 287.288 375.871 286.91 376.358C286.532 376.846 286.343 377.573 286.343 378.539ZM297.533 382.428C297.046 382.428 296.599 382.34 296.193 382.162C295.792 381.98 295.455 381.702 295.182 381.328H295.1C295.154 381.765 295.182 382.18 295.182 382.572V385.655H294.047V374.8H294.97L295.127 375.825H295.182C295.473 375.415 295.813 375.119 296.2 374.936C296.588 374.754 297.032 374.663 297.533 374.663C298.527 374.663 299.292 375.002 299.83 375.681C300.372 376.36 300.644 377.313 300.644 378.539C300.644 379.769 300.368 380.726 299.816 381.41C299.27 382.089 298.508 382.428 297.533 382.428ZM297.369 375.627C296.604 375.627 296.05 375.839 295.708 376.262C295.366 376.686 295.191 377.361 295.182 378.286V378.539C295.182 379.592 295.357 380.346 295.708 380.802C296.059 381.253 296.622 381.478 297.396 381.478C298.044 381.478 298.549 381.216 298.914 380.692C299.283 380.168 299.468 379.446 299.468 378.525C299.468 377.591 299.283 376.875 298.914 376.379C298.549 375.877 298.035 375.627 297.369 375.627ZM303.699 374.8V379.551L303.651 380.795L303.631 381.184L307.685 374.8H309.1V382.292H308.04V377.712L308.061 376.809L308.095 375.921L304.048 382.292H302.633V374.8H303.699ZM312.572 374.8V379.551L312.524 380.795L312.504 381.184L316.558 374.8H317.973V382.292H316.913V377.712L316.934 376.809L316.968 375.921L312.921 382.292H311.506V374.8H312.572ZM321.568 380.665L321.671 380.822C321.552 381.278 321.382 381.806 321.158 382.408C320.935 383.014 320.702 383.577 320.461 384.096H319.606C319.729 383.622 319.864 383.037 320.01 382.34C320.16 381.642 320.265 381.084 320.324 380.665H321.568ZM327.618 372.298H330.441C331.768 372.298 332.727 372.496 333.319 372.892C333.912 373.289 334.208 373.915 334.208 374.772C334.208 375.365 334.042 375.855 333.709 376.242C333.381 376.625 332.9 376.873 332.267 376.987V377.055C333.784 377.315 334.543 378.113 334.543 379.448C334.543 380.341 334.24 381.038 333.634 381.54C333.032 382.041 332.189 382.292 331.104 382.292H327.618V372.298ZM328.78 376.577H330.694C331.515 376.577 332.105 376.449 332.465 376.194C332.825 375.934 333.005 375.499 333.005 374.888C333.005 374.328 332.804 373.925 332.403 373.678C332.002 373.428 331.364 373.302 330.489 373.302H328.78V376.577ZM328.78 377.561V381.301H330.865C331.672 381.301 332.278 381.146 332.684 380.836C333.094 380.521 333.299 380.031 333.299 379.366C333.299 378.746 333.089 378.29 332.67 377.999C332.255 377.707 331.622 377.561 330.77 377.561H328.78ZM337.325 382.428C336.819 382.428 336.375 382.36 335.992 382.223V381.089C336.416 381.285 336.847 381.383 337.284 381.383C337.785 381.383 338.187 381.269 338.487 381.041C338.793 380.808 339.096 380.375 339.396 379.742L335.507 372.298H336.792L339.745 377.978C339.859 378.202 339.948 378.42 340.012 378.635H340.066C340.194 378.252 340.283 378.01 340.333 377.91L342.787 372.298H344.018L340.825 379.448C340.442 380.3 340.096 380.92 339.786 381.307C339.481 381.695 339.134 381.98 338.747 382.162C338.364 382.34 337.89 382.428 337.325 382.428ZM351.188 374.635C351.188 375.292 350.979 375.825 350.56 376.235C350.145 376.645 349.571 376.905 348.837 377.014V377.069C349.671 377.183 350.302 377.445 350.73 377.855C351.163 378.265 351.38 378.801 351.38 379.462C351.38 380.396 351.031 381.125 350.334 381.649C349.637 382.169 348.652 382.428 347.381 382.428C346.219 382.428 345.266 382.248 344.523 381.888V380.808C344.961 381.018 345.433 381.18 345.938 381.294C346.449 381.408 346.939 381.465 347.408 381.465C348.311 381.465 348.992 381.294 349.452 380.952C349.917 380.61 350.149 380.118 350.149 379.475C350.149 378.865 349.892 378.402 349.377 378.088C348.867 377.773 348.103 377.616 347.087 377.616H345.597V376.638H347.025C347.96 376.638 348.682 376.472 349.192 376.139C349.707 375.802 349.965 375.333 349.965 374.731C349.965 374.244 349.78 373.854 349.411 373.562C349.042 373.271 348.545 373.125 347.921 373.125C347.42 373.125 346.966 373.182 346.561 373.296C346.155 373.41 345.686 373.635 345.152 373.972L344.578 373.193C345.038 372.851 345.553 372.594 346.123 372.421C346.697 372.243 347.292 372.154 347.907 372.154C348.933 372.154 349.735 372.38 350.313 372.831C350.897 373.277 351.188 373.879 351.188 374.635ZM354.49 377.896H356.534C357.487 377.896 358.191 378.074 358.646 378.429C359.107 378.78 359.337 379.307 359.337 380.009C359.337 380.76 359.093 381.33 358.605 381.718C358.122 382.1 357.409 382.292 356.466 382.292H353.355V374.8H354.49V377.896ZM361.729 382.292H360.595V374.8H361.729V382.292ZM354.49 378.874V381.342H356.411C357.614 381.342 358.216 380.92 358.216 380.077C358.216 379.658 358.077 379.352 357.799 379.161C357.521 378.969 357.047 378.874 356.377 378.874H354.49ZM365.332 380.665L365.435 380.822C365.316 381.278 365.145 381.806 364.922 382.408C364.699 383.014 364.466 383.577 364.225 384.096H363.37C363.493 383.622 363.628 383.037 363.773 382.34C363.924 381.642 364.029 381.084 364.088 380.665H365.332ZM229.338 401.292H228.203V393.8H234.492V401.292H233.344V394.784H229.338V401.292ZM240.385 401.428C239.897 401.428 239.451 401.34 239.045 401.162C238.644 400.98 238.307 400.702 238.033 400.328H237.951C238.006 400.765 238.033 401.18 238.033 401.572V404.655H236.898V393.8H237.821L237.979 394.825H238.033C238.325 394.415 238.664 394.119 239.052 393.936C239.439 393.754 239.883 393.663 240.385 393.663C241.378 393.663 242.144 394.002 242.682 394.681C243.224 395.36 243.495 396.313 243.495 397.539C243.495 398.769 243.219 399.726 242.668 400.41C242.121 401.089 241.36 401.428 240.385 401.428ZM240.221 394.627C239.455 394.627 238.901 394.839 238.56 395.262C238.218 395.686 238.042 396.361 238.033 397.286V397.539C238.033 398.592 238.209 399.346 238.56 399.802C238.91 400.253 239.473 400.478 240.248 400.478C240.895 400.478 241.401 400.216 241.766 399.692C242.135 399.168 242.319 398.446 242.319 397.525C242.319 396.591 242.135 395.875 241.766 395.379C241.401 394.877 240.886 394.627 240.221 394.627ZM251.951 397.539C251.951 398.76 251.644 399.715 251.028 400.403C250.413 401.087 249.563 401.428 248.479 401.428C247.809 401.428 247.214 401.271 246.694 400.957C246.175 400.642 245.774 400.191 245.491 399.603C245.209 399.015 245.067 398.327 245.067 397.539C245.067 396.317 245.373 395.367 245.983 394.688C246.594 394.005 247.442 393.663 248.526 393.663C249.575 393.663 250.406 394.011 251.021 394.709C251.641 395.406 251.951 396.349 251.951 397.539ZM246.243 397.539C246.243 398.496 246.435 399.225 246.817 399.726C247.2 400.228 247.763 400.478 248.506 400.478C249.249 400.478 249.812 400.23 250.194 399.733C250.582 399.232 250.775 398.5 250.775 397.539C250.775 396.586 250.582 395.864 250.194 395.372C249.812 394.875 249.244 394.627 248.492 394.627C247.749 394.627 247.189 394.871 246.811 395.358C246.432 395.846 246.243 396.573 246.243 397.539ZM255.014 393.8V398.551L254.966 399.795L254.945 400.184L258.999 393.8H260.414V401.292H259.354V396.712L259.375 395.809L259.409 394.921L255.362 401.292H253.947V393.8H255.014ZM264.249 396.91C265.666 396.91 266.375 396.518 266.375 395.734C266.375 394.996 265.801 394.627 264.652 394.627C264.301 394.627 263.982 394.659 263.695 394.722C263.408 394.786 263.032 394.914 262.567 395.105L262.164 394.182C262.939 393.836 263.784 393.663 264.7 393.663C265.562 393.663 266.241 393.841 266.737 394.196C267.234 394.547 267.482 395.028 267.482 395.638C267.482 396.477 267.015 397.026 266.081 397.286V397.341C266.655 397.509 267.075 397.751 267.339 398.065C267.603 398.375 267.735 398.765 267.735 399.234C267.735 399.927 267.455 400.467 266.895 400.854C266.339 401.237 265.568 401.428 264.584 401.428C263.504 401.428 262.67 401.267 262.082 400.943V399.904C262.916 400.296 263.759 400.492 264.611 400.492C265.268 400.492 265.762 400.38 266.095 400.157C266.432 399.929 266.601 399.603 266.601 399.179C266.601 398.309 265.892 397.874 264.475 397.874H263.436V396.91H264.249ZM275.665 395.679C275.665 396.167 275.524 396.538 275.241 396.794C274.963 397.044 274.571 397.213 274.065 397.3V397.361C274.703 397.448 275.168 397.635 275.46 397.922C275.756 398.209 275.904 398.605 275.904 399.111C275.904 399.808 275.647 400.346 275.132 400.724C274.621 401.103 273.874 401.292 272.89 401.292H269.588V393.8H272.876C274.735 393.8 275.665 394.426 275.665 395.679ZM274.77 399.036C274.77 398.63 274.615 398.336 274.305 398.154C273.999 397.967 273.491 397.874 272.78 397.874H270.723V400.342H272.808C274.116 400.342 274.77 399.906 274.77 399.036ZM274.558 395.789C274.558 395.424 274.416 395.167 274.134 395.016C273.856 394.861 273.432 394.784 272.862 394.784H270.723V396.896H272.644C273.345 396.896 273.84 396.81 274.127 396.636C274.414 396.463 274.558 396.181 274.558 395.789ZM284.025 397.539C284.025 398.76 283.718 399.715 283.103 400.403C282.487 401.087 281.637 401.428 280.553 401.428C279.883 401.428 279.288 401.271 278.769 400.957C278.249 400.642 277.848 400.191 277.565 399.603C277.283 399.015 277.142 398.327 277.142 397.539C277.142 396.317 277.447 395.367 278.058 394.688C278.668 394.005 279.516 393.663 280.601 393.663C281.649 393.663 282.48 394.011 283.096 394.709C283.715 395.406 284.025 396.349 284.025 397.539ZM278.317 397.539C278.317 398.496 278.509 399.225 278.892 399.726C279.274 400.228 279.837 400.478 280.58 400.478C281.323 400.478 281.886 400.23 282.269 399.733C282.656 399.232 282.85 398.5 282.85 397.539C282.85 396.586 282.656 395.864 282.269 395.372C281.886 394.875 281.318 394.627 280.566 394.627C279.824 394.627 279.263 394.871 278.885 395.358C278.507 395.846 278.317 396.573 278.317 397.539ZM292.529 403.883H291.429V401.292H286.192V403.883H285.099V400.314H285.687C286.297 399.485 286.776 398.512 287.122 397.395C287.468 396.279 287.648 395.08 287.662 393.8H291.456V400.314H292.529V403.883ZM290.362 400.314V394.695H288.681C288.621 395.707 288.425 396.732 288.093 397.771C287.765 398.806 287.354 399.653 286.862 400.314H290.362ZM295.1 393.8V398.551L295.052 399.795L295.031 400.184L299.085 393.8H300.5V401.292H299.44V396.712L299.461 395.809L299.495 394.921L295.448 401.292H294.033V393.8H295.1ZM307.958 394.77H305.524V401.292H304.39V394.77H301.983V393.8H307.958V394.77ZM312.606 401.428C311.499 401.428 310.624 401.091 309.981 400.417C309.343 399.742 309.024 398.806 309.024 397.607C309.024 396.399 309.321 395.44 309.913 394.729C310.51 394.018 311.31 393.663 312.312 393.663C313.251 393.663 313.994 393.973 314.541 394.593C315.088 395.208 315.361 396.021 315.361 397.033V397.751H310.2C310.223 398.63 310.444 399.298 310.863 399.754C311.287 400.209 311.882 400.437 312.647 400.437C313.454 400.437 314.252 400.269 315.04 399.931V400.943C314.639 401.116 314.258 401.239 313.898 401.312C313.543 401.39 313.112 401.428 312.606 401.428ZM312.299 394.613C311.697 394.613 311.216 394.809 310.856 395.201C310.501 395.593 310.291 396.135 310.228 396.828H314.145C314.145 396.112 313.985 395.566 313.666 395.187C313.347 394.804 312.891 394.613 312.299 394.613ZM322.888 401.292H321.739V394.77H319.49C319.367 396.393 319.196 397.68 318.978 398.633C318.759 399.585 318.474 400.282 318.123 400.724C317.777 401.166 317.335 401.387 316.797 401.387C316.551 401.387 316.355 401.36 316.209 401.305V400.465C316.309 400.492 316.423 400.506 316.551 400.506C317.075 400.506 317.492 399.952 317.802 398.844C318.112 397.737 318.346 396.055 318.506 393.8H322.888V401.292ZM326.367 393.8V398.551L326.319 399.795L326.299 400.184L330.353 393.8H331.768V401.292H330.708V396.712L330.729 395.809L330.763 394.921L326.716 401.292H325.301V393.8H326.367ZM339.8 392.193C339.016 392.193 338.255 392.366 337.517 392.713L337.024 391.728C337.808 391.345 338.738 391.154 339.813 391.154C340.802 391.154 341.652 391.355 342.363 391.756C343.079 392.157 343.621 392.729 343.99 393.471C344.359 394.214 344.544 395.089 344.544 396.096C344.544 397.81 344.129 399.127 343.3 400.048C342.47 400.968 341.276 401.428 339.718 401.428C338.683 401.428 337.811 401.299 337.1 401.039V400.02C337.478 400.116 337.863 400.203 338.255 400.28C338.647 400.358 339.068 400.396 339.52 400.396C340.755 400.396 341.687 400.068 342.315 399.412C342.944 398.751 343.277 397.801 343.313 396.561H338.398V395.522H343.3C343.2 394.479 342.84 393.663 342.22 393.075C341.604 392.487 340.798 392.193 339.8 392.193ZM353.991 401.292H352.583L347.962 396.226V401.292H346.8V391.298H347.962V396.137L352.467 391.298H353.8L349.377 396.151L353.991 401.292ZM361.853 398.38C361.853 399.373 361.556 400.107 360.964 400.581C360.376 401.055 359.487 401.292 358.298 401.292H355.372V391.298H361.265V392.33H356.534V395.563H358.086C358.965 395.563 359.681 395.666 360.232 395.871C360.784 396.071 361.192 396.37 361.456 396.766C361.72 397.163 361.853 397.701 361.853 398.38ZM356.534 400.287H358.168C359.034 400.287 359.663 400.139 360.055 399.843C360.451 399.546 360.649 399.059 360.649 398.38C360.649 397.733 360.449 397.272 360.048 396.999C359.647 396.725 358.947 396.589 357.949 396.589H356.534V400.287ZM364.977 399.665L365.079 399.822C364.961 400.278 364.79 400.806 364.566 401.408C364.343 402.014 364.111 402.577 363.869 403.096H363.015C363.138 402.622 363.272 402.037 363.418 401.34C363.568 400.642 363.673 400.084 363.732 399.665H364.977ZM235.511 422.883H234.376V420.292H228.203V412.8H229.338V419.314H233.316V412.8H234.451V419.314H235.511V422.883ZM240.132 420.428C239.024 420.428 238.149 420.091 237.507 419.417C236.869 418.742 236.55 417.806 236.55 416.607C236.55 415.399 236.846 414.44 237.438 413.729C238.035 413.018 238.835 412.663 239.838 412.663C240.777 412.663 241.52 412.973 242.066 413.593C242.613 414.208 242.887 415.021 242.887 416.033V416.751H237.726C237.748 417.63 237.969 418.298 238.389 418.754C238.812 419.209 239.407 419.437 240.173 419.437C240.979 419.437 241.777 419.269 242.565 418.931V419.943C242.164 420.116 241.784 420.239 241.424 420.312C241.068 420.39 240.638 420.428 240.132 420.428ZM239.824 413.613C239.223 413.613 238.742 413.809 238.382 414.201C238.026 414.593 237.817 415.135 237.753 415.828H241.67C241.67 415.112 241.51 414.566 241.191 414.187C240.872 413.804 240.417 413.613 239.824 413.613ZM245.963 412.8V415.937H250.16V412.8H251.295V420.292H250.16V416.915H245.963V420.292H244.828V412.8H245.963ZM258.753 413.77H256.319V420.292H255.185V413.77H252.778V412.8H258.753V413.77ZM263.723 420.428C263.235 420.428 262.788 420.34 262.383 420.162C261.982 419.98 261.645 419.702 261.371 419.328H261.289C261.344 419.765 261.371 420.18 261.371 420.572V423.655H260.236V412.8H261.159L261.316 413.825H261.371C261.663 413.415 262.002 413.119 262.39 412.936C262.777 412.754 263.221 412.663 263.723 412.663C264.716 412.663 265.482 413.002 266.02 413.681C266.562 414.36 266.833 415.313 266.833 416.539C266.833 417.769 266.557 418.726 266.006 419.41C265.459 420.089 264.698 420.428 263.723 420.428ZM263.559 413.627C262.793 413.627 262.239 413.839 261.897 414.262C261.556 414.686 261.38 415.361 261.371 416.286V416.539C261.371 417.592 261.547 418.346 261.897 418.802C262.248 419.253 262.811 419.478 263.586 419.478C264.233 419.478 264.739 419.216 265.104 418.692C265.473 418.168 265.657 417.446 265.657 416.525C265.657 415.591 265.473 414.875 265.104 414.379C264.739 413.877 264.224 413.627 263.559 413.627ZM269.957 415.896H272.001C272.953 415.896 273.658 416.074 274.113 416.429C274.574 416.78 274.804 417.307 274.804 418.009C274.804 418.76 274.56 419.33 274.072 419.718C273.589 420.1 272.876 420.292 271.933 420.292H268.822V412.8H269.957V415.896ZM277.196 420.292H276.062V412.8H277.196V420.292ZM269.957 416.874V419.342H271.878C273.081 419.342 273.683 418.92 273.683 418.077C273.683 417.658 273.544 417.352 273.266 417.161C272.988 416.969 272.514 416.874 271.844 416.874H269.957ZM287.614 412.8H288.858L285.625 416.416L289.125 420.292H287.799L284.381 416.498V420.292H283.246V412.8H284.381V416.443L287.614 412.8ZM296.986 416.539C296.986 417.76 296.679 418.715 296.063 419.403C295.448 420.087 294.598 420.428 293.514 420.428C292.844 420.428 292.249 420.271 291.729 419.957C291.21 419.642 290.809 419.191 290.526 418.603C290.244 418.015 290.103 417.327 290.103 416.539C290.103 415.317 290.408 414.367 291.019 413.688C291.629 413.005 292.477 412.663 293.562 412.663C294.61 412.663 295.441 413.011 296.057 413.709C296.676 414.406 296.986 415.349 296.986 416.539ZM291.278 416.539C291.278 417.496 291.47 418.225 291.853 418.726C292.235 419.228 292.798 419.478 293.541 419.478C294.284 419.478 294.847 419.23 295.229 418.733C295.617 418.232 295.811 417.5 295.811 416.539C295.811 415.586 295.617 414.864 295.229 414.372C294.847 413.875 294.279 413.627 293.527 413.627C292.785 413.627 292.224 413.871 291.846 414.358C291.467 414.846 291.278 415.573 291.278 416.539ZM304.567 420.292H303.419V413.77H301.17C301.047 415.393 300.876 416.68 300.657 417.633C300.438 418.585 300.154 419.282 299.803 419.724C299.456 420.166 299.014 420.387 298.477 420.387C298.23 420.387 298.035 420.36 297.889 420.305V419.465C297.989 419.492 298.103 419.506 298.23 419.506C298.755 419.506 299.172 418.952 299.481 417.844C299.791 416.737 300.026 415.055 300.186 412.8H304.567V420.292ZM312.565 420.292H311.417V413.77H309.168C309.045 415.393 308.874 416.68 308.655 417.633C308.437 418.585 308.152 419.282 307.801 419.724C307.454 420.166 307.012 420.387 306.475 420.387C306.229 420.387 306.033 420.36 305.887 420.305V419.465C305.987 419.492 306.101 419.506 306.229 419.506C306.753 419.506 307.17 418.952 307.479 417.844C307.789 416.737 308.024 415.055 308.184 412.8H312.565V420.292ZM318.144 420.428C317.036 420.428 316.161 420.091 315.519 419.417C314.881 418.742 314.562 417.806 314.562 416.607C314.562 415.399 314.858 414.44 315.45 413.729C316.047 413.018 316.847 412.663 317.85 412.663C318.788 412.663 319.531 412.973 320.078 413.593C320.625 414.208 320.898 415.021 320.898 416.033V416.751H315.737C315.76 417.63 315.981 418.298 316.4 418.754C316.824 419.209 317.419 419.437 318.185 419.437C318.991 419.437 319.789 419.269 320.577 418.931V419.943C320.176 420.116 319.796 420.239 319.436 420.312C319.08 420.39 318.649 420.428 318.144 420.428ZM317.836 413.613C317.234 413.613 316.754 413.809 316.394 414.201C316.038 414.593 315.828 415.135 315.765 415.828H319.682C319.682 415.112 319.522 414.566 319.203 414.187C318.884 413.804 318.428 413.613 317.836 413.613ZM327.208 412.8H328.452L325.219 416.416L328.719 420.292H327.393L323.975 416.498V420.292H322.84V412.8H323.975V416.443L327.208 412.8ZM335.165 413.77H332.731V420.292H331.597V413.77H329.19V412.8H335.165V413.77ZM337.715 412.8V417.551L337.667 418.795L337.646 419.184L341.7 412.8H343.115V420.292H342.056V415.712L342.076 414.809L342.11 413.921L338.063 420.292H336.648V412.8H337.715ZM351.599 414.679C351.599 415.167 351.457 415.538 351.175 415.794C350.897 416.044 350.505 416.213 349.999 416.3V416.361C350.637 416.448 351.102 416.635 351.394 416.922C351.69 417.209 351.838 417.605 351.838 418.111C351.838 418.808 351.58 419.346 351.065 419.724C350.555 420.103 349.808 420.292 348.823 420.292H345.521V412.8H348.81C350.669 412.8 351.599 413.426 351.599 414.679ZM350.703 418.036C350.703 417.63 350.548 417.336 350.238 417.154C349.933 416.967 349.425 416.874 348.714 416.874H346.656V419.342H348.741C350.049 419.342 350.703 418.906 350.703 418.036ZM350.491 414.789C350.491 414.424 350.35 414.167 350.067 414.016C349.789 413.861 349.366 413.784 348.796 413.784H346.656V415.896H348.577C349.279 415.896 349.773 415.81 350.061 415.636C350.348 415.463 350.491 415.181 350.491 414.789ZM354.627 412.8V415.937H358.824V412.8H359.959V420.292H358.824V416.915H354.627V420.292H353.492V412.8H354.627ZM368.832 416.539C368.832 417.76 368.524 418.715 367.909 419.403C367.294 420.087 366.444 420.428 365.359 420.428C364.689 420.428 364.095 420.271 363.575 419.957C363.056 419.642 362.655 419.191 362.372 418.603C362.09 418.015 361.948 417.327 361.948 416.539C361.948 415.317 362.254 414.367 362.864 413.688C363.475 413.005 364.323 412.663 365.407 412.663C366.455 412.663 367.287 413.011 367.902 413.709C368.522 414.406 368.832 415.349 368.832 416.539ZM363.124 416.539C363.124 417.496 363.315 418.225 363.698 418.726C364.081 419.228 364.644 419.478 365.387 419.478C366.13 419.478 366.692 419.23 367.075 418.733C367.463 418.232 367.656 417.5 367.656 416.539C367.656 415.586 367.463 414.864 367.075 414.372C366.692 413.875 366.125 413.627 365.373 413.627C364.63 413.627 364.07 413.871 363.691 414.358C363.313 414.846 363.124 415.573 363.124 416.539ZM375.34 413.77H371.963V420.292H370.828V412.8H375.34V413.77ZM383.297 416.539C383.297 417.76 382.989 418.715 382.374 419.403C381.759 420.087 380.909 420.428 379.824 420.428C379.154 420.428 378.56 420.271 378.04 419.957C377.521 419.642 377.119 419.191 376.837 418.603C376.554 418.015 376.413 417.327 376.413 416.539C376.413 415.317 376.718 414.367 377.329 413.688C377.94 413.005 378.787 412.663 379.872 412.663C380.92 412.663 381.752 413.011 382.367 413.709C382.987 414.406 383.297 415.349 383.297 416.539ZM377.589 416.539C377.589 417.496 377.78 418.225 378.163 418.726C378.546 419.228 379.109 419.478 379.852 419.478C380.594 419.478 381.157 419.23 381.54 418.733C381.927 418.232 382.121 417.5 382.121 416.539C382.121 415.586 381.927 414.864 381.54 414.372C381.157 413.875 380.59 413.627 379.838 413.627C379.095 413.627 378.535 413.871 378.156 414.358C377.778 414.846 377.589 415.573 377.589 416.539ZM395.396 416.539C395.396 417.76 395.089 418.715 394.474 419.403C393.858 420.087 393.008 420.428 391.924 420.428C391.254 420.428 390.659 420.271 390.14 419.957C389.62 419.642 389.219 419.191 388.937 418.603C388.654 418.015 388.513 417.327 388.513 416.539C388.513 415.317 388.818 414.367 389.429 413.688C390.039 413.005 390.887 412.663 391.972 412.663C393.02 412.663 393.852 413.011 394.467 413.709C395.087 414.406 395.396 415.349 395.396 416.539ZM389.688 416.539C389.688 417.496 389.88 418.225 390.263 418.726C390.646 419.228 391.208 419.478 391.951 419.478C392.694 419.478 393.257 419.23 393.64 418.733C394.027 418.232 394.221 417.5 394.221 416.539C394.221 415.586 394.027 414.864 393.64 414.372C393.257 413.875 392.689 413.627 391.938 413.627C391.195 413.627 390.634 413.871 390.256 414.358C389.878 414.846 389.688 415.573 389.688 416.539ZM397.003 415.801C397.003 414.16 397.244 412.882 397.728 411.966C398.211 411.045 398.976 410.471 400.024 410.243C401.328 409.965 402.476 409.739 403.47 409.566L403.682 410.564C402.1 410.829 400.97 411.038 400.291 411.193C399.63 411.344 399.133 411.699 398.801 412.26C398.473 412.82 398.293 413.583 398.261 414.55H398.343C398.625 414.167 398.99 413.866 399.437 413.647C399.883 413.428 400.35 413.319 400.838 413.319C401.758 413.319 402.476 413.618 402.991 414.215C403.506 414.812 403.764 415.639 403.764 416.696C403.764 417.867 403.465 418.783 402.868 419.444C402.271 420.1 401.439 420.428 400.373 420.428C399.32 420.428 398.495 420.025 397.898 419.219C397.301 418.412 397.003 417.273 397.003 415.801ZM400.476 419.478C401.866 419.478 402.561 418.592 402.561 416.819C402.561 415.128 401.929 414.283 400.667 414.283C400.321 414.283 399.986 414.356 399.662 414.502C399.343 414.643 399.049 414.832 398.78 415.069C398.516 415.306 398.311 415.55 398.165 415.801C398.165 416.999 398.354 417.913 398.732 418.542C399.111 419.166 399.692 419.478 400.476 419.478ZM409.232 420.428C408.745 420.428 408.298 420.34 407.893 420.162C407.492 419.98 407.154 419.702 406.881 419.328H406.799C406.854 419.765 406.881 420.18 406.881 420.572V423.655H405.746V412.8H406.669L406.826 413.825H406.881C407.173 413.415 407.512 413.119 407.899 412.936C408.287 412.754 408.731 412.663 409.232 412.663C410.226 412.663 410.992 413.002 411.529 413.681C412.072 414.36 412.343 415.313 412.343 416.539C412.343 417.769 412.067 418.726 411.516 419.41C410.969 420.089 410.208 420.428 409.232 420.428ZM409.068 413.627C408.303 413.627 407.749 413.839 407.407 414.262C407.065 414.686 406.89 415.361 406.881 416.286V416.539C406.881 417.592 407.056 418.346 407.407 418.802C407.758 419.253 408.321 419.478 409.096 419.478C409.743 419.478 410.249 419.216 410.613 418.692C410.982 418.168 411.167 417.446 411.167 416.525C411.167 415.591 410.982 414.875 410.613 414.379C410.249 413.877 409.734 413.627 409.068 413.627ZM418.939 420.292L418.714 419.225H418.659C418.285 419.695 417.912 420.014 417.538 420.182C417.169 420.346 416.706 420.428 416.15 420.428C415.408 420.428 414.824 420.237 414.4 419.854C413.981 419.471 413.771 418.927 413.771 418.22C413.771 416.707 414.981 415.914 417.401 415.842L418.673 415.801V415.336C418.673 414.748 418.545 414.315 418.29 414.037C418.039 413.754 417.636 413.613 417.08 413.613C416.456 413.613 415.749 413.804 414.961 414.187L414.612 413.319C414.981 413.119 415.385 412.961 415.822 412.847C416.264 412.733 416.706 412.677 417.148 412.677C418.042 412.677 418.702 412.875 419.131 413.271C419.564 413.668 419.78 414.303 419.78 415.178V420.292H418.939ZM416.376 419.492C417.082 419.492 417.636 419.298 418.037 418.911C418.443 418.524 418.646 417.981 418.646 417.284V416.607L417.511 416.655C416.608 416.687 415.957 416.828 415.556 417.079C415.159 417.325 414.961 417.71 414.961 418.234C414.961 418.644 415.084 418.956 415.33 419.171C415.581 419.385 415.929 419.492 416.376 419.492ZM423.554 415.91C424.971 415.91 425.68 415.518 425.68 414.734C425.68 413.996 425.105 413.627 423.957 413.627C423.606 413.627 423.287 413.659 423 413.722C422.713 413.786 422.337 413.914 421.872 414.105L421.469 413.182C422.243 412.836 423.089 412.663 424.005 412.663C424.866 412.663 425.545 412.841 426.042 413.196C426.539 413.547 426.787 414.028 426.787 414.638C426.787 415.477 426.32 416.026 425.386 416.286V416.341C425.96 416.509 426.379 416.751 426.644 417.065C426.908 417.375 427.04 417.765 427.04 418.234C427.04 418.927 426.76 419.467 426.199 419.854C425.643 420.237 424.873 420.428 423.889 420.428C422.809 420.428 421.975 420.267 421.387 419.943V418.904C422.221 419.296 423.064 419.492 423.916 419.492C424.572 419.492 425.067 419.38 425.399 419.157C425.737 418.929 425.905 418.603 425.905 418.179C425.905 417.309 425.197 416.874 423.779 416.874H422.74V415.91H423.554ZM435.359 416.539C435.359 417.76 435.052 418.715 434.437 419.403C433.821 420.087 432.971 420.428 431.887 420.428C431.217 420.428 430.622 420.271 430.103 419.957C429.583 419.642 429.182 419.191 428.899 418.603C428.617 418.015 428.476 417.327 428.476 416.539C428.476 415.317 428.781 414.367 429.392 413.688C430.002 413.005 430.85 412.663 431.935 412.663C432.983 412.663 433.814 413.011 434.43 413.709C435.049 414.406 435.359 415.349 435.359 416.539ZM429.651 416.539C429.651 417.496 429.843 418.225 430.226 418.726C430.608 419.228 431.171 419.478 431.914 419.478C432.657 419.478 433.22 419.23 433.603 418.733C433.99 418.232 434.184 417.5 434.184 416.539C434.184 415.586 433.99 414.864 433.603 414.372C433.22 413.875 432.652 413.627 431.9 413.627C431.158 413.627 430.597 413.871 430.219 414.358C429.84 414.846 429.651 415.573 429.651 416.539ZM443.433 414.679C443.433 415.167 443.291 415.538 443.009 415.794C442.731 416.044 442.339 416.213 441.833 416.3V416.361C442.471 416.448 442.936 416.635 443.228 416.922C443.524 417.209 443.672 417.605 443.672 418.111C443.672 418.808 443.414 419.346 442.899 419.724C442.389 420.103 441.642 420.292 440.657 420.292H437.355V412.8H440.644C442.503 412.8 443.433 413.426 443.433 414.679ZM442.537 418.036C442.537 417.63 442.382 417.336 442.072 417.154C441.767 416.967 441.259 416.874 440.548 416.874H438.49V419.342H440.575C441.883 419.342 442.537 418.906 442.537 418.036ZM442.325 414.789C442.325 414.424 442.184 414.167 441.901 414.016C441.623 413.861 441.2 413.784 440.63 413.784H438.49V415.896H440.411C441.113 415.896 441.607 415.81 441.895 415.636C442.182 415.463 442.325 415.181 442.325 414.789ZM449.934 420.292L449.708 419.225H449.653C449.28 419.695 448.906 420.014 448.532 420.182C448.163 420.346 447.701 420.428 447.145 420.428C446.402 420.428 445.818 420.237 445.395 419.854C444.975 419.471 444.766 418.927 444.766 418.22C444.766 416.707 445.976 415.914 448.396 415.842L449.667 415.801V415.336C449.667 414.748 449.539 414.315 449.284 414.037C449.034 413.754 448.63 413.613 448.074 413.613C447.45 413.613 446.743 413.804 445.955 414.187L445.606 413.319C445.976 413.119 446.379 412.961 446.816 412.847C447.258 412.733 447.701 412.677 448.143 412.677C449.036 412.677 449.697 412.875 450.125 413.271C450.558 413.668 450.774 414.303 450.774 415.178V420.292H449.934ZM447.37 419.492C448.076 419.492 448.63 419.298 449.031 418.911C449.437 418.524 449.64 417.981 449.64 417.284V416.607L448.505 416.655C447.603 416.687 446.951 416.828 446.55 417.079C446.153 417.325 445.955 417.71 445.955 418.234C445.955 418.644 446.078 418.956 446.324 419.171C446.575 419.385 446.924 419.492 447.37 419.492ZM454.254 412.8V415.937H458.451V412.8H459.586V420.292H458.451V416.915H454.254V420.292H453.119V412.8H454.254ZM463.059 412.8V417.551L463.011 418.795L462.99 419.184L467.044 412.8H468.459V420.292H467.399V415.712L467.42 414.809L467.454 413.921L463.407 420.292H461.992V412.8H463.059ZM471.241 420.292H469.915L472.068 417.127C471.49 416.999 471.045 416.753 470.735 416.388C470.43 416.019 470.277 415.557 470.277 415.001C470.277 414.317 470.507 413.779 470.968 413.387C471.428 412.996 472.071 412.8 472.896 412.8H476.231V420.292H475.097V417.298H473.203L471.241 420.292ZM471.385 415.014C471.385 415.88 472.014 416.313 473.271 416.313H475.097V413.784H473.039C471.936 413.784 471.385 414.194 471.385 415.014ZM479.834 418.665L479.937 418.822C479.818 419.278 479.647 419.806 479.424 420.408C479.201 421.014 478.968 421.577 478.727 422.096H477.872C477.995 421.622 478.13 421.037 478.275 420.34C478.426 419.642 478.531 419.084 478.59 418.665H479.834ZM234.711 441.883H233.61V439.292H228.374V441.883H227.28V438.314H227.868C228.479 437.485 228.957 436.512 229.304 435.395C229.65 434.279 229.83 433.08 229.844 431.8H233.638V438.314H234.711V441.883ZM232.544 438.314V432.695H230.862C230.803 433.707 230.607 434.732 230.274 435.771C229.946 436.806 229.536 437.653 229.044 438.314H232.544ZM237.281 431.8V436.551L237.233 437.795L237.213 438.184L241.267 431.8H242.682V439.292H241.622V434.712L241.643 433.809L241.677 432.921L237.63 439.292H236.215V431.8H237.281ZM246.517 434.91C247.934 434.91 248.643 434.518 248.643 433.734C248.643 432.996 248.068 432.627 246.92 432.627C246.569 432.627 246.25 432.659 245.963 432.722C245.676 432.786 245.3 432.914 244.835 433.105L244.432 432.182C245.206 431.836 246.052 431.663 246.968 431.663C247.829 431.663 248.508 431.841 249.005 432.196C249.502 432.547 249.75 433.028 249.75 433.638C249.75 434.477 249.283 435.026 248.349 435.286V435.341C248.923 435.509 249.342 435.751 249.606 436.065C249.871 436.375 250.003 436.765 250.003 437.234C250.003 437.927 249.723 438.467 249.162 438.854C248.606 439.237 247.836 439.428 246.852 439.428C245.771 439.428 244.938 439.267 244.35 438.943V437.904C245.184 438.296 246.027 438.492 246.879 438.492C247.535 438.492 248.03 438.38 248.362 438.157C248.7 437.929 248.868 437.603 248.868 437.179C248.868 436.309 248.16 435.874 246.742 435.874H245.703V434.91H246.517ZM256.463 439.292L256.237 438.225H256.183C255.809 438.695 255.435 439.014 255.062 439.182C254.692 439.346 254.23 439.428 253.674 439.428C252.931 439.428 252.348 439.237 251.924 438.854C251.505 438.471 251.295 437.927 251.295 437.22C251.295 435.707 252.505 434.914 254.925 434.842L256.196 434.801V434.336C256.196 433.748 256.069 433.315 255.813 433.037C255.563 432.754 255.16 432.613 254.604 432.613C253.979 432.613 253.273 432.804 252.484 433.187L252.136 432.319C252.505 432.119 252.908 431.961 253.346 431.847C253.788 431.733 254.23 431.677 254.672 431.677C255.565 431.677 256.226 431.875 256.654 432.271C257.087 432.668 257.304 433.303 257.304 434.178V439.292H256.463ZM253.899 438.492C254.606 438.492 255.16 438.298 255.561 437.911C255.966 437.524 256.169 436.981 256.169 436.284V435.607L255.034 435.655C254.132 435.687 253.48 435.828 253.079 436.079C252.683 436.325 252.484 436.71 252.484 437.234C252.484 437.644 252.607 437.956 252.854 438.171C253.104 438.385 253.453 438.492 253.899 438.492ZM260.715 431.8V436.551L260.667 437.795L260.646 438.184L264.7 431.8H266.115V439.292H265.056V434.712L265.076 433.809L265.11 432.921L261.063 439.292H259.648V431.8H260.715ZM262.854 430.808C262.011 430.808 261.396 430.647 261.009 430.323C260.621 429.995 260.405 429.457 260.359 428.71H261.426C261.467 429.184 261.59 429.514 261.795 429.701C262.005 429.888 262.367 429.981 262.882 429.981C263.351 429.981 263.698 429.881 263.921 429.68C264.149 429.48 264.288 429.156 264.338 428.71H265.411C265.356 429.43 265.126 429.961 264.721 430.302C264.315 430.64 263.693 430.808 262.854 430.808ZM269.656 431.8V434.937H273.854V431.8H274.988V439.292H273.854V435.915H269.656V439.292H268.521V431.8H269.656ZM288.339 441.883H287.204V439.292H281.031V431.8H282.166V438.314H286.145V431.8H287.279V438.314H288.339V441.883ZM292.96 439.428C291.853 439.428 290.978 439.091 290.335 438.417C289.697 437.742 289.378 436.806 289.378 435.607C289.378 434.399 289.674 433.44 290.267 432.729C290.864 432.018 291.663 431.663 292.666 431.663C293.605 431.663 294.348 431.973 294.895 432.593C295.441 433.208 295.715 434.021 295.715 435.033V435.751H290.554C290.576 436.63 290.798 437.298 291.217 437.754C291.641 438.209 292.235 438.437 293.001 438.437C293.808 438.437 294.605 438.269 295.394 437.931V438.943C294.993 439.116 294.612 439.239 294.252 439.312C293.896 439.39 293.466 439.428 292.96 439.428ZM292.652 432.613C292.051 432.613 291.57 432.809 291.21 433.201C290.854 433.593 290.645 434.135 290.581 434.828H294.498C294.498 434.112 294.339 433.566 294.02 433.187C293.701 432.804 293.245 432.613 292.652 432.613ZM298.791 431.8V434.937H302.988V431.8H304.123V439.292H302.988V435.915H298.791V439.292H297.656V431.8H298.791ZM311.581 432.77H309.147V439.292H308.013V432.77H305.606V431.8H311.581V432.77ZM316.551 439.428C316.063 439.428 315.617 439.34 315.211 439.162C314.81 438.98 314.473 438.702 314.199 438.328H314.117C314.172 438.765 314.199 439.18 314.199 439.572V442.655H313.064V431.8H313.987L314.145 432.825H314.199C314.491 432.415 314.83 432.119 315.218 431.936C315.605 431.754 316.049 431.663 316.551 431.663C317.544 431.663 318.31 432.002 318.848 432.681C319.39 433.36 319.661 434.313 319.661 435.539C319.661 436.769 319.385 437.726 318.834 438.41C318.287 439.089 317.526 439.428 316.551 439.428ZM316.387 432.627C315.621 432.627 315.067 432.839 314.726 433.262C314.384 433.686 314.208 434.361 314.199 435.286V435.539C314.199 436.592 314.375 437.346 314.726 437.802C315.076 438.253 315.639 438.478 316.414 438.478C317.061 438.478 317.567 438.216 317.932 437.692C318.301 437.168 318.485 436.446 318.485 435.525C318.485 434.591 318.301 433.875 317.932 433.379C317.567 432.877 317.052 432.627 316.387 432.627ZM322.785 434.896H324.829C325.782 434.896 326.486 435.074 326.941 435.429C327.402 435.78 327.632 436.307 327.632 437.009C327.632 437.76 327.388 438.33 326.9 438.718C326.417 439.1 325.704 439.292 324.761 439.292H321.65V431.8H322.785V434.896ZM330.024 439.292H328.89V431.8H330.024V439.292ZM322.785 435.874V438.342H324.706C325.909 438.342 326.511 437.92 326.511 437.077C326.511 436.658 326.372 436.352 326.094 436.161C325.816 435.969 325.342 435.874 324.672 435.874H322.785Z" fill="#292929"/>
<path d="M113.217 243.214C115.062 243.214 116.558 241.719 116.558 239.875C116.558 238.031 115.062 236.536 113.217 236.536C111.371 236.536 109.875 238.031 109.875 239.875C109.875 241.719 111.371 243.214 113.217 243.214Z" fill="white" stroke="#F7920D" stroke-miterlimit="10"/>
</g>
<defs>
<clipPath id="clip0_8333_2296">
<rect width="638" height="470" fill="white"/>
</clipPath>
</defs>
</svg>
