<svg width="98" height="99" viewBox="0 0 98 99" fill="none" xmlns="http://www.w3.org/2000/svg">
<path d="M97.5 49.5C97.5 76.5667 75.781 98.5 49 98.5C22.219 98.5 0.5 76.5667 0.5 49.5C0.5 22.4333 22.219 0.5 49 0.5C75.781 0.5 97.5 22.4333 97.5 49.5Z" stroke="#FE4807"/>
<path d="M24.0972 58.5577V31.5493C24.0972 29.198 26.0036 27.2915 28.355 27.2915H69.4713C71.8226 27.2915 73.7291 29.198 73.7291 31.5493V58.5577C73.7291 60.909 71.8226 62.8155 69.4713 62.8155H28.355C26.0036 62.7519 24.0972 60.8455 24.0972 58.5577Z" stroke="#FE4807" stroke-miterlimit="10"/>
<path d="M41.2554 69.1069H56.5072" stroke="#FE4807" stroke-miterlimit="10" stroke-linecap="round" stroke-linejoin="round"/>
<path d="M48.8813 62.8789V69.2974" stroke="#FE4807" stroke-miterlimit="10" stroke-linecap="round" stroke-linejoin="round"/>
<path d="M49.0083 29.7065L26.7661 51.9487" stroke="#FE4807" stroke-miterlimit="10" stroke-linecap="round" stroke-linejoin="round"/>
<path d="M39.1583 29.3887L26.4485 42.0985" stroke="#FE4807" stroke-miterlimit="10" stroke-linecap="round" stroke-linejoin="round"/>
</svg>
