<svg width="98" height="99" viewBox="0 0 98 99" fill="none" xmlns="http://www.w3.org/2000/svg">
<path d="M97.5 49.5C97.5 76.5667 75.781 98.5 49 98.5C22.219 98.5 0.5 76.5667 0.5 49.5C0.5 22.4333 22.219 0.5 49 0.5C75.781 0.5 97.5 22.4333 97.5 49.5Z" stroke="#FE4807"/>
<path d="M33.1007 66.1413C35.1668 66.1413 36.8418 57.4318 36.8418 46.6881C36.8418 35.9444 35.1668 27.2349 33.1007 27.2349C31.0346 27.2349 29.3597 35.9444 29.3597 46.6881C29.3597 57.4318 31.0346 66.1413 33.1007 66.1413Z" stroke="#FE4807" stroke-miterlimit="10"/>
<path d="M52.741 27.0479H42.4532V27.2349C44.6979 31.5371 46.1943 38.645 46.1943 46.6881C46.1943 54.7313 44.6979 61.7769 42.4532 66.1414V66.3284H52.741V66.1414C50.4964 61.8392 49 54.7313 49 46.6881C49 38.645 50.4964 31.5994 52.741 27.2349V27.0479Z" stroke="#FE4807" stroke-miterlimit="10"/>
<path d="M68.6403 27.0479H58.3525V27.2349C60.5971 31.5371 62.0935 38.645 62.0935 46.6881C62.0935 54.7313 60.5971 61.7769 58.3525 66.1414V66.3284H68.6403V66.1414C66.3957 61.8392 64.8993 54.7313 64.8993 46.6881C64.8993 38.645 66.3957 31.5994 68.6403 27.2349V27.0479Z" stroke="#FE4807" stroke-miterlimit="10"/>
</svg>
