<svg width="98" height="99" viewBox="0 0 98 99" fill="none" xmlns="http://www.w3.org/2000/svg">
<path d="M97.5 49.5C97.5 76.5667 75.781 98.5 49 98.5C22.219 98.5 0.5 76.5667 0.5 49.5C0.5 22.4333 22.219 0.5 49 0.5C75.781 0.5 97.5 22.4333 97.5 49.5Z" stroke="#FE4807"/>
<path d="M47.5615 66.0575C57.288 66.0575 65.173 58.1725 65.173 48.446C65.173 38.7194 57.288 30.8345 47.5615 30.8345C37.8349 30.8345 29.95 38.7194 29.95 48.446C29.95 58.1725 37.8349 66.0575 47.5615 66.0575Z" stroke="#FE4807" stroke-miterlimit="10"/>
<path d="M32.5396 48.446C32.5396 45.5683 33.3453 42.9208 34.7266 40.6187" stroke="#FE4807" stroke-miterlimit="10" stroke-linecap="round" stroke-linejoin="round"/>
<path d="M33.8635 54.5468C33.4606 53.6835 33.1728 52.7626 32.9426 51.7842" stroke="#FE4807" stroke-miterlimit="10" stroke-linecap="round" stroke-linejoin="round"/>
<path d="M68.7987 40.6763C66.3814 45.5684 61.144 51.3238 54.1224 56.7338C42.2663 65.7122 29.9498 69.5108 26.6692 65.1367C24.885 62.777 26.0361 58.5756 29.3742 53.741" stroke="#FE4807" stroke-miterlimit="10" stroke-linecap="round"/>
<path d="M57.9211 32.043C63.3888 30.1437 67.7629 30.1437 69.547 32.5034C70.1801 33.3092 70.4104 34.3451 70.3528 35.6113" stroke="#FE4807" stroke-miterlimit="10" stroke-linecap="round"/>
<path d="M69.8346 40.676C71.2649 40.676 72.4245 39.5164 72.4245 38.086C72.4245 36.6556 71.2649 35.4961 69.8346 35.4961C68.4042 35.4961 67.2446 36.6556 67.2446 38.086C67.2446 39.5164 68.4042 40.676 69.8346 40.676Z" stroke="#FE4807" stroke-miterlimit="10" stroke-linecap="round"/>
</svg>
