<svg width="98" height="99" viewBox="0 0 98 99" fill="none" xmlns="http://www.w3.org/2000/svg">
<path d="M97.5 49.5C97.5 76.5667 75.781 98.5 49 98.5C22.219 98.5 0.5 76.5667 0.5 49.5C0.5 22.4333 22.219 0.5 49 0.5C75.781 0.5 97.5 22.4333 97.5 49.5Z" stroke="#FE4807"/>
<path d="M67.9447 30.5562H35.8105C34.3117 30.5562 33.0527 31.935 33.0527 33.5538C33.0527 34.453 32.3932 35.2324 31.5539 35.2324H30.4148C29.6953 35.2324 29.0958 35.8919 29.0958 36.6713V53.5777C29.0958 54.3571 29.6953 55.0166 30.4148 55.0166H30.4747C31.3141 55.0166 31.9735 55.736 31.9735 56.6952V59.9926C31.9735 60.8919 31.3141 61.6713 30.4747 61.6713H30.4148C29.6953 61.6713 29.0958 62.3307 29.0958 63.1101V65.5681C29.0958 66.3475 29.6953 67.007 30.4148 67.007H30.4747C31.3141 67.007 31.9735 67.7264 31.9735 68.6856V70.3643C31.9735 70.8439 32.3332 71.2036 32.7529 71.2036H67.9447C69.9232 71.2036 71.5419 69.4051 71.5419 67.1868V34.513C71.5419 32.3547 69.9232 30.5562 67.9447 30.5562Z" stroke="#FE4807" stroke-miterlimit="10"/>
<path d="M25.6786 37.6304H37.0695H64.0479" stroke="#FE4807" stroke-miterlimit="10"/>
<path d="M25.9784 41.8271H37.3693H59.8513H62.2494V45.4243" stroke="#FE4807" stroke-miterlimit="10"/>
<path d="M25.9784 50.8198H37.3693V57.4145H45.4628" stroke="#FE4807" stroke-miterlimit="10"/>
<path d="M25.9784 64.6089H58.3525" stroke="#FE4807" stroke-miterlimit="10"/>
<path d="M25.9784 46.0239H48.4604" stroke="#FE4807" stroke-miterlimit="10"/>
<path d="M66.4459 40.0288C67.7372 40.0288 68.784 38.982 68.784 37.6907C68.784 36.3994 67.7372 35.3525 66.4459 35.3525C65.1546 35.3525 64.1078 36.3994 64.1078 37.6907C64.1078 38.982 65.1546 40.0288 66.4459 40.0288Z" stroke="#FE4807" stroke-miterlimit="10" stroke-linecap="round"/>
<path d="M50.8584 48.4219C52.1497 48.4219 53.1965 47.375 53.1965 46.0837C53.1965 44.7924 52.1497 43.7456 50.8584 43.7456C49.5671 43.7456 48.5203 44.7924 48.5203 46.0837C48.5203 47.375 49.5671 48.4219 50.8584 48.4219Z" stroke="#FE4807" stroke-miterlimit="10" stroke-linecap="round"/>
<path d="M62.2494 50.2202C63.5407 50.2202 64.5875 49.1734 64.5875 47.8821C64.5875 46.5908 63.5407 45.5439 62.2494 45.5439C60.9581 45.5439 59.9113 46.5908 59.9113 47.8821C59.9113 49.1734 60.9581 50.2202 62.2494 50.2202Z" stroke="#FE4807" stroke-miterlimit="10" stroke-linecap="round"/>
<path d="M60.4508 67.0068C61.7421 67.0068 62.7889 65.96 62.7889 64.6687C62.7889 63.3774 61.7421 62.3306 60.4508 62.3306C59.1595 62.3306 58.1127 63.3774 58.1127 64.6687C58.1127 65.96 59.1595 67.0068 60.4508 67.0068Z" stroke="#FE4807" stroke-miterlimit="10" stroke-linecap="round"/>
<path d="M47.8608 59.813C49.1521 59.813 50.199 58.7662 50.199 57.4748C50.199 56.1835 49.1521 55.1367 47.8608 55.1367C46.5695 55.1367 45.5227 56.1835 45.5227 57.4748C45.5227 58.7662 46.5695 59.813 47.8608 59.813Z" stroke="#FE4807" stroke-miterlimit="10" stroke-linecap="round"/>
</svg>
