<svg width="98" height="99" viewBox="0 0 98 99" fill="none" xmlns="http://www.w3.org/2000/svg">
<path d="M97.5 49.5C97.5 76.5667 75.781 98.5 49 98.5C22.219 98.5 0.5 76.5667 0.5 49.5C0.5 22.4333 22.219 0.5 49 0.5C75.781 0.5 97.5 22.4333 97.5 49.5Z" stroke="#FE4807"/>
<path d="M44.0146 63.1143V61.8496C44.0146 59.0469 44.4362 56.7568 45.2793 54.9795C46.1452 53.2021 47.7288 51.2995 50.0303 49.2715L53.1406 46.5713C54.7812 45.1813 55.9548 43.8027 56.6611 42.4355C57.3675 41.0684 57.7207 39.4961 57.7207 37.7188C57.7207 34.8249 56.7637 32.5234 54.8496 30.8145C52.9583 29.1055 50.4632 28.251 47.3643 28.251C45.5641 28.251 43.8779 28.4561 42.3057 28.8662C40.7334 29.2536 39.0358 29.8916 37.2129 30.7803L35.9482 28.0459C38.4548 26.9521 40.5511 26.223 42.2373 25.8584C43.9463 25.4938 45.7008 25.3115 47.501 25.3115C51.6709 25.3115 54.9521 26.4395 57.3447 28.6953C59.7373 30.9284 60.9336 34.0046 60.9336 37.9238C60.9336 39.4733 60.7285 40.8291 60.3184 41.9912C59.9082 43.1533 59.3271 44.2357 58.5752 45.2383C57.846 46.2181 56.9574 47.1751 55.9092 48.1094C54.861 49.0208 53.6989 50.012 52.4229 51.083C50.9645 52.3135 49.8366 53.4414 49.0391 54.4668C48.2643 55.4694 47.6947 56.529 47.3301 57.6455C46.9883 58.762 46.8174 60.4255 46.8174 62.6357V63.1143H44.0146ZM42.8867 73.334C42.8867 71.1009 43.7982 69.9844 45.6211 69.9844C47.4896 69.9844 48.4238 71.1009 48.4238 73.334C48.4238 75.5671 47.4896 76.6836 45.6211 76.6836C43.7982 76.6836 42.8867 75.5671 42.8867 73.334Z" fill="#FE4807"/>
</svg>
