<svg width="91" height="91" viewBox="0 0 91 91" fill="none" xmlns="http://www.w3.org/2000/svg">
<path d="M67.6499 6.43774V18.6584H84.0168" stroke="#739DB2" stroke-miterlimit="10"/>
<path d="M25.6415 62.0852V83.6895H83.6894V18.6583L67.9772 6.21948H25.6415V26.6236" stroke="#739DB2" stroke-miterlimit="10"/>
<path d="M10.3657 57.2842H9.38367V32.5156H10.2566V57.2842H10.3657Z" fill="#739DB2"/>
<path d="M32.7338 51.3921C32.7338 50.3009 32.5156 49.428 31.97 48.6642C31.4244 47.9005 30.6606 47.2458 29.6786 46.7002C28.5875 46.1547 27.0599 45.6091 24.8777 44.9544C22.6954 44.4089 21.1678 43.7542 20.0767 43.2086C18.9856 42.5539 18.2218 41.8993 17.6762 41.1355C17.1307 40.3717 16.9124 39.3897 16.9124 38.1894C16.9124 36.3345 17.6762 34.916 19.2038 33.8249C20.7314 32.7338 22.6954 32.1882 25.205 32.1882C26.8417 32.1882 28.2602 32.5156 29.4604 33.1702C30.7697 33.8249 31.7518 34.6978 32.4064 35.789C33.0611 36.8801 33.4976 38.1894 33.4976 39.6079H32.6247C32.6247 37.753 31.97 36.2254 30.5515 35.0252C29.1331 33.8249 27.3873 33.1702 25.205 33.1702C23.0227 33.1702 21.2769 33.6067 19.8585 34.5887C18.5491 35.5707 17.7853 36.771 17.7853 38.2985C17.7853 39.8261 18.3309 41.0264 19.5311 41.8993C20.7314 42.7722 22.5863 43.6451 25.3141 44.2997C28.0419 44.9544 30.006 45.8273 31.2062 46.7002C32.8429 47.9005 33.6067 49.428 33.6067 51.3921C33.6067 52.5923 33.2793 53.7925 32.5156 54.6654C31.8609 55.6475 30.7697 56.4113 29.4604 56.8477C28.151 57.2842 26.7326 57.6115 25.0959 57.6115C23.3501 57.6115 21.7134 57.2842 20.2949 56.7386C18.8765 56.193 17.7853 55.3201 17.0215 54.229C16.2578 53.1379 15.9304 51.8285 15.9304 50.3009H16.8033C16.8033 52.3741 17.5671 53.9017 19.0947 54.9928C20.6223 56.0839 22.5863 56.6295 25.0959 56.6295C27.2781 56.6295 29.0239 56.0839 30.4424 55.1019C31.97 54.229 32.7338 52.9196 32.7338 51.3921Z" fill="#739DB2"/>
<path d="M56.0839 46.8093C56.0839 48.9916 55.6475 50.8465 54.8837 52.4832C54.1199 54.1199 53.0288 55.4292 51.6103 56.3021C50.1918 57.175 48.5551 57.6115 46.7002 57.6115C43.8633 57.6115 41.681 56.6295 39.9352 54.6654C38.1894 52.7014 37.3165 49.9736 37.3165 46.5911V42.9904C37.3165 40.8081 37.753 38.9532 38.5168 37.3165C39.2806 35.6798 40.3717 34.3705 41.7901 33.4976C43.2086 32.6247 44.8453 32.1882 46.7002 32.1882C48.5551 32.1882 50.1918 32.6247 51.6103 33.4976C53.0288 34.3705 54.1199 35.6798 54.8837 37.3165C55.6475 38.9532 56.0839 40.9173 56.0839 42.9904V46.8093ZM55.211 42.9904C55.211 39.9352 54.4472 37.5348 52.9196 35.789C51.3921 33.934 49.3189 33.0611 46.7002 33.0611C44.1906 33.0611 42.1175 33.934 40.5899 35.789C39.0623 37.6439 38.2985 40.0443 38.2985 43.0995V46.7002C38.2985 48.6642 38.6259 50.4101 39.2806 51.9376C39.9352 53.4652 40.9172 54.6654 42.2266 55.4292C43.536 56.3021 44.9544 56.6295 46.7002 56.6295C49.3189 56.6295 51.3921 55.7566 52.8105 53.9017C54.3381 52.0467 55.1019 49.6463 55.1019 46.482V42.9904H55.211Z" fill="#739DB2"/>
</svg>
