<svg width="53" height="38" viewBox="0 0 53 38" fill="none" xmlns="http://www.w3.org/2000/svg">
<path d="M0.149414 21.79C0.149414 19.1208 0.352865 16.6875 0.759766 14.4902C1.18294 12.2767 1.80143 10.3236 2.61523 8.63086C3.42904 6.92188 4.45443 5.48145 5.69141 4.30957C6.92839 3.1377 8.37695 2.25065 10.0371 1.64844C11.6973 1.04622 13.5609 0.745117 15.6279 0.745117C16.5231 0.745117 17.3776 0.793945 18.1914 0.891602C19.0052 0.989258 19.7214 1.1276 20.3398 1.30664V3.55273C19.7376 3.34115 19.0378 3.17839 18.2402 3.06445C17.4427 2.93424 16.5882 2.86914 15.6768 2.86914C12.8773 2.86914 10.5254 3.52018 8.62109 4.82227C6.7168 6.10807 5.26009 8.03678 4.25098 10.6084C3.25814 13.1637 2.70475 16.3376 2.59082 20.1299H2.76172C3.23372 19.251 3.8929 18.4128 4.73926 17.6152C5.60189 16.8177 6.66797 16.1667 7.9375 15.6621C9.22331 15.1576 10.737 14.9053 12.4785 14.9053C14.627 14.9053 16.4743 15.3366 18.0205 16.1992C19.583 17.0618 20.7793 18.2988 21.6094 19.9102C22.4557 21.5215 22.8789 23.4339 22.8789 25.6475C22.8789 28.0238 22.4395 30.099 21.5605 31.873C20.6979 33.6471 19.4447 35.0306 17.8008 36.0234C16.1732 37 14.2119 37.4883 11.917 37.4883C9.96387 37.4883 8.25488 37.0895 6.79004 36.292C5.3252 35.4945 4.09635 34.3796 3.10352 32.9473C2.12695 31.515 1.38639 29.8548 0.881836 27.9668C0.393555 26.0625 0.149414 24.0036 0.149414 21.79ZM11.8926 35.3398C14.5781 35.3398 16.6615 34.5016 18.1426 32.8252C19.64 31.1325 20.3887 28.7399 20.3887 25.6475C20.3887 22.9782 19.7051 20.8704 18.3379 19.3242C16.9707 17.7617 14.9036 16.9805 12.1367 16.9805C10.2161 16.9805 8.55599 17.363 7.15625 18.1279C5.77279 18.8929 4.70671 19.8451 3.95801 20.9844C3.20931 22.1074 2.83496 23.2142 2.83496 24.3047C2.83496 25.3301 2.98145 26.4694 3.27441 27.7227C3.56738 28.9759 4.0638 30.1885 4.76367 31.3604C5.46354 32.516 6.39128 33.4681 7.54688 34.2168C8.71875 34.9655 10.1673 35.3398 11.8926 35.3398ZM42.3721 18.2988H52.9189V20.4229H42.3721V31.0674H40.248V20.4229H29.7256V18.2988H40.248V7.62988H42.3721V18.2988Z" fill="#FF4500"/>
</svg>
