<svg width="83" height="37" viewBox="0 0 83 37" fill="none" xmlns="http://www.w3.org/2000/svg">
<path d="M10.7207 14.4912C13.1296 14.4912 15.2048 14.8981 16.9463 15.7119C18.7041 16.5257 20.055 17.7139 20.999 19.2764C21.9593 20.8226 22.4395 22.7188 22.4395 24.9648C22.4395 27.3411 21.9105 29.3919 20.8525 31.1172C19.7946 32.8424 18.2972 34.1689 16.3604 35.0967C14.4398 36.0244 12.1693 36.4883 9.54883 36.4883C7.66081 36.4883 5.94368 36.3092 4.39746 35.9512C2.86751 35.5768 1.57357 35.0804 0.515625 34.4619V31.9717C1.65495 32.6553 3.014 33.2168 4.59277 33.6562C6.18783 34.0957 7.84798 34.3154 9.57324 34.3154C11.6566 34.3154 13.4714 33.9655 15.0176 33.2656C16.5638 32.5495 17.7601 31.5078 18.6064 30.1406C19.4691 28.7734 19.9004 27.097 19.9004 25.1113C19.9004 22.4583 19.0947 20.3913 17.4834 18.9102C15.8721 17.4128 13.4388 16.6641 10.1836 16.6641C8.84896 16.6641 7.57129 16.7617 6.35059 16.957C5.14616 17.1361 4.02311 17.3639 2.98145 17.6406L1.56543 16.6396L3.00586 0.306641H20.1445V2.60156H5.12988L4.03125 15.3213C4.76367 15.1423 5.68327 14.9632 6.79004 14.7842C7.91309 14.5889 9.22331 14.4912 10.7207 14.4912ZM40.7852 14.4912C43.194 14.4912 45.2692 14.8981 47.0107 15.7119C48.7686 16.5257 50.1195 17.7139 51.0635 19.2764C52.0238 20.8226 52.5039 22.7188 52.5039 24.9648C52.5039 27.3411 51.9749 29.3919 50.917 31.1172C49.859 32.8424 48.3617 34.1689 46.4248 35.0967C44.5042 36.0244 42.2337 36.4883 39.6133 36.4883C37.7253 36.4883 36.0081 36.3092 34.4619 35.9512C32.932 35.5768 31.638 35.0804 30.5801 34.4619V31.9717C31.7194 32.6553 33.0785 33.2168 34.6572 33.6562C36.2523 34.0957 37.9124 34.3154 39.6377 34.3154C41.721 34.3154 43.5358 33.9655 45.082 33.2656C46.6283 32.5495 47.8245 31.5078 48.6709 30.1406C49.5335 28.7734 49.9648 27.097 49.9648 25.1113C49.9648 22.4583 49.1592 20.3913 47.5479 18.9102C45.9365 17.4128 43.5033 16.6641 40.248 16.6641C38.9134 16.6641 37.6357 16.7617 36.415 16.957C35.2106 17.1361 34.0876 17.3639 33.0459 17.6406L31.6299 16.6396L33.0703 0.306641H50.209V2.60156H35.1943L34.0957 15.3213C34.8281 15.1423 35.7477 14.9632 36.8545 14.7842C37.9775 14.5889 39.2878 14.4912 40.7852 14.4912ZM72.4365 17.2988H82.9834V19.4229H72.4365V30.0674H70.3125V19.4229H59.79V17.2988H70.3125V6.62988H72.4365V17.2988Z" fill="#FF4500"/>
</svg>
