<svg width="101" height="38" viewBox="0 0 101 38" fill="none" xmlns="http://www.w3.org/2000/svg">
<path d="M0.149414 21.79C0.149414 19.1208 0.352865 16.6875 0.759766 14.4902C1.18294 12.2767 1.80143 10.3236 2.61523 8.63086C3.42904 6.92188 4.45443 5.48145 5.69141 4.30957C6.92839 3.1377 8.37695 2.25065 10.0371 1.64844C11.6973 1.04622 13.5609 0.745117 15.6279 0.745117C16.5231 0.745117 17.3776 0.793945 18.1914 0.891602C19.0052 0.989258 19.7214 1.1276 20.3398 1.30664V3.55273C19.7376 3.34115 19.0378 3.17839 18.2402 3.06445C17.4427 2.93424 16.5882 2.86914 15.6768 2.86914C12.8773 2.86914 10.5254 3.52018 8.62109 4.82227C6.7168 6.10807 5.26009 8.03678 4.25098 10.6084C3.25814 13.1637 2.70475 16.3376 2.59082 20.1299H2.76172C3.23372 19.251 3.8929 18.4128 4.73926 17.6152C5.60189 16.8177 6.66797 16.1667 7.9375 15.6621C9.22331 15.1576 10.737 14.9053 12.4785 14.9053C14.627 14.9053 16.4743 15.3366 18.0205 16.1992C19.583 17.0618 20.7793 18.2988 21.6094 19.9102C22.4557 21.5215 22.8789 23.4339 22.8789 25.6475C22.8789 28.0238 22.4395 30.099 21.5605 31.873C20.6979 33.6471 19.4447 35.0306 17.8008 36.0234C16.1732 37 14.2119 37.4883 11.917 37.4883C9.96387 37.4883 8.25488 37.0895 6.79004 36.292C5.3252 35.4945 4.09635 34.3796 3.10352 32.9473C2.12695 31.515 1.38639 29.8548 0.881836 27.9668C0.393555 26.0625 0.149414 24.0036 0.149414 21.79ZM11.8926 35.3398C14.5781 35.3398 16.6615 34.5016 18.1426 32.8252C19.64 31.1325 20.3887 28.7399 20.3887 25.6475C20.3887 22.9782 19.7051 20.8704 18.3379 19.3242C16.9707 17.7617 14.9036 16.9805 12.1367 16.9805C10.2161 16.9805 8.55599 17.363 7.15625 18.1279C5.77279 18.8929 4.70671 19.8451 3.95801 20.9844C3.20931 22.1074 2.83496 23.2142 2.83496 24.3047C2.83496 25.3301 2.98145 26.4694 3.27441 27.7227C3.56738 28.9759 4.0638 30.1885 4.76367 31.3604C5.46354 32.516 6.39128 33.4681 7.54688 34.2168C8.71875 34.9655 10.1673 35.3398 11.8926 35.3398ZM29.0664 24.6221V22.3516H41.1758V24.6221H29.0664ZM61.3281 37H58.9111V10.0469C58.9111 9.08659 58.9111 8.24837 58.9111 7.53223C58.9111 6.7998 58.9193 6.14876 58.9355 5.5791C58.9518 4.99316 58.9762 4.43978 59.0088 3.91895C58.5693 4.3584 58.1462 4.74089 57.7393 5.06641C57.3324 5.39193 56.8115 5.80697 56.1768 6.31152L50.9033 10.3154L49.5361 8.55762L59.2529 1.30664H61.3281V37ZM88.4629 15.4912C90.8717 15.4912 92.9469 15.8981 94.6885 16.7119C96.4463 17.5257 97.7972 18.7139 98.7412 20.2764C99.7015 21.8226 100.182 23.7188 100.182 25.9648C100.182 28.3411 99.6527 30.3919 98.5947 32.1172C97.5368 33.8424 96.0394 35.1689 94.1025 36.0967C92.182 37.0244 89.9115 37.4883 87.291 37.4883C85.403 37.4883 83.6859 37.3092 82.1396 36.9512C80.6097 36.5768 79.3158 36.0804 78.2578 35.4619V32.9717C79.3971 33.6553 80.7562 34.2168 82.335 34.6562C83.93 35.0957 85.5902 35.3154 87.3154 35.3154C89.3988 35.3154 91.2135 34.9655 92.7598 34.2656C94.306 33.5495 95.5023 32.5078 96.3486 31.1406C97.2113 29.7734 97.6426 28.097 97.6426 26.1113C97.6426 23.4583 96.8369 21.3913 95.2256 19.9102C93.6143 18.4128 91.181 17.6641 87.9258 17.6641C86.5911 17.6641 85.3135 17.7617 84.0928 17.957C82.8883 18.1361 81.7653 18.3639 80.7236 18.6406L79.3076 17.6396L80.748 1.30664H97.8867V3.60156H82.8721L81.7734 16.3213C82.5059 16.1423 83.4255 15.9632 84.5322 15.7842C85.6553 15.5889 86.9655 15.4912 88.4629 15.4912Z" fill="#FF4500"/>
</svg>
