<svg width="95" height="38" viewBox="0 0 95 38" fill="none" xmlns="http://www.w3.org/2000/svg">
<path d="M0.149414 21.79C0.149414 19.1208 0.352865 16.6875 0.759766 14.4902C1.18294 12.2767 1.80143 10.3236 2.61523 8.63086C3.42904 6.92188 4.45443 5.48145 5.69141 4.30957C6.92839 3.1377 8.37695 2.25065 10.0371 1.64844C11.6973 1.04622 13.5609 0.745117 15.6279 0.745117C16.5231 0.745117 17.3776 0.793945 18.1914 0.891602C19.0052 0.989258 19.7214 1.1276 20.3398 1.30664V3.55273C19.7376 3.34115 19.0378 3.17839 18.2402 3.06445C17.4427 2.93424 16.5882 2.86914 15.6768 2.86914C12.8773 2.86914 10.5254 3.52018 8.62109 4.82227C6.7168 6.10807 5.26009 8.03678 4.25098 10.6084C3.25814 13.1637 2.70475 16.3376 2.59082 20.1299H2.76172C3.23372 19.251 3.8929 18.4128 4.73926 17.6152C5.60189 16.8177 6.66797 16.1667 7.9375 15.6621C9.22331 15.1576 10.737 14.9053 12.4785 14.9053C14.627 14.9053 16.4743 15.3366 18.0205 16.1992C19.583 17.0618 20.7793 18.2988 21.6094 19.9102C22.4557 21.5215 22.8789 23.4339 22.8789 25.6475C22.8789 28.0238 22.4395 30.099 21.5605 31.873C20.6979 33.6471 19.4447 35.0306 17.8008 36.0234C16.1732 37 14.2119 37.4883 11.917 37.4883C9.96387 37.4883 8.25488 37.0895 6.79004 36.292C5.3252 35.4945 4.09635 34.3796 3.10352 32.9473C2.12695 31.515 1.38639 29.8548 0.881836 27.9668C0.393555 26.0625 0.149414 24.0036 0.149414 21.79ZM11.8926 35.3398C14.5781 35.3398 16.6615 34.5016 18.1426 32.8252C19.64 31.1325 20.3887 28.7399 20.3887 25.6475C20.3887 22.9782 19.7051 20.8704 18.3379 19.3242C16.9707 17.7617 14.9036 16.9805 12.1367 16.9805C10.2161 16.9805 8.55599 17.363 7.15625 18.1279C5.77279 18.8929 4.70671 19.8451 3.95801 20.9844C3.20931 22.1074 2.83496 23.2142 2.83496 24.3047C2.83496 25.3301 2.98145 26.4694 3.27441 27.7227C3.56738 28.9759 4.0638 30.1885 4.76367 31.3604C5.46354 32.516 6.39128 33.4681 7.54688 34.2168C8.71875 34.9655 10.1673 35.3398 11.8926 35.3398ZM40.7852 15.4912C43.194 15.4912 45.2692 15.8981 47.0107 16.7119C48.7686 17.5257 50.1195 18.7139 51.0635 20.2764C52.0238 21.8226 52.5039 23.7188 52.5039 25.9648C52.5039 28.3411 51.9749 30.3919 50.917 32.1172C49.859 33.8424 48.3617 35.1689 46.4248 36.0967C44.5042 37.0244 42.2337 37.4883 39.6133 37.4883C37.7253 37.4883 36.0081 37.3092 34.4619 36.9512C32.932 36.5768 31.638 36.0804 30.5801 35.4619V32.9717C31.7194 33.6553 33.0785 34.2168 34.6572 34.6562C36.2523 35.0957 37.9124 35.3154 39.6377 35.3154C41.721 35.3154 43.5358 34.9655 45.082 34.2656C46.6283 33.5495 47.8245 32.5078 48.6709 31.1406C49.5335 29.7734 49.9648 28.097 49.9648 26.1113C49.9648 23.4583 49.1592 21.3913 47.5479 19.9102C45.9365 18.4128 43.5033 17.6641 40.248 17.6641C38.9134 17.6641 37.6357 17.7617 36.415 17.957C35.2106 18.1361 34.0876 18.3639 33.0459 18.6406L31.6299 17.6396L33.0703 1.30664H50.209V3.60156H35.1943L34.0957 16.3213C34.8281 16.1423 35.7477 15.9632 36.8545 15.7842C37.9775 15.5889 39.2878 15.4912 40.7852 15.4912ZM66.9189 0.793945C69.2952 0.793945 71.0693 1.75423 72.2412 3.6748C73.4131 5.59538 73.999 8.35417 73.999 11.9512C73.999 15.6296 73.3887 18.429 72.168 20.3496C70.9473 22.2539 69.1813 23.2061 66.8701 23.2061C64.6077 23.2061 62.8743 22.2376 61.6699 20.3008C60.4818 18.3639 59.8877 15.5807 59.8877 11.9512C59.8877 8.32161 60.4899 5.55469 61.6943 3.65039C62.915 1.74609 64.6566 0.793945 66.9189 0.793945ZM66.9189 2.74707C65.3564 2.74707 64.1602 3.51204 63.3301 5.04199C62.5163 6.57194 62.1094 8.875 62.1094 11.9512C62.1094 15.0111 62.5081 17.3304 63.3057 18.9092C64.1195 20.4717 65.3076 21.2529 66.8701 21.2529C68.514 21.2529 69.7428 20.4635 70.5566 18.8848C71.3867 17.2897 71.8018 14.9785 71.8018 11.9512C71.8018 8.9401 71.4111 6.65332 70.6299 5.09082C69.8486 3.52832 68.6117 2.74707 66.9189 2.74707ZM88.3789 1.30664L68.5791 37H66.2598L86.0596 1.30664H88.3789ZM87.6709 15.1006C90.0146 15.1006 91.7725 16.0609 92.9443 17.9814C94.1325 19.902 94.7266 22.6608 94.7266 26.2578C94.7266 29.9362 94.1162 32.7275 92.8955 34.6318C91.6748 36.5361 89.9089 37.4883 87.5977 37.4883C85.3353 37.4883 83.6019 36.528 82.3975 34.6074C81.2093 32.6706 80.6152 29.8874 80.6152 26.2578C80.6152 22.6283 81.2174 19.8613 82.4219 17.957C83.6426 16.0527 85.3923 15.1006 87.6709 15.1006ZM87.6709 17.0537C86.0921 17.0537 84.8877 17.8187 84.0576 19.3486C83.2438 20.8623 82.8369 23.1654 82.8369 26.2578C82.8369 29.3177 83.2357 31.6289 84.0332 33.1914C84.847 34.7539 86.0352 35.5352 87.5977 35.5352C89.2415 35.5352 90.4704 34.7539 91.2842 33.1914C92.1143 31.6126 92.5293 29.3014 92.5293 26.2578C92.5293 23.2467 92.1387 20.96 91.3574 19.3975C90.5762 17.835 89.3473 17.0537 87.6709 17.0537Z" fill="#FF4500"/>
</svg>
