<svg width="84" height="37" viewBox="0 0 84 37" fill="none" xmlns="http://www.w3.org/2000/svg">
<path d="M23.0977 37H0.758789V34.9004L11.2568 23.9629C12.9333 22.2214 14.3411 20.6507 15.4805 19.251C16.6361 17.835 17.5068 16.4189 18.0928 15.0029C18.695 13.5869 18.9961 12 18.9961 10.2422C18.9961 7.94727 18.3206 6.16504 16.9697 4.89551C15.6351 3.62598 13.8203 2.99121 11.5254 2.99121C9.97917 2.99121 8.48991 3.2679 7.05762 3.82129C5.6416 4.37467 4.25814 5.18848 2.90723 6.2627L1.54004 4.5293C2.53288 3.71549 3.57454 3.0319 4.66504 2.47852C5.77181 1.92513 6.90299 1.51009 8.05859 1.2334C9.21419 0.94043 10.3698 0.793945 11.5254 0.793945C13.5599 0.793945 15.3177 1.18457 16.7988 1.96582C18.2962 2.73079 19.46 3.81315 20.29 5.21289C21.1201 6.61263 21.5352 8.25651 21.5352 10.1445C21.5352 12.0977 21.1934 13.8717 20.5098 15.4668C19.8424 17.0456 18.8903 18.5918 17.6533 20.1055C16.4163 21.6191 14.9515 23.2467 13.2588 24.9883L3.95703 34.6074V34.7051H23.0977V37ZM55.9209 27.8936H49.7686V37H47.3516V27.8936H29.2363V25.9404L47.1807 1.11133H49.7686V25.623H55.9209V27.8936ZM47.3516 25.623V11.9023C47.3516 10.8932 47.3516 10.0225 47.3516 9.29004C47.3678 8.55762 47.3841 7.89844 47.4004 7.3125C47.4167 6.71029 47.4329 6.13249 47.4492 5.5791C47.4655 5.02572 47.4818 4.45605 47.498 3.87012H47.3516C46.8958 4.65137 46.4645 5.37565 46.0576 6.04297C45.667 6.69401 45.1624 7.43457 44.5439 8.26465L31.9463 25.623H47.3516ZM73.4365 18.2988H83.9834V20.4229H73.4365V31.0674H71.3125V20.4229H60.79V18.2988H71.3125V7.62988H73.4365V18.2988Z" fill="#FF4500"/>
</svg>
