<svg width="124" height="38" viewBox="0 0 124 38" fill="none" xmlns="http://www.w3.org/2000/svg">
<path d="M12.6504 37H10.2334V10.0469C10.2334 9.08659 10.2334 8.24837 10.2334 7.53223C10.2334 6.7998 10.2415 6.14876 10.2578 5.5791C10.2741 4.99316 10.2985 4.43978 10.3311 3.91895C9.8916 4.3584 9.46842 4.74089 9.06152 5.06641C8.65462 5.39193 8.13379 5.80697 7.49902 6.31152L2.22559 10.3154L0.858398 8.55762L10.5752 1.30664H12.6504V37ZM51.6992 19.0557C51.6992 22.0342 51.4714 24.6709 51.0156 26.9658C50.5599 29.2607 49.8682 31.1895 48.9404 32.752C48.0127 34.3145 46.8327 35.4945 45.4004 36.292C43.9681 37.0895 42.2754 37.4883 40.3223 37.4883C37.8483 37.4883 35.765 36.7965 34.0723 35.4131C32.3796 34.0296 31.0938 31.9707 30.2148 29.2363C29.3522 26.502 28.9209 23.1084 28.9209 19.0557C28.9209 15.4424 29.2871 12.2604 30.0195 9.50977C30.7682 6.75911 31.9808 4.61068 33.6572 3.06445C35.3337 1.51823 37.5635 0.745117 40.3467 0.745117C43.1136 0.745117 45.3271 1.50195 46.9873 3.01562C48.6637 4.5293 49.8682 6.66146 50.6006 9.41211C51.333 12.1465 51.6992 15.361 51.6992 19.0557ZM31.4111 19.0557C31.4111 22.7178 31.7285 25.7533 32.3633 28.1621C32.998 30.5547 33.9746 32.3451 35.293 33.5332C36.6113 34.7214 38.2878 35.3154 40.3223 35.3154C42.4219 35.3154 44.1227 34.7214 45.4248 33.5332C46.7269 32.3451 47.679 30.5465 48.2812 28.1377C48.8997 25.7288 49.209 22.7015 49.209 19.0557C49.209 15.7028 48.9404 12.8219 48.4033 10.4131C47.8825 8.00423 46.9792 6.1569 45.6934 4.87109C44.4076 3.58529 42.6253 2.94238 40.3467 2.94238C38.1169 2.94238 36.3509 3.60156 35.0488 4.91992C33.7467 6.23828 32.8109 8.10189 32.2412 10.5107C31.6878 12.9196 31.4111 15.7679 31.4111 19.0557ZM81.7637 19.0557C81.7637 22.0342 81.5358 24.6709 81.0801 26.9658C80.6243 29.2607 79.9326 31.1895 79.0049 32.752C78.0771 34.3145 76.8971 35.4945 75.4648 36.292C74.0326 37.0895 72.3398 37.4883 70.3867 37.4883C67.9128 37.4883 65.8294 36.7965 64.1367 35.4131C62.444 34.0296 61.1582 31.9707 60.2793 29.2363C59.4167 26.502 58.9854 23.1084 58.9854 19.0557C58.9854 15.4424 59.3516 12.2604 60.084 9.50977C60.8327 6.75911 62.0452 4.61068 63.7217 3.06445C65.3981 1.51823 67.6279 0.745117 70.4111 0.745117C73.1781 0.745117 75.3916 1.50195 77.0518 3.01562C78.7282 4.5293 79.9326 6.66146 80.665 9.41211C81.3975 12.1465 81.7637 15.361 81.7637 19.0557ZM61.4756 19.0557C61.4756 22.7178 61.793 25.7533 62.4277 28.1621C63.0625 30.5547 64.0391 32.3451 65.3574 33.5332C66.6758 34.7214 68.3522 35.3154 70.3867 35.3154C72.4863 35.3154 74.1872 34.7214 75.4893 33.5332C76.7913 32.3451 77.7435 30.5465 78.3457 28.1377C78.9642 25.7288 79.2734 22.7015 79.2734 19.0557C79.2734 15.7028 79.0049 12.8219 78.4678 10.4131C77.9469 8.00423 77.0436 6.1569 75.7578 4.87109C74.472 3.58529 72.6898 2.94238 70.4111 2.94238C68.1813 2.94238 66.4154 3.60156 65.1133 4.91992C63.8112 6.23828 62.8753 8.10189 62.3057 10.5107C61.7523 12.9196 61.4756 15.7679 61.4756 19.0557ZM95.9834 0.793945C98.3597 0.793945 100.134 1.75423 101.306 3.6748C102.478 5.59538 103.063 8.35417 103.063 11.9512C103.063 15.6296 102.453 18.429 101.232 20.3496C100.012 22.2539 98.2458 23.2061 95.9346 23.2061C93.6722 23.2061 91.9388 22.2376 90.7344 20.3008C89.5462 18.3639 88.9521 15.5807 88.9521 11.9512C88.9521 8.32161 89.5544 5.55469 90.7588 3.65039C91.9795 1.74609 93.721 0.793945 95.9834 0.793945ZM95.9834 2.74707C94.4209 2.74707 93.2246 3.51204 92.3945 5.04199C91.5807 6.57194 91.1738 8.875 91.1738 11.9512C91.1738 15.0111 91.5726 17.3304 92.3701 18.9092C93.1839 20.4717 94.3721 21.2529 95.9346 21.2529C97.5785 21.2529 98.8073 20.4635 99.6211 18.8848C100.451 17.2897 100.866 14.9785 100.866 11.9512C100.866 8.9401 100.476 6.65332 99.6943 5.09082C98.9131 3.52832 97.6761 2.74707 95.9834 2.74707ZM117.443 1.30664L97.6436 37H95.3242L115.124 1.30664H117.443ZM116.735 15.1006C119.079 15.1006 120.837 16.0609 122.009 17.9814C123.197 19.902 123.791 22.6608 123.791 26.2578C123.791 29.9362 123.181 32.7275 121.96 34.6318C120.739 36.5361 118.973 37.4883 116.662 37.4883C114.4 37.4883 112.666 36.528 111.462 34.6074C110.274 32.6706 109.68 29.8874 109.68 26.2578C109.68 22.6283 110.282 19.8613 111.486 17.957C112.707 16.0527 114.457 15.1006 116.735 15.1006ZM116.735 17.0537C115.157 17.0537 113.952 17.8187 113.122 19.3486C112.308 20.8623 111.901 23.1654 111.901 26.2578C111.901 29.3177 112.3 31.6289 113.098 33.1914C113.911 34.7539 115.1 35.5352 116.662 35.5352C118.306 35.5352 119.535 34.7539 120.349 33.1914C121.179 31.6126 121.594 29.3014 121.594 26.2578C121.594 23.2467 121.203 20.96 120.422 19.3975C119.641 17.835 118.412 17.0537 116.735 17.0537Z" fill="#FF4500"/>
</svg>
