<svg width="44" height="48" viewBox="0 0 44 48" fill="none" xmlns="http://www.w3.org/2000/svg">
<path d="M10.8069 26.4048C10.4886 26.4048 10.1834 26.5312 9.95838 26.7563C9.73333 26.9813 9.6069 27.2865 9.6069 27.6048V34.8048C9.6069 35.123 9.73333 35.4283 9.95838 35.6533C10.1834 35.8784 10.4886 36.0048 10.8069 36.0048C11.1252 36.0048 11.4304 35.8784 11.6554 35.6533C11.8805 35.4283 12.0069 35.123 12.0069 34.8048V33.6048H13.1997C14.1545 33.6048 15.0702 33.2255 15.7453 32.5504C16.4204 31.8752 16.7997 30.9596 16.7997 30.0048C16.7997 29.05 16.4204 28.1343 15.7453 27.4592C15.0702 26.7841 14.1545 26.4048 13.1997 26.4048H10.8069ZM13.1997 31.2048H12.0069V28.8048H13.1997C13.518 28.8048 13.8232 28.9312 14.0482 29.1563C14.2733 29.3813 14.3997 29.6865 14.3997 30.0048C14.3997 30.323 14.2733 30.6283 14.0482 30.8533C13.8232 31.0784 13.518 31.2048 13.1997 31.2048Z" fill="#FF4500"/>
<path d="M28.795 27.6024C28.7957 27.2845 28.9224 26.9799 29.1474 26.7554C29.3723 26.5309 29.6772 26.4048 29.995 26.4048H33.607C33.9253 26.4048 34.2305 26.5312 34.4556 26.7563C34.6806 26.9813 34.807 27.2865 34.807 27.6048C34.807 27.923 34.6806 28.2283 34.4556 28.4533C34.2305 28.6784 33.9253 28.8048 33.607 28.8048H31.1926L31.1902 31.2096H33.607C33.9253 31.2096 34.2305 31.336 34.4556 31.5611C34.6806 31.7861 34.807 32.0913 34.807 32.4096C34.807 32.7278 34.6806 33.0331 34.4556 33.2581C34.2305 33.4832 33.9253 33.6096 33.607 33.6096H31.1902L31.195 34.8024C31.1954 34.96 31.1646 35.1161 31.1046 35.2618C31.0446 35.4075 30.9565 35.54 30.8453 35.6516C30.6207 35.8771 30.3157 36.0042 29.9974 36.0048C29.6792 36.0054 29.3737 35.8796 29.1482 35.655C28.9227 35.4304 28.7957 35.1254 28.795 34.8072L28.7878 32.412V32.4072L28.795 27.6024Z" fill="#FF4500"/>
<path d="M20.4003 26.4048C20.082 26.4048 19.7768 26.5312 19.5517 26.7563C19.3267 26.9813 19.2003 27.2865 19.2003 27.6048V34.8048C19.2003 35.123 19.3267 35.4283 19.5517 35.6533C19.7768 35.8784 20.082 36.0048 20.4003 36.0048H21.5955C22.8685 36.0048 24.0894 35.4991 24.9896 34.5989C25.8897 33.6987 26.3955 32.4778 26.3955 31.2048C26.3955 29.9317 25.8897 28.7108 24.9896 27.8107C24.0894 26.9105 22.8685 26.4048 21.5955 26.4048H20.4003ZM21.6003 33.6048V28.8048C22.2368 28.8048 22.8472 29.0576 23.2973 29.5077C23.7474 29.9578 24.0003 30.5683 24.0003 31.2048C24.0003 31.8413 23.7474 32.4518 23.2973 32.9018C22.8472 33.3519 22.2368 33.6048 21.6003 33.6048Z" fill="#FF4500"/>
<path d="M40.8 43.2V40.4064C42.2184 39.732 43.2 38.2848 43.2 36.6096V25.8C43.2 24.1248 42.2184 22.68 40.8 22.0032V18.7872C40.7997 17.5143 40.2938 16.2936 39.3936 15.3936L25.404 1.4064C25.3669 1.37191 25.3276 1.33984 25.2864 1.3104C25.2567 1.28748 25.2279 1.26346 25.2 1.2384C25.0349 1.08257 24.8593 0.938232 24.6744 0.8064C24.6129 0.766757 24.5488 0.73147 24.4824 0.7008L24.3672 0.6432L24.2472 0.5736C24.1176 0.4992 23.9856 0.4224 23.8488 0.3648C23.3709 0.173912 22.8651 0.0620506 22.3512 0.0335999C22.3032 0.0311999 22.2552 0.0239999 22.2096 0.0167999C22.1445 0.00673946 22.0787 0.00112655 22.0128 0H7.2C5.92696 0 4.70606 0.505713 3.80589 1.40589C2.90571 2.30606 2.4 3.52696 2.4 4.8V22.0032C0.9816 22.6776 0 24.1248 0 25.8V36.6096C0 38.2848 0.9816 39.7296 2.4 40.4064V43.2C2.4 44.473 2.90571 45.6939 3.80589 46.5941C4.70606 47.4943 5.92696 48 7.2 48H36C37.273 48 38.4939 47.4943 39.3941 46.5941C40.2943 45.6939 40.8 44.473 40.8 43.2ZM36 44.4H7.2C6.88174 44.4 6.57652 44.2736 6.35147 44.0485C6.12643 43.8235 6 43.5183 6 43.2V40.8096H37.2V43.2C37.2 43.5183 37.0736 43.8235 36.8485 44.0485C36.6235 44.2736 36.3183 44.4 36 44.4ZM37.2 19.2V21.6H6V4.8C6 4.48174 6.12643 4.17652 6.35147 3.95147C6.57652 3.72643 6.88174 3.6 7.2 3.6H21.6V14.4C21.6 15.673 22.1057 16.8939 23.0059 17.7941C23.9061 18.6943 25.127 19.2 26.4 19.2H37.2ZM34.5072 15.6H26.4C26.0817 15.6 25.7765 15.4736 25.5515 15.2485C25.3264 15.0235 25.2 14.7183 25.2 14.4V6.2904L34.5072 15.6ZM4.2 25.2H39C39.1591 25.2 39.3117 25.2632 39.4243 25.3757C39.5368 25.4883 39.6 25.6409 39.6 25.8V36.6096C39.6 36.7687 39.5368 36.9213 39.4243 37.0339C39.3117 37.1464 39.1591 37.2096 39 37.2096H4.2C4.04087 37.2096 3.88826 37.1464 3.77574 37.0339C3.66321 36.9213 3.6 36.7687 3.6 36.6096V25.8C3.6 25.6409 3.66321 25.4883 3.77574 25.3757C3.88826 25.2632 4.04087 25.2 4.2 25.2Z" fill="#6A6868"/>
</svg>
