<svg width="22" height="24" viewBox="0 0 22 24" fill="none" xmlns="http://www.w3.org/2000/svg">
<path fill-rule="evenodd" clip-rule="evenodd" d="M21.7093 2.70804C21.8022 2.61507 21.876 2.50469 21.9263 2.38321C21.9766 2.26173 22.0025 2.13153 22.0025 2.00004C22.0025 1.86855 21.9766 1.73835 21.9263 1.61688C21.876 1.4954 21.8022 1.38502 21.7093 1.29204C21.6163 1.19907 21.5059 1.12531 21.3844 1.075C21.263 1.02468 21.1327 0.998779 21.0013 0.998779C20.8698 0.998779 20.7396 1.02468 20.6181 1.075C20.4966 1.12531 20.3862 1.19907 20.2933 1.29204L11.0013 10.586L1.70926 1.29204C1.61629 1.19907 1.50591 1.12531 1.38443 1.075C1.26295 1.02468 1.13275 0.998779 1.00126 0.998779C0.869775 0.998779 0.739575 1.02468 0.618096 1.075C0.496617 1.12531 0.386239 1.19907 0.293263 1.29204C0.200287 1.38502 0.126535 1.4954 0.0762167 1.61688C0.0258985 1.73835 -9.7966e-10 1.86855 0 2.00004C9.7966e-10 2.13153 0.0258985 2.26173 0.0762167 2.38321C0.126535 2.50469 0.200287 2.61507 0.293263 2.70804L9.58726 12L0.293263 21.292C0.10549 21.4798 0 21.7345 0 22C0 22.2656 0.10549 22.5203 0.293263 22.708C0.481036 22.8958 0.735712 23.0013 1.00126 23.0013C1.26681 23.0013 1.52149 22.8958 1.70926 22.708L11.0013 13.414L20.2933 22.708C20.481 22.8958 20.7357 23.0013 21.0013 23.0013C21.2668 23.0013 21.5215 22.8958 21.7093 22.708C21.897 22.5203 22.0025 22.2656 22.0025 22C22.0025 21.7345 21.897 21.4798 21.7093 21.292L12.4153 12L21.7093 2.70804Z" fill="#6A6868"/>
</svg>
