<svg width="10" height="14" viewBox="0 0 10 14" fill="none" xmlns="http://www.w3.org/2000/svg">
<path fill-rule="evenodd" clip-rule="evenodd" d="M5.00063 0C5.13324 0 5.26042 0.0526784 5.35419 0.146447C5.44795 0.240215 5.50063 0.367392 5.50063 0.5V12.293L8.64663 9.146C8.74052 9.05211 8.86786 8.99937 9.00063 8.99937C9.13341 8.99937 9.26075 9.05211 9.35463 9.146C9.44852 9.23989 9.50126 9.36722 9.50126 9.5C9.50126 9.63278 9.44852 9.76011 9.35463 9.854L5.35463 13.854C5.30819 13.9006 5.25301 13.9375 5.19226 13.9627C5.13152 13.9879 5.0664 14.0009 5.00063 14.0009C4.93486 14.0009 4.86974 13.9879 4.809 13.9627C4.74825 13.9375 4.69308 13.9006 4.64663 13.854L0.646631 9.854C0.552745 9.76011 0.5 9.63278 0.5 9.5C0.5 9.36722 0.552745 9.23989 0.646631 9.146C0.740518 9.05211 0.867856 8.99937 1.00063 8.99937C1.13341 8.99937 1.26075 9.05211 1.35463 9.146L4.50063 12.293V0.5C4.50063 0.367392 4.55331 0.240215 4.64708 0.146447C4.74085 0.0526784 4.86802 0 5.00063 0Z" fill="#FF4500"/>
</svg>
