<svg width="48" height="48" viewBox="0 0 48 48" fill="none" xmlns="http://www.w3.org/2000/svg">
<path d="M43.9467 39.1485H4.05347C3.32277 39.1477 2.62224 38.857 2.10556 38.3403C1.58887 37.8236 1.29822 37.1231 1.29736 36.3924V10.8687C1.29822 10.1381 1.58889 9.43764 2.1056 8.92106C2.6223 8.40447 3.32283 8.11397 4.05347 8.11328H43.9454C44.6762 8.11362 45.3771 8.40398 45.8941 8.9206C46.4111 9.43722 46.7019 10.1379 46.7028 10.8687V36.3924C46.7019 37.1231 46.4113 37.8236 45.8946 38.3403C45.3779 38.857 44.6774 39.1477 43.9467 39.1485ZM4.05347 9.41058C3.66679 9.41092 3.29603 9.56464 3.02254 9.838C2.74906 10.1114 2.59518 10.4821 2.59466 10.8687V36.3924C2.59518 36.7792 2.74904 37.1499 3.02251 37.4234C3.29597 37.6969 3.66673 37.8507 4.05347 37.8512H43.9454C44.3323 37.8511 44.7034 37.6973 44.9772 37.4238C45.2509 37.1503 45.405 36.7794 45.4055 36.3924V10.8687C45.405 10.4821 45.2511 10.1114 44.9776 9.838C44.7041 9.56464 44.3334 9.41092 43.9467 9.41058H4.05347Z" fill="white" fill-opacity="0.5"/>
<path d="M24 25.3828C23.3524 25.3841 22.722 25.1746 22.2039 24.7861L2.28974 9.79452C2.15211 9.6913 2.06112 9.53764 2.0368 9.36734C2.01247 9.19703 2.05679 9.02404 2.16001 8.88641C2.26323 8.74879 2.41689 8.6578 2.58719 8.63348C2.7575 8.60915 2.93049 8.65347 3.06811 8.75669L22.9816 23.7489C23.2749 23.9681 23.6313 24.0865 23.9974 24.0865C24.3636 24.0865 24.7199 23.9681 25.0132 23.7489L44.9299 8.75669C44.9981 8.70558 45.0756 8.66839 45.1582 8.64725C45.2407 8.62611 45.3265 8.62143 45.4109 8.63348C45.4952 8.64552 45.5763 8.67406 45.6496 8.71746C45.7229 8.76086 45.7869 8.81827 45.8381 8.88641C45.8892 8.95456 45.9264 9.0321 45.9475 9.11462C45.9686 9.19714 45.9733 9.28301 45.9613 9.36734C45.9492 9.45166 45.9207 9.53279 45.8773 9.60609C45.8339 9.67938 45.7765 9.74341 45.7083 9.79452L25.7948 24.7867C25.277 25.1748 24.6471 25.384 24 25.3828Z" fill="white" fill-opacity="0.5"/>
<path d="M2.38952 38.3303C2.25663 38.3304 2.12692 38.2896 2.01795 38.2136C1.90897 38.1375 1.82597 38.0299 1.78019 37.9051C1.73441 37.7804 1.72805 37.6446 1.76197 37.5161C1.79588 37.3876 1.86845 37.2726 1.96984 37.1867L19.8596 22.0298C19.9908 21.9185 20.1609 21.864 20.3324 21.8782C20.5038 21.8924 20.6626 21.9741 20.7738 22.1053C20.8851 22.2366 20.9396 22.4066 20.9254 22.5781C20.9112 22.7496 20.8295 22.9084 20.6983 23.0196L2.80854 38.1766C2.69166 38.2761 2.54305 38.3306 2.38952 38.3303Z" fill="white" fill-opacity="0.5"/>
<path d="M45.6104 38.3303C45.4568 38.3306 45.3082 38.2761 45.1913 38.1765L27.3016 23.0196C27.2366 22.9645 27.1831 22.8972 27.1441 22.8214C27.1052 22.7457 27.0815 22.663 27.0745 22.5781C27.0675 22.4932 27.0772 22.4078 27.1032 22.3266C27.1292 22.2455 27.171 22.1703 27.226 22.1053C27.2811 22.0403 27.3484 21.9868 27.4242 21.9478C27.4999 21.9089 27.5826 21.8852 27.6675 21.8782C27.7524 21.8712 27.8379 21.8809 27.919 21.9069C28.0001 21.9329 28.0753 21.9747 28.1403 22.0298L46.03 37.1867C46.1314 37.2726 46.204 37.3876 46.2379 37.5161C46.2718 37.6445 46.2655 37.7804 46.2197 37.9051C46.1739 38.0299 46.0909 38.1375 45.9819 38.2136C45.873 38.2896 45.7433 38.3304 45.6104 38.3303Z" fill="white" fill-opacity="0.5"/>
</svg>
