<svg width="35" height="34" viewBox="0 0 35 34" fill="none" xmlns="http://www.w3.org/2000/svg">
<g clip-path="url(#clip0_7776_4)">
<path d="M20.6643 10.1548H22.3989V7.13379C22.0996 7.09262 21.0704 7 19.8719 7C17.371 7 15.6578 8.57304 15.6578 11.4642V14.125H12.8981V17.5022H15.6578V26H19.0414V17.503H21.6895L22.1099 14.1258H19.0406V11.7991C19.0414 10.823 19.3042 10.1548 20.6643 10.1548Z" fill="white"/>
</g>
<path d="M34.5 17C34.5 26.0991 26.9026 33.5 17.5 33.5C8.0974 33.5 0.5 26.0991 0.5 17C0.5 7.90087 8.0974 0.5 17.5 0.5C26.9026 0.5 34.5 7.90087 34.5 17Z" stroke="white"/>
<defs>
<clipPath id="clip0_7776_4">
<rect width="19" height="19" fill="white" transform="translate(8 7)"/>
</clipPath>
</defs>
</svg>
