<svg width="22" height="30" viewBox="0 0 22 30" fill="none" xmlns="http://www.w3.org/2000/svg">
<path d="M0.230452 3.31638C0.527368 2.20827 1.22106 1.33943 2.31152 0.709844C3.4649 0.0439409 4.69074 -0.11507 5.98905 0.232809C7.28735 0.580688 8.26946 1.33132 8.93536 2.48469L20.2462 20.8044C20.7955 21.7315 21.0502 22.6994 21.0104 23.708C20.9706 24.7166 20.6546 25.6645 20.0623 26.5517C19.4701 27.4388 18.658 28.1873 17.626 28.7971C17.2739 28.9864 16.8984 29.1472 16.4996 29.2797C16.1007 29.4121 15.6964 29.4987 15.2866 29.5396C14.8768 29.5805 14.4552 29.5827 14.0217 29.5464C13.5883 29.51 13.1649 29.4364 12.7514 29.3256C11.0072 28.8228 9.70299 27.8352 8.83894 26.3629L0.269091 12.5001C0.143587 12.307 0.105504 12.1018 0.154844 11.8845C0.204185 11.6673 0.324333 11.5001 0.515283 11.3829C0.706233 11.2656 0.914454 11.2328 1.13994 11.2843C1.36544 11.3359 1.54093 11.4583 1.66644 11.6514L10.2363 25.5141C10.8945 26.63 11.883 27.3735 13.2017 27.7445C14.5203 28.1156 15.7166 27.9841 16.7906 27.3501C17.4782 26.9671 18.049 26.4908 18.5029 25.9211C18.9569 25.3514 19.234 24.6812 19.3342 23.9103C19.4344 23.1395 19.2726 22.3871 18.8489 21.6531L7.53801 3.33339C7.09004 2.55749 6.43604 2.05431 5.57602 1.82387C4.716 1.59343 3.89803 1.70219 3.12212 2.15016C2.76562 2.35599 2.47277 2.60545 2.24356 2.89856C2.01434 3.19167 1.86753 3.52459 1.80311 3.89731C1.6412 4.63388 1.79855 5.40282 2.27517 6.20414L11.2942 20.7722C11.3547 20.877 11.4205 20.9789 11.4915 21.0777C11.5625 21.1765 11.649 21.2838 11.7509 21.3998C11.8528 21.5157 11.9673 21.6173 12.0946 21.7046C12.2219 21.7919 12.3536 21.8626 12.4898 21.9168C12.6259 21.971 12.7773 21.985 12.9439 21.9587C13.1104 21.9325 13.2776 21.8709 13.4454 21.774C13.8604 21.5484 14.0912 21.2823 14.1379 20.9758C14.189 20.6527 14.0776 20.2417 13.8035 19.7428L7.01035 8.77581C6.93771 8.64999 6.89844 8.51538 6.89255 8.37199C6.88665 8.2286 6.91908 8.09105 6.98982 7.95933C7.06057 7.82761 7.15885 7.72543 7.28468 7.65279C7.47784 7.52728 7.68193 7.49334 7.89693 7.55095C8.11194 7.60856 8.2822 7.73395 8.4077 7.92711L15.2257 18.9008C15.7055 19.7561 15.8855 20.54 15.7655 21.2524C15.6189 22.064 15.1263 22.7119 14.2874 23.1962C13.5071 23.6607 12.7134 23.745 11.9064 23.4489C11.0994 23.1529 10.4296 22.5436 9.89683 21.6209L0.853011 7.04619C0.175001 5.87184 -0.0441916 4.70521 0.195433 3.5463C0.204296 3.51322 0.210133 3.4749 0.212941 3.43134C0.21575 3.38778 0.221589 3.34945 0.230452 3.31638Z" fill="#F0F0F0"/>
</svg>
