<svg width="35" height="34" viewBox="0 0 35 34" fill="none" xmlns="http://www.w3.org/2000/svg">
<path d="M34.5 17C34.5 26.0991 26.9026 33.5 17.5 33.5C8.0974 33.5 0.5 26.0991 0.5 17C0.5 7.90087 8.0974 0.5 17.5 0.5C26.9026 0.5 34.5 7.90087 34.5 17Z" stroke="white"/>
<path d="M13.0296 25H9.29765V12.9824H13.0296V25ZM11.1614 11.3431C9.96818 11.3431 9 10.3544 9 9.16129C9 8.58808 9.22771 8.03835 9.63305 7.63303C10.0384 7.22771 10.5881 7 11.1614 7C11.7346 7 12.2843 7.22771 12.6897 7.63303C13.095 8.03835 13.3227 8.58808 13.3227 9.16129C13.3227 10.3544 12.3545 11.3431 11.1614 11.3431ZM26.9968 25H23.2732V19.15C23.2732 17.7556 23.2449 15.9679 21.333 15.9679C19.3928 15.9679 19.0951 17.4824 19.0951 19.0497V25H15.3671V12.9824H18.946V14.6217H18.9981C19.4963 13.6774 20.7133 12.6809 22.5288 12.6809C26.3057 12.6809 27 15.1681 27 18.3985V25H26.9968Z" fill="white"/>
</svg>
