<svg width="64" height="112" viewBox="0 0 64 112" fill="none" xmlns="http://www.w3.org/2000/svg">
<path d="M19.7275 76.4805V71.793C19.7275 66.4219 20.7041 61.9541 22.6572 58.3896C24.6104 54.8252 28.0283 51.1387 32.9111 47.3301C38.7217 42.7402 42.457 39.1758 44.1172 36.6367C45.8262 34.0977 46.6807 31.0703 46.6807 27.5547C46.6807 23.4531 45.3135 20.3037 42.5791 18.1064C39.8447 15.9092 35.9141 14.8105 30.7871 14.8105C26.1484 14.8105 21.8516 15.4697 17.8965 16.7881C13.9414 18.1064 10.084 19.6934 6.32422 21.5488L0.171875 8.6582C10.084 3.14063 20.7041 0.381836 32.0322 0.381836C41.6025 0.381836 49.1953 2.72559 54.8105 7.41309C60.4258 12.1006 63.2334 18.5703 63.2334 26.8223C63.2334 30.4844 62.6963 33.7559 61.6221 36.6367C60.5479 39.4688 58.9121 42.1787 56.7148 44.7666C54.5664 47.3545 50.8311 50.7236 45.5088 54.874C40.9678 58.4385 37.916 61.3926 36.3535 63.7363C34.8398 66.0801 34.083 69.2295 34.083 73.1846V76.4805H19.7275ZM16.7246 99.8447C16.7246 92.4717 20.3135 88.7852 27.4912 88.7852C31.0068 88.7852 33.6924 89.7617 35.5479 91.7148C37.4033 93.6191 38.3311 96.3291 38.3311 99.8447C38.3311 103.312 37.3789 106.07 35.4746 108.121C33.6191 110.123 30.958 111.124 27.4912 111.124C24.0244 111.124 21.3633 110.147 19.5078 108.194C17.6523 106.192 16.7246 103.409 16.7246 99.8447Z" fill="#4E4E4E"/>
</svg>
