<svg width="123" height="215" viewBox="0 0 123 215" fill="none" xmlns="http://www.w3.org/2000/svg">
<path d="M38.0732 147.129V138.066C38.0732 127.682 39.9613 119.045 43.7373 112.153C47.5133 105.262 54.1214 98.1348 63.5615 90.7715C74.7952 81.8978 82.0169 75.0065 85.2266 70.0977C88.5306 65.1888 90.1826 59.3359 90.1826 52.5391C90.1826 44.6094 87.5394 38.5205 82.2529 34.2725C76.9665 30.0244 69.3672 27.9004 59.4551 27.9004C50.487 27.9004 42.1797 29.1748 34.5332 31.7236C26.8867 34.2725 19.429 37.3405 12.1602 40.9277L0.265625 16.0059C19.429 5.33854 39.9613 0.00488281 61.8623 0.00488281C80.3649 0.00488281 95.0443 4.53613 105.9 13.5986C116.757 22.6611 122.185 35.1693 122.185 51.123C122.185 58.2031 121.146 64.528 119.069 70.0977C116.993 75.5729 113.83 80.8122 109.582 85.8154C105.428 90.8187 98.2067 97.3324 87.917 105.356C79.1377 112.248 73.2376 117.959 70.2168 122.49C67.2904 127.021 65.8271 133.11 65.8271 140.757V147.129H38.0732ZM32.2676 192.3C32.2676 178.045 39.2061 170.918 53.083 170.918C59.8799 170.918 65.0719 172.806 68.6592 176.582C72.2464 180.264 74.04 185.503 74.04 192.3C74.04 199.002 72.1992 204.336 68.5176 208.301C64.9303 212.171 59.7855 214.106 53.083 214.106C46.3805 214.106 41.2357 212.218 37.6484 208.442C34.0612 204.572 32.2676 199.191 32.2676 192.3Z" fill="white"/>
</svg>
