<svg width="19" height="19" viewBox="0 0 19 19" fill="none" xmlns="http://www.w3.org/2000/svg">
<path d="M18.55 16.251L14.1818 11.8825C14.924 10.7009 15.3548 9.30431 15.3548 7.80552C15.3548 3.56526 11.9173 0.128296 7.67723 0.128296C3.43712 0.128296 0 3.56526 0 7.80552C0 12.0459 3.43696 15.4826 7.67723 15.4826C9.30829 15.4826 10.8191 14.9727 12.0622 14.1062L16.3785 18.4227C16.6784 18.7223 17.0716 18.8716 17.4643 18.8716C17.8574 18.8716 18.2501 18.7223 18.5505 18.4227C19.1499 17.8227 19.1499 16.8508 18.55 16.251ZM7.67723 12.9953C4.8113 12.9953 2.48779 10.6719 2.48779 7.80584C2.48779 4.93976 4.8113 2.61624 7.67723 2.61624C10.5433 2.61624 12.8667 4.93976 12.8667 7.80584C12.8667 10.6719 10.5433 12.9953 7.67723 12.9953Z" fill="white"/>
</svg>
