<svg width="35" height="34" viewBox="0 0 35 34" fill="none" xmlns="http://www.w3.org/2000/svg">
<path d="M34.5 17C34.5 26.0991 26.9026 33.5 17.5 33.5C8.0974 33.5 0.5 26.0991 0.5 17C0.5 7.90087 8.0974 0.5 17.5 0.5C26.9026 0.5 34.5 7.90087 34.5 17Z" stroke="white"/>
<g clip-path="url(#clip0_7776_5)">
<path d="M26.6042 12.1517C26.4966 11.7679 26.2871 11.4205 25.9978 11.1463C25.7004 10.8637 25.3358 10.6615 24.9386 10.5589C23.4518 10.167 17.4953 10.167 17.4953 10.167C15.0121 10.1388 12.5295 10.263 10.0616 10.5391C9.6643 10.6493 9.30042 10.856 9.00231 11.1408C8.70939 11.4226 8.49723 11.7701 8.38639 12.1509C8.12015 13.5852 7.99079 15.0416 8.00006 16.5003C7.99056 17.9578 8.1196 19.4137 8.38639 20.8498C8.49485 21.229 8.70623 21.5749 8.99994 21.8544C9.29364 22.1338 9.65939 22.3357 10.0616 22.4426C11.5681 22.8337 17.4953 22.8337 17.4953 22.8337C19.9817 22.862 22.4674 22.7377 24.9386 22.4616C25.3358 22.359 25.7004 22.1568 25.9978 21.8742C26.2907 21.5947 26.4989 21.2472 26.6034 20.8688C26.8766 19.435 27.0095 17.9781 27.0001 16.5186C27.0206 15.0529 26.8879 13.589 26.6042 12.1509V12.1517ZM15.6016 19.211V13.7905L20.5575 16.5011L15.6016 19.211Z" fill="white"/>
</g>
<defs>
<clipPath id="clip0_7776_5">
<rect width="19" height="19" fill="white" transform="translate(8 7)"/>
</clipPath>
</defs>
</svg>
