<svg width="98" height="99" viewBox="0 0 98 99" fill="none" xmlns="http://www.w3.org/2000/svg">
<path d="M97.5 49.5C97.5 76.5667 75.781 98.5 49 98.5C22.219 98.5 0.5 76.5667 0.5 49.5C0.5 22.4333 22.219 0.5 49 0.5C75.781 0.5 97.5 22.4333 97.5 49.5Z" stroke="#FE4807"/>
<path d="M36.808 56.5829V41.0458C36.808 38.2952 39.0382 36.0649 41.7888 36.0649H57.326C60.0766 36.0649 62.3068 38.2952 62.3068 41.0458V56.5829C62.3068 59.3335 60.0766 61.5637 57.326 61.5637H41.7145C39.0382 61.5637 36.808 59.3335 36.808 56.5829Z" stroke="#FE4807" stroke-miterlimit="10"/>
<path d="M41.0455 53.9808V43.6474C41.0455 41.7889 42.5323 40.3765 44.3165 40.3765H54.6498C56.5084 40.3765 57.9208 41.8633 57.9208 43.6474V53.9808C57.9208 55.8393 56.434 57.2518 54.6498 57.2518H44.3165C42.5323 57.3261 41.0455 55.8393 41.0455 53.9808Z" stroke="#FE4807" stroke-miterlimit="10"/>
<path d="M49.5204 27.8874C51.1216 27.8874 52.4197 26.5894 52.4197 24.9881C52.4197 23.3869 51.1216 22.0889 49.5204 22.0889C47.9191 22.0889 46.6211 23.3869 46.6211 24.9881C46.6211 26.5894 47.9191 27.8874 49.5204 27.8874Z" stroke="#FE4807" stroke-miterlimit="10" stroke-linecap="round"/>
<path d="M49.5203 36.065V28.2593" stroke="#FE4807" stroke-miterlimit="10" stroke-linecap="round"/>
<path d="M49.5204 75.6882C51.1216 75.6882 52.4197 74.3902 52.4197 72.7889C52.4197 71.1877 51.1216 69.8896 49.5204 69.8896C47.9191 69.8896 46.6211 71.1877 46.6211 72.7889C46.6211 74.3902 47.9191 75.6882 49.5204 75.6882Z" stroke="#FE4807" stroke-miterlimit="10" stroke-linecap="round"/>
<path d="M49.5203 61.7124V69.5182" stroke="#FE4807" stroke-miterlimit="10" stroke-linecap="round"/>
<path d="M25.657 51.7507C27.2582 51.7507 28.5563 50.4527 28.5563 48.8514C28.5563 47.2502 27.2582 45.9521 25.657 45.9521C24.0557 45.9521 22.7577 47.2502 22.7577 48.8514C22.7577 50.4527 24.0557 51.7507 25.657 51.7507Z" stroke="#FE4807" stroke-miterlimit="10" stroke-linecap="round"/>
<path d="M36.7337 48.8516H28.928" stroke="#FE4807" stroke-miterlimit="10" stroke-linecap="round"/>
<path d="M73.3835 51.7507C74.9848 51.7507 76.2828 50.4527 76.2828 48.8514C76.2828 47.2502 74.9848 45.9521 73.3835 45.9521C71.7823 45.9521 70.4843 47.2502 70.4843 48.8514C70.4843 50.4527 71.7823 51.7507 73.3835 51.7507Z" stroke="#FE4807" stroke-miterlimit="10" stroke-linecap="round"/>
<path d="M73.3835 36.2136C74.9848 36.2136 76.2828 34.9155 76.2828 33.3143C76.2828 31.7131 74.9848 30.415 73.3835 30.415C71.7823 30.415 70.4843 31.7131 70.4843 33.3143C70.4843 34.9155 71.7823 36.2136 73.3835 36.2136Z" stroke="#FE4807" stroke-miterlimit="10" stroke-linecap="round"/>
<path d="M25.2853 36.2136C26.8865 36.2136 28.1845 34.9155 28.1845 33.3143C28.1845 31.7131 26.8865 30.415 25.2853 30.415C23.684 30.415 22.386 31.7131 22.386 33.3143C22.386 34.9155 23.684 36.2136 25.2853 36.2136Z" stroke="#FE4807" stroke-miterlimit="10" stroke-linecap="round"/>
<path d="M62.3068 48.8516H70.1125" stroke="#FE4807" stroke-miterlimit="10" stroke-linecap="round"/>
<path d="M36.3619 41.0455H32.8679V33.2397H28.6305" stroke="#FE4807" stroke-miterlimit="10" stroke-linecap="round"/>
<path d="M62.5299 41.0455H66.0982V33.2397H70.3357" stroke="#FE4807" stroke-miterlimit="10" stroke-linecap="round"/>
<path d="M73.3835 67.2136C74.9848 67.2136 76.2828 65.9155 76.2828 64.3143C76.2828 62.7131 74.9848 61.415 73.3835 61.415C71.7823 61.415 70.4843 62.7131 70.4843 64.3143C70.4843 65.9155 71.7823 67.2136 73.3835 67.2136Z" stroke="#FE4807" stroke-miterlimit="10" stroke-linecap="round"/>
<path d="M25.2853 67.2136C26.8865 67.2136 28.1845 65.9155 28.1845 64.3143C28.1845 62.7131 26.8865 61.415 25.2853 61.415C23.684 61.415 22.386 62.7131 22.386 64.3143C22.386 65.9155 23.684 67.2136 25.2853 67.2136Z" stroke="#FE4807" stroke-miterlimit="10" stroke-linecap="round"/>
<path d="M36.3619 56.583H32.8679V64.3888H28.6305" stroke="#FE4807" stroke-miterlimit="10" stroke-linecap="round"/>
<path d="M62.5299 56.583H66.0982V64.3888H70.3357" stroke="#FE4807" stroke-miterlimit="10" stroke-linecap="round"/>
</svg>
