<svg width="98" height="99" viewBox="0 0 98 99" fill="none" xmlns="http://www.w3.org/2000/svg">
<path d="M97.5 49.5C97.5 76.5667 75.781 98.5 49 98.5C22.219 98.5 0.5 76.5667 0.5 49.5C0.5 22.4332 22.219 0.5 49 0.5C75.781 0.5 97.5 22.4332 97.5 49.5Z" stroke="#FE4807"/>
<path d="M16.1415 63.8729V38.5971C16.1415 35.5803 18.5875 33.1343 21.6043 33.1343H56.6643C59.681 33.1343 62.1271 35.5803 62.1271 38.5971V63.8729C62.1271 66.8897 59.681 69.3357 56.6643 69.3357H21.6043C18.5875 69.3357 16.1415 66.8897 16.1415 63.8729Z" stroke="#FE4807" stroke-miterlimit="10"/>
<path d="M29.5132 45.2014H22.3382C21.1151 45.2014 20.1367 44.2229 20.1367 42.9999V39.5755C20.1367 38.3524 21.1151 37.374 22.3382 37.374H29.5132C30.7362 37.374 31.7147 38.3524 31.7147 39.5755V42.9999C31.7147 44.2229 30.7362 45.2014 29.5132 45.2014Z" stroke="#FE4807" stroke-miterlimit="10"/>
<path d="M43.2925 45.2014H36.1175C34.8944 45.2014 33.916 44.2229 33.916 42.9999V39.5755C33.916 38.3524 34.8944 37.374 36.1175 37.374H43.2925C44.5155 37.374 45.494 38.3524 45.494 39.5755V42.9999C45.494 44.2229 44.5155 45.2014 43.2925 45.2014Z" stroke="#FE4807" stroke-miterlimit="10"/>
<path d="M57.0719 45.2014H49.8969C48.6739 45.2014 47.6954 44.2229 47.6954 42.9999V39.5755C47.6954 38.3524 48.6739 37.374 49.8969 37.374H57.0719C58.295 37.374 59.2734 38.3524 59.2734 39.5755V42.9999C59.1918 44.2229 58.2134 45.2014 57.0719 45.2014Z" stroke="#FE4807" stroke-miterlimit="10"/>
<path d="M29.5132 55.1486H22.3382C21.1151 55.1486 20.1367 54.1702 20.1367 52.9472V49.5227C20.1367 48.2997 21.1151 47.3213 22.3382 47.3213H29.5132C30.7362 47.3213 31.7147 48.2997 31.7147 49.5227V52.9472C31.7147 54.1702 30.7362 55.1486 29.5132 55.1486Z" stroke="#FE4807" stroke-miterlimit="10"/>
<path d="M43.2925 55.1486H36.1175C34.8944 55.1486 33.916 54.1702 33.916 52.9472V49.5227C33.916 48.2997 34.8944 47.3213 36.1175 47.3213H43.2925C44.5155 47.3213 45.494 48.2997 45.494 49.5227V52.9472C45.494 54.1702 44.5155 55.1486 43.2925 55.1486Z" stroke="#FE4807" stroke-miterlimit="10"/>
<path d="M57.0719 55.1486H49.8969C48.6739 55.1486 47.6954 54.1702 47.6954 52.9472V49.5227C47.6954 48.2997 48.6739 47.3213 49.8969 47.3213H57.0719C58.295 47.3213 59.2734 48.2997 59.2734 49.5227V52.9472C59.1918 54.1702 58.2134 55.1486 57.0719 55.1486Z" stroke="#FE4807" stroke-miterlimit="10"/>
<path d="M29.5132 65.8298H22.3382C21.1151 65.8298 20.1367 64.8514 20.1367 63.6283V60.2039C20.1367 58.9809 21.1151 58.0024 22.3382 58.0024H29.5132C30.7362 58.0024 31.7147 58.9809 31.7147 60.2039V63.6283C31.7147 64.8514 30.7362 65.8298 29.5132 65.8298Z" stroke="#FE4807" stroke-miterlimit="10"/>
<path d="M43.2925 65.8298H36.1175C34.8944 65.8298 33.916 64.8514 33.916 63.6283V60.2039C33.916 58.9809 34.8944 58.0024 36.1175 58.0024H43.2925C44.5155 58.0024 45.494 58.9809 45.494 60.2039V63.6283C45.494 64.8514 44.5155 65.8298 43.2925 65.8298Z" stroke="#FE4807" stroke-miterlimit="10"/>
<path d="M57.0719 65.8298H49.8969C48.6739 65.8298 47.6954 64.8514 47.6954 63.6283V60.2039C47.6954 58.9809 48.6739 58.0024 49.8969 58.0024H57.0719C58.295 58.0024 59.2734 58.9809 59.2734 60.2039V63.6283C59.1918 64.8514 58.2134 65.8298 57.0719 65.8298Z" stroke="#FE4807" stroke-miterlimit="10"/>
<path d="M82.4293 34.5204C71.6667 32.9712 63.1055 24.5732 61.2302 13.9736" stroke="#FE4807" stroke-miterlimit="10"/>
<path d="M59.1918 16.8271L35.5468 29.8727" stroke="#FE4807" stroke-miterlimit="10"/>
<path d="M61.6379 23.3501L51.8538 29.8729" stroke="#FE4807" stroke-miterlimit="10"/>
<path d="M65.7147 29.0576L61.6379 32.319" stroke="#FE4807" stroke-miterlimit="10"/>
<path d="M72.2375 33.1343L64.084 39.6571" stroke="#FE4807" stroke-miterlimit="10"/>
<path d="M79.5756 35.5801L64.8993 49.441" stroke="#FE4807" stroke-miterlimit="10"/>
</svg>
