<svg width="102" height="102" viewBox="0 0 102 102" fill="none" xmlns="http://www.w3.org/2000/svg">
<path d="M98.5 52.5C98.5 79.5667 76.781 101.5 50 101.5C23.219 101.5 1.5 79.5667 1.5 52.5C1.5 25.4333 23.219 3.5 50 3.5C76.781 3.5 98.5 25.4333 98.5 52.5Z" stroke="#FE4807"/>
<path d="M27.6727 67.3058C25.0756 63.2735 23.572 58.5576 23.572 53.4317C23.572 39.2843 35.054 27.8022 49.2015 27.8022" stroke="#FE4807" stroke-miterlimit="10"/>
<path d="M71.8238 41.3345C73.7375 44.9568 74.831 49.0575 74.831 53.4316C74.831 67.5791 63.349 79.0611 49.2015 79.0611" stroke="#FE4807" stroke-miterlimit="10"/>
<path d="M70.3203 41.1297C71.8679 41.1297 73.1225 39.8751 73.1225 38.3275C73.1225 36.78 71.8679 35.5254 70.3203 35.5254C68.7728 35.5254 67.5182 36.78 67.5182 38.3275C67.5182 39.8751 68.7728 41.1297 70.3203 41.1297Z" stroke="#FE4807" stroke-miterlimit="10" stroke-linecap="round"/>
<path d="M29.723 73.2516C31.4593 73.2516 32.8669 71.8441 32.8669 70.1077C32.8669 68.3714 31.4593 66.9639 29.723 66.9639C27.9867 66.9639 26.5791 68.3714 26.5791 70.1077C26.5791 71.8441 27.9867 73.2516 29.723 73.2516Z" stroke="#FE4807" stroke-miterlimit="10" stroke-linecap="round"/>
<path d="M49.4066 58.7627C52.7283 58.7627 55.421 56.0699 55.421 52.7483C55.421 49.4266 52.7283 46.7339 49.4066 46.7339C46.0849 46.7339 43.3922 49.4266 43.3922 52.7483C43.3922 56.0699 46.0849 58.7627 49.4066 58.7627Z" stroke="#FE4807" stroke-miterlimit="10"/>
<path d="M45.2376 69.9712C45.2376 70.518 45.716 70.9964 46.2628 70.9964H52.5505C53.0973 70.9964 53.5757 70.518 53.5757 69.9712V68.0575C54.8743 67.7158 56.1728 67.169 57.3347 66.4856L58.7016 67.8525C58.9067 68.0575 59.1117 68.1259 59.3851 68.1259C59.6585 68.1259 59.9318 67.9892 60.0685 67.8525L64.511 63.4101C64.921 63 64.921 62.3849 64.511 61.9748L63.1441 60.6079C63.8275 59.446 64.3743 58.1475 64.716 56.8489H66.6297C67.1764 56.8489 67.6549 56.3705 67.6549 55.8237V49.536C67.6549 48.9892 67.1764 48.5108 66.6297 48.5108H64.716C64.3743 47.2122 63.8275 45.9137 63.1441 44.7518L64.511 43.3849C64.716 43.1798 64.7843 42.9748 64.7843 42.7014C64.7843 42.428 64.6477 42.1547 64.511 42.018L60.0685 37.5755C59.6585 37.1655 59.0433 37.1655 58.6333 37.5755L57.2664 38.9424C56.1045 38.259 54.8059 37.7122 53.5074 37.3705V35.4568C53.5074 34.9101 53.029 34.4316 52.4822 34.4316H46.1944C45.6477 34.4316 45.1692 34.9101 45.1692 35.4568V37.3705C43.8707 37.7122 42.5721 38.259 41.4102 38.9424L40.0433 37.5755C39.77 37.3021 39.0865 37.3021 38.7448 37.7122L34.3023 42.0863C34.0973 42.2914 34.029 42.4964 34.029 42.7698C34.029 43.0432 34.1656 43.3165 34.3023 43.4532L35.6692 44.8201C34.9858 45.982 34.439 47.2806 34.0973 48.5791H32.1836C31.6369 48.5791 31.1584 49.0575 31.1584 49.6043V55.8921C31.1584 56.1655 31.2951 56.4388 31.4318 56.5755C31.5685 56.7122 31.8419 56.8489 32.1153 56.8489H34.029C34.3707 58.1475 34.9174 59.446 35.6009 60.6079L34.234 61.9748C33.8239 62.3849 33.8239 63 34.234 63.4101L38.6764 67.8525C38.8815 68.0575 39.0865 68.1259 39.3599 68.1259C39.6333 68.1259 39.9066 67.9892 40.0433 67.8525L41.4102 66.4856C42.5721 67.169 43.8707 67.7158 45.1692 68.0575V69.9712H45.2376Z" stroke="#FE4807" stroke-miterlimit="10"/>
</svg>
